<?xml version="1.0" encoding="utf-8"?>
<!-- Generator: Adobe Illustrator 23.0.2, SVG Export Plug-In . SVG Version: 6.00 Build 0)  -->
<svg version="1.1" id="Layer_1" xmlns="http://www.w3.org/2000/svg" xmlns:xlink="http://www.w3.org/1999/xlink" x="0px" y="0px"
	 viewBox="0 0 118.51 177.26" style="enable-background:new 0 0 118.51 177.26;" xml:space="preserve">
<style type="text/css">
	.st0{fill:#FFFFFF;stroke:#000000;stroke-width:3;stroke-miterlimit:10;}
	.st1{fill:#FF9F9F;stroke:#000000;stroke-width:3;stroke-miterlimit:10;}
	.st2{fill:#FF6464;}
	.st3{fill:none;stroke:#000000;stroke-width:1.5;stroke-linecap:round;stroke-miterlimit:10;}
	.st4{fill:none;stroke:#000000;stroke-width:1.5;stroke-linecap:round;stroke-miterlimit:10;stroke-dasharray:2.8991,3.8654;}
	.st5{fill:none;stroke:#FF9F9F;stroke-width:4;stroke-miterlimit:10;}
	.st6{fill:none;stroke:#FF9F9F;stroke-width:9;stroke-miterlimit:10;}
	.st7{fill:none;stroke:#000000;stroke-width:3;stroke-miterlimit:10;}
	.st8{opacity:0.2;fill:#3F3F3F;}
	.st9{fill:#FFFFFF;stroke:#000000;stroke-width:2;stroke-miterlimit:10;}
	.st10{fill:#00AEEF;stroke:#000000;stroke-miterlimit:10;}
	.st11{fill:#EFE3D8;stroke:#000000;stroke-miterlimit:10;}
</style>
<g id="dapperSock">
	<path id="bodyShape_2_" class="st0" d="M63.04,166.51l-4.92-63.76c-0.26-3.64,0.25-17.63,0.88-24.38c0.51-5.47-2.05-6.36,29.31-7.5
		c1.3-0.05,2.6-0.02,3.89,0.11c3.12,0.31,12.1,0.07,21.51-10.73c9.99-11.45-5.42-24.1-10.07-27.5c-0.93-0.68-1.81-1.41-2.67-2.22
		c-4.49-4.22-18.65-17.39-27.26-23.81C63.37-0.99,26.37,19.7,22.37,23.75s-15.62,15.82-6,42.99C24.71,90.27,5.71,165.7,5.71,165.7
		L63.04,166.51z"/>
	<g id="mouth_4_">
		<path id="mouth_5_" class="st1" d="M85.18,70.57c-6.04-1.07-21.81-4.54-30.87-13.93c0,0-12.32-16-9.5-2.33
			c2.82,13.67,12.76,23.33,12.76,23.33s11.95-6,29.39-6.67C87.42,70.96,85.63,70.65,85.18,70.57z"/>
		<path id="tongue_2_" class="st2" d="M61.2,74.52c0,0,1.51-5.5-3.55-8.75c-5.06-3.24-7.4-0.59-7.4-0.59
			c0.85,1.67,1.89,3.49,3.15,5.38c1.39,2.1,3.14,3.9,4.42,5.38C59.03,75.41,59.99,75.04,61.2,74.52z"/>
	</g>
	<g id="stitching_2_">
		<g>
			<path class="st3" d="M109.04,37.75c0,0-0.49,0.23-1.33,0.68"/>
			<path class="st4" d="M104.37,40.37c-6.37,4.02-17.1,12.57-18,24.94"/>
			<path class="st3" d="M86.31,67.25c0.01,0.49,0.03,0.99,0.07,1.5"/>
		</g>
	</g>
	<g id="bottomDetails_2_">
		<path id="baseBottom_2_" class="st0" d="M5.67,172.96c7.96,1.6,17.95,2.9,29.46,2.79c10.35-0.1,19.4-1.31,26.79-2.79
			c0.44-0.05,2.16-0.22,3.39-1.73c0.87-1.07,1.4-2.55,1.4-4.19v-23.57c0-3.16-2.07-5.71-4.62-5.71c-7.09,1.64-16.35,3.07-27.21,2.97
			c-9.87-0.09-18.36-1.43-25.03-2.97c-0.46,0.04-1.96,0.17-3.17,1.43c-0.86,0.89-1.48,2.15-1.68,3.61l-3.43,24.14
			C1.12,170.07,3.08,172.96,5.67,172.96z"/>
		<path id="bottomLine_2_" class="st5" d="M3.12,146.17c7.53,2.26,18.44,4.68,31.76,4.75c13.03,0.07,23.77-2.13,31.24-4.25"/>
		<path id="topLine_2_" class="st6" d="M1.56,160.75c7.71,2.26,18.9,4.68,32.54,4.75c13.35,0.07,24.35-2.13,32.02-4.25"/>
		<path id="covering_lines_2_" class="st7" d="M5.67,172.96c7.96,1.6,17.95,2.9,29.46,2.79c10.35-0.1,19.4-1.31,26.79-2.79
			c0.44-0.05,2.16-0.22,3.39-1.73c0.87-1.07,1.4-2.55,1.4-4.19v-23.57c0-3.16-2.07-5.71-4.62-5.71c-7.09,1.64-16.35,3.07-27.21,2.97
			c-9.87-0.09-18.36-1.43-25.03-2.97c-0.46,0.04-1.96,0.17-3.17,1.43c-0.86,0.89-1.48,2.15-1.68,3.61l-3.43,24.14
			C1.12,170.07,3.08,172.96,5.67,172.96z"/>
		<path id="shadow_4_" class="st8" d="M66.7,143.21v23.58c0,1.63-0.46,3.11-1.21,4.18c-1.05,1.52-2.54,1.69-2.92,1.74
			c-4.54,1.06-9.81,1.97-15.7,2.44c3.65-14.77,2.6-27.8,1.41-35.06c5.54-0.51,10.39-1.5,14.43-2.59
			C64.92,137.5,66.7,140.06,66.7,143.21z"/>
	</g>
	<g id="eyes_2_">
		<g id="leftEye_2_">
			<ellipse class="st9" cx="75.12" cy="12" rx="13" ry="11"/>
			<ellipse cx="79.87" cy="15.87" rx="7.25" ry="6.13"/>
		</g>
		<g id="rightEye_2_">
			<ellipse class="st9" cx="97.12" cy="20.75" rx="13" ry="11"/>
			<ellipse cx="92.62" cy="17.62" rx="7.25" ry="6.13"/>
		</g>
	</g>
	<g id="mustache">
		<path d="M86.74,56.09c0,0,0.26-2.21-4.89-4.12c-9.22-3.42-19.57,1.4-22.41-0.31c-2.23-1.35-1.57-5.86-1.57-5.86
			s-3.6,9.96-1.14,14.14c2.78,4.73,8.8,6.92,14.27,7.49C76.47,68,81.21,68,84.36,64.09C87.51,60.18,86.74,56.09,86.74,56.09z"/>
		<path d="M88.12,56.74c0,0,1.53-1.62,6.29,1.1c8.54,4.87,11.5,15.9,14.64,16.98c2.47,0.85,5.33-2.2,5.33-2.2s-5.15,8.79-9.94,9.59
			c-5.42,0.91-10.95-2.3-14.9-6.13c-3.95-3.83-7-7.46-6.02-12.38C84.49,58.77,88.12,56.74,88.12,56.74z"/>
	</g>
	<g id="bowtie">
		<path class="st10" d="M73.18,114.82c0,0-9.08-4.46-12.8-7.31c-5.1-3.91-7.75-10.29-7.75-10.29l1.98-10.53
			c0,0,5.32-3.99,13.01-5.79c5.6-1.31,13.01-1.14,13.01-1.14s1.93,10.79,0.31,17.83C78.79,107,73.18,114.82,73.18,114.82z"/>
		<path class="st10" d="M27.05,115.17c0,0,8.65-5.25,12.1-8.41c4.73-4.34,7.42-12.31,7.42-12.31l-2.5-8c0,0-6.67-4.44-14.49-5.55
			c-5.69-0.81-13.06,0.01-13.06,0.01s-0.96,10.92,1.28,17.79C20.77,107.88,27.05,115.17,27.05,115.17z"/>
		<path class="st10" d="M44.37,86.37c0.83-0.61,2.71-0.63,4.66-0.65c2.55-0.02,4.14-0.13,5.03,0.77c0.86,0.87,1.02,1.74,1.02,4.98
			c0,4.11-0.21,5.22-1.71,5.79c-0.71,0.27-4.06,0.52-4.06,0.52s-1.83-0.12-2.75-0.29c-2.88-0.52-2.94-2.2-2.97-5.56
			C43.58,89.82,43.28,87.17,44.37,86.37z"/>
		<path class="st11" d="M49.32,98.04l-0.02,0c-0.08-0.01-1.85-0.12-2.78-0.29c-3.15-0.56-3.16-2.54-3.19-5.82
			c0-0.35-0.01-0.71-0.02-1.07c-0.05-1.94-0.11-3.95,0.91-4.7c0.91-0.67,2.8-0.68,4.81-0.7c0.22,0,0.43,0,0.64-0.01
			c0.37,0,0.71-0.01,1.03-0.01c1.47,0,2.75,0.07,3.55,0.86c0.96,0.97,1.1,2.03,1.1,5.16c0,3.94-0.15,5.38-1.88,6.04
			c-0.73,0.28-3.79,0.51-4.13,0.54L49.32,98.04z M50.7,85.97c-0.32,0-0.66,0-1.03,0.01c-0.21,0-0.42,0.01-0.64,0.01
			c-1.84,0.02-3.74,0.03-4.51,0.6c-0.8,0.59-0.75,2.54-0.7,4.26c0.01,0.37,0.02,0.73,0.02,1.08c0.03,3.58,0.17,4.84,2.75,5.31
			c0.85,0.15,2.51,0.27,2.71,0.28c0.93-0.07,3.41-0.29,3.96-0.5c1.3-0.49,1.54-1.38,1.54-5.54c0-3.19-0.16-3.99-0.95-4.79
			C53.28,86.08,52.3,85.97,50.7,85.97z"/>
	</g>
</g>
</svg>
