<?xml version="1.0" encoding="utf-8"?>
<!-- Generator: Adobe Illustrator 23.0.2, SVG Export Plug-In . SVG Version: 6.00 Build 0)  -->
<svg version="1.1" id="Layer_1" xmlns="http://www.w3.org/2000/svg" xmlns:xlink="http://www.w3.org/1999/xlink" x="0px" y="0px"
	 viewBox="0 0 118.51 177.26" style="enable-background:new 0 0 118.51 177.26;" xml:space="preserve">
<style type="text/css">
	.st0{fill:#FFFFFF;stroke:#000000;stroke-width:3;stroke-miterlimit:10;}
	.st1{fill:#FF9F9F;stroke:#000000;stroke-width:3;stroke-miterlimit:10;}
	.st2{fill:#FF6464;}
	.st3{fill:none;stroke:#000000;stroke-width:1.5;stroke-linecap:round;stroke-miterlimit:10;}
	.st4{fill:none;stroke:#000000;stroke-width:1.5;stroke-linecap:round;stroke-miterlimit:10;stroke-dasharray:2.8991,3.8654;}
	.st5{fill:none;stroke:#FF9F9F;stroke-width:4;stroke-miterlimit:10;}
	.st6{fill:none;stroke:#FF9F9F;stroke-width:9;stroke-miterlimit:10;}
	.st7{fill:none;stroke:#000000;stroke-width:3;stroke-miterlimit:10;}
	.st8{opacity:0.2;fill:#3F3F3F;}
	.st9{fill:#FFFFFF;stroke:#000000;stroke-width:2;stroke-miterlimit:10;}
	.st10{fill:#AF3535;}
	.st11{fill:#E79F00;}
	.st12{fill:#FFAE46;}
	.st13{fill:#FFE9B8;}
	.st14{fill:#3F4A5D;}
</style>
<g id="drummerSock">
	<path id="bodyShape_3_" class="st0" d="M63.04,166.51l-4.92-63.76c-0.26-3.64,0.25-17.63,0.88-24.38c0.51-5.47-2.05-6.36,29.31-7.5
		c1.3-0.05,2.6-0.02,3.89,0.11c3.12,0.31,12.1,0.07,21.51-10.73c9.99-11.45-5.42-24.1-10.07-27.5c-0.93-0.68-1.81-1.41-2.67-2.22
		c-4.49-4.22-18.65-17.39-27.26-23.81C63.37-0.99,26.37,19.7,22.37,23.75s-15.62,15.82-6,42.99C24.71,90.27,5.71,165.7,5.71,165.7
		L63.04,166.51z"/>
	<g id="mouth_6_">
		<path id="mouth_7_" class="st1" d="M85.18,70.57c-6.04-1.07-21.81-4.54-30.87-13.93c0,0-12.32-16-9.5-2.33
			c2.82,13.67,12.76,23.33,12.76,23.33s11.95-6,29.39-6.67C87.42,70.96,85.63,70.65,85.18,70.57z"/>
		<path id="tongue_3_" class="st2" d="M61.2,74.52c0,0,1.51-5.5-3.55-8.75c-5.06-3.24-7.4-0.59-7.4-0.59
			c0.85,1.67,1.89,3.49,3.15,5.38c1.39,2.1,3.14,3.9,4.42,5.38C59.03,75.41,59.99,75.04,61.2,74.52z"/>
	</g>
	<g id="stitching_3_">
		<g>
			<path class="st3" d="M109.04,37.75c0,0-0.49,0.23-1.33,0.68"/>
			<path class="st4" d="M104.37,40.37c-6.37,4.02-17.1,12.57-18,24.94"/>
			<path class="st3" d="M86.31,67.25c0.01,0.49,0.03,0.99,0.07,1.5"/>
		</g>
	</g>
	<g id="bottomDetails_3_">
		<path id="baseBottom_3_" class="st0" d="M5.67,172.96c7.96,1.6,17.95,2.9,29.46,2.79c10.35-0.1,19.4-1.31,26.79-2.79
			c0.44-0.05,2.16-0.22,3.39-1.73c0.87-1.07,1.4-2.55,1.4-4.19v-23.57c0-3.16-2.07-5.71-4.62-5.71c-7.09,1.64-16.35,3.07-27.21,2.97
			c-9.87-0.09-18.36-1.43-25.03-2.97c-0.46,0.04-1.96,0.17-3.17,1.43c-0.86,0.89-1.48,2.15-1.68,3.61l-3.43,24.14
			C1.12,170.07,3.08,172.96,5.67,172.96z"/>
		<path id="bottomLine_3_" class="st5" d="M3.12,146.17c7.53,2.26,18.44,4.68,31.76,4.75c13.03,0.07,23.77-2.13,31.24-4.25"/>
		<path id="topLine_3_" class="st6" d="M1.56,160.75c7.71,2.26,18.9,4.68,32.54,4.75c13.35,0.07,24.35-2.13,32.02-4.25"/>
		<path id="covering_lines_3_" class="st7" d="M5.67,172.96c7.96,1.6,17.95,2.9,29.46,2.79c10.35-0.1,19.4-1.31,26.79-2.79
			c0.44-0.05,2.16-0.22,3.39-1.73c0.87-1.07,1.4-2.55,1.4-4.19v-23.57c0-3.16-2.07-5.71-4.62-5.71c-7.09,1.64-16.35,3.07-27.21,2.97
			c-9.87-0.09-18.36-1.43-25.03-2.97c-0.46,0.04-1.96,0.17-3.17,1.43c-0.86,0.89-1.48,2.15-1.68,3.61l-3.43,24.14
			C1.12,170.07,3.08,172.96,5.67,172.96z"/>
		<path id="shadow_5_" class="st8" d="M66.7,143.21v23.58c0,1.63-0.46,3.11-1.21,4.18c-1.05,1.52-2.54,1.69-2.92,1.74
			c-4.54,1.06-9.81,1.97-15.7,2.44c3.65-14.77,2.6-27.8,1.41-35.06c5.54-0.51,10.39-1.5,14.43-2.59
			C64.92,137.5,66.7,140.06,66.7,143.21z"/>
	</g>
	<g id="eyes_3_">
		<g id="leftEye_3_">
			<ellipse class="st9" cx="75.12" cy="12" rx="13" ry="11"/>
			<ellipse cx="79.87" cy="15.87" rx="7.25" ry="6.13"/>
		</g>
		<g id="rightEye_3_">
			<ellipse class="st9" cx="97.12" cy="20.75" rx="13" ry="11"/>
			<ellipse cx="92.62" cy="17.62" rx="7.25" ry="6.13"/>
		</g>
	</g>
	<g id="drums_1_">
		<g>
			<g>
				<path class="st10" d="M86.18,115.07h-3.22h-4.29H77.6h-4.29h-5.9h-6.43h-5.9h-5.36h-4.29h-3.22h-2.14v14.8
					c0.01,1.58,0.78,3.09,2.14,4.44c0.85,0.85,1.93,1.64,3.22,2.35c1.22,0.85,2.67,1.6,4.29,2.21c1.65,0.5,3.45,0.91,5.36,1.21
					c1.88,0.27,3.85,0.46,5.9,0.55c1.06,0.04,2.13,0.07,3.22,0.07c1.09,0,2.16-0.02,3.22-0.07c2.05-0.09,4.02-0.28,5.9-0.55
					c1.91-0.3,3.71-0.71,5.36-1.21v-0.35c1.59-0.54,3.04-1.16,4.29-1.86c1.28-0.72,2.37-1.51,3.22-2.35
					c1.36-1.36,2.13-2.86,2.14-4.44c0,0,0-14.8,0-14.8H86.18z"/>
				<path class="st11" d="M64.2,103.95c12.11,0,22.14,4.02,23.86,9.27c0.17-0.53,0.26-1.06,0.26-1.61c0-6.01-10.8-10.88-24.13-10.88
					s-24.13,4.87-24.13,10.88c0,0.55,0.09,1.08,0.26,1.61C42.06,107.97,52.09,103.95,64.2,103.95z"/>
				<path class="st12" d="M88.33,128.8c-0.05,5.99-10.83,10.84-24.13,10.84s-24.08-4.85-24.13-10.84c0,0,0,3.22,0,3.22
					c0.03,3.62,3.99,6.82,10.05,8.79c3.96,1.29,8.82,2.05,14.08,2.05s10.12-0.76,14.08-2.05c6.06-1.97,10.02-5.17,10.05-8.79
					C88.33,132.02,88.33,128.8,88.33,128.8L88.33,128.8z"/>
				<path class="st13" d="M88.33,113.75c0,6.01-10.8,9.8-24.13,9.8s-24.13-3.8-24.13-9.8c0-6.01,10.8-10.88,24.13-10.88
					S88.33,107.74,88.33,113.75z"/>
				<path class="st12" d="M64.2,122.48c-13.3,0-24.08-4.85-24.13-10.84c0,0,0,3.22,0,3.22c0.05,5.99,10.83,10.84,24.13,10.84
					s24.08-4.85,24.13-10.84c0,0,0-3.22,0-3.22C88.28,117.63,77.5,122.48,64.2,122.48z"/>
			</g>
			<path class="st14" d="M56.89,141.14c0,0.53,0.38,0.96,0.86,0.96c0.47,0,0.86-0.43,0.86-0.96c0-0.53-0.38-0.96-0.86-0.96
				C57.27,140.17,56.89,140.6,56.89,141.14z"/>
			<circle class="st14" cx="64.2" cy="124.19" r="0.96"/>
			<path class="st14" d="M85.77,118.67c0,0.53-0.3,0.96-0.67,0.96c-0.37,0-0.67-0.43-0.67-0.96c0-0.53,0.3-0.96,0.67-0.96
				C85.47,117.71,85.77,118.14,85.77,118.67z"/>
			<ellipse class="st14" cx="76.51" cy="122.68" rx="0.86" ry="0.96"/>
			<path class="st14" d="M83.79,137.08c0,0.53-0.34,0.96-0.76,0.96c-0.42,0-0.76-0.43-0.76-0.96c0-0.53,0.34-0.96,0.76-0.96
				C83.45,136.12,83.79,136.55,83.79,137.08z"/>
			<path class="st14" d="M71.51,141.14c0,0.53-0.38,0.96-0.86,0.96c-0.47,0-0.86-0.43-0.86-0.96c0-0.53,0.38-0.96,0.86-0.96
				C71.12,140.17,71.51,140.6,71.51,141.14z"/>
			<path class="st14" d="M88.67,131.43c0,0.52-0.15,0.93-0.32,0.93c-0.18,0-0.32-0.42-0.32-0.93c0-0.52,0.15-0.93,0.32-0.93
				C88.52,130.5,88.67,130.91,88.67,131.43z"/>
			<path class="st14" d="M42.63,118.67c0,0.53,0.3,0.96,0.67,0.96c0.37,0,0.67-0.43,0.67-0.96c0-0.53-0.3-0.96-0.67-0.96
				C42.93,117.71,42.63,118.14,42.63,118.67z"/>
			<ellipse class="st14" cx="40.05" cy="131.43" rx="0.32" ry="0.93"/>
			<path class="st14" d="M44.41,137.08c0,0.53,0.43,0.96,0.96,0.96s0.96-0.43,0.96-0.96c0-0.53-0.43-0.96-0.96-0.96
				S44.41,136.55,44.41,137.08z"/>
			<ellipse class="st14" cx="51.89" cy="122.68" rx="0.86" ry="0.96"/>
		</g>
		<path class="st12" d="M58.79,110.2c-0.17-0.03-30.97-20.79-30.97-20.79c-0.46-0.31-0.98-0.34-1.16-0.08l-0.12,0.19l-0.12,0.19
			c-0.18,0.27,0.06,0.73,0.53,1.03c0,0,31.18,20.18,31.27,20.32c0.37,0.56,0.4,0.95,1.31,1.55c1.56,1.03,2.49,1.06,2.82,0.55
			c0.33-0.5-0.06-1.34-1.62-2.38C59.82,110.2,59.44,110.32,58.79,110.2z"/>
		<path class="st12" d="M73.57,106.5c0.07-0.16,26.47-26.28,26.47-26.28c0.39-0.39,0.53-0.89,0.3-1.12l-0.16-0.16l-0.16-0.16
			c-0.23-0.22-0.73-0.08-1.12,0.31c0,0-25.91,26.6-26.08,26.67c-0.62,0.26-1.01,0.21-1.78,0.98c-1.32,1.33-1.53,2.23-1.1,2.66
			c0.43,0.42,1.33,0.21,2.65-1.12C73.37,107.51,73.31,107.12,73.57,106.5z"/>
	</g>
</g>
</svg>
