<?xml version="1.0" encoding="utf-8"?>
<!-- Generator: Adobe Illustrator 23.0.2, SVG Export Plug-In . SVG Version: 6.00 Build 0)  -->
<svg version="1.1" id="Layer_1" xmlns="http://www.w3.org/2000/svg" xmlns:xlink="http://www.w3.org/1999/xlink" x="0px" y="0px"
	 viewBox="0 0 88.26 76.45" style="enable-background:new 0 0 88.26 76.45;" xml:space="preserve">
<style type="text/css">
	.st0{fill:#AF3535;}
	.st1{fill:#E79F00;}
	.st2{fill:#FFAE46;}
	.st3{fill:#FFE9B8;}
	.st4{fill:#3F4A5D;}
</style>
<g id="drums">
	<g>
		<g>
			<path class="st0" d="M71.27,43.36h-3.83h-5.11h-1.28h-5.11h-7.03h-7.66h-7.03h-6.39h-5.11h-3.83h-2.55v17.63
				c0.02,1.89,0.93,3.68,2.55,5.29c1.01,1.01,2.3,1.95,3.83,2.8c1.46,1.02,3.18,1.91,5.11,2.63c1.97,0.59,4.11,1.08,6.39,1.44
				c2.24,0.32,4.59,0.55,7.03,0.66c1.26,0.05,2.54,0.08,3.83,0.08s2.57-0.03,3.83-0.08c2.44-0.11,4.79-0.33,7.03-0.66
				c2.27-0.36,4.42-0.85,6.39-1.44V71.3c1.9-0.64,3.62-1.38,5.11-2.22c1.53-0.85,2.82-1.79,3.83-2.8c1.62-1.61,2.54-3.4,2.55-5.29
				c0,0,0-17.63,0-17.63H71.27z"/>
			<path class="st1" d="M45.08,30.1c14.43,0,26.37,4.79,28.43,11.04c0.21-0.63,0.32-1.26,0.32-1.92c0-7.16-12.87-12.96-28.74-12.96
				s-28.74,5.8-28.74,12.96c0,0.65,0.11,1.29,0.32,1.92C18.71,34.89,30.65,30.1,45.08,30.1z"/>
			<path class="st2" d="M73.82,59.71c-0.06,7.13-12.9,12.91-28.74,12.91S16.4,66.85,16.34,59.71c0,0,0,3.83,0,3.83
				c0.04,4.31,4.75,8.13,11.97,10.47c4.72,1.53,10.51,2.44,16.78,2.44s12.05-0.91,16.77-2.44c7.22-2.34,11.93-6.16,11.97-10.47
				C73.83,63.54,73.83,59.71,73.82,59.71L73.82,59.71z"/>
			<path class="st3" d="M73.83,41.78c0,7.16-12.87,11.68-28.74,11.68s-28.74-4.52-28.74-11.68c0-7.16,12.87-12.96,28.74-12.96
				S73.83,34.62,73.83,41.78z"/>
			<path class="st2" d="M45.08,52.18c-15.84,0-28.69-5.78-28.74-12.91c0,0,0,3.83,0,3.83c0.06,7.13,12.9,12.91,28.74,12.91
				s28.69-5.78,28.74-12.91c0,0,0-3.83,0-3.83C73.77,46.41,60.92,52.18,45.08,52.18z"/>
		</g>
		<path class="st4" d="M36.37,74.4c0,0.63,0.46,1.15,1.02,1.15c0.57,0,1.02-0.51,1.02-1.15c0-0.63-0.46-1.15-1.02-1.15
			C36.83,73.26,36.37,73.77,36.37,74.4z"/>
		<circle class="st4" cx="45.08" cy="54.22" r="1.15"/>
		<path class="st4" d="M70.77,47.64c0,0.63-0.36,1.15-0.8,1.15c-0.44,0-0.8-0.51-0.8-1.15c0-0.63,0.36-1.15,0.8-1.15
			C70.42,46.49,70.77,47.01,70.77,47.64z"/>
		<ellipse class="st4" cx="59.74" cy="52.42" rx="1.02" ry="1.15"/>
		<path class="st4" d="M68.42,69.57c0,0.63-0.41,1.15-0.91,1.15c-0.5,0-0.91-0.51-0.91-1.15c0-0.63,0.41-1.15,0.91-1.15
			C68.02,68.42,68.42,68.94,68.42,69.57z"/>
		<path class="st4" d="M53.79,74.4c0,0.63-0.46,1.15-1.02,1.15c-0.57,0-1.02-0.51-1.02-1.15c0-0.63,0.46-1.15,1.02-1.15
			C53.33,73.26,53.79,73.77,53.79,74.4z"/>
		<path class="st4" d="M74.23,62.84c0,0.61-0.17,1.11-0.39,1.11c-0.21,0-0.39-0.5-0.39-1.11s0.17-1.11,0.39-1.11
			C74.06,61.73,74.23,62.23,74.23,62.84z"/>
		<path class="st4" d="M19.39,47.64c0,0.63,0.36,1.15,0.8,1.15c0.44,0,0.8-0.51,0.8-1.15c0-0.63-0.36-1.15-0.8-1.15
			C19.75,46.49,19.39,47.01,19.39,47.64z"/>
		<ellipse class="st4" cx="16.32" cy="62.84" rx="0.39" ry="1.11"/>
		<path class="st4" d="M21.5,69.57c0,0.63,0.51,1.15,1.15,1.15s1.15-0.51,1.15-1.15c0-0.63-0.51-1.15-1.15-1.15
			S21.5,68.94,21.5,69.57z"/>
		<ellipse class="st4" cx="30.42" cy="52.42" rx="1.02" ry="1.15"/>
	</g>
	<path class="st2" d="M38.63,37.55C38.43,37.51,1.74,12.79,1.74,12.79c-0.55-0.37-1.17-0.41-1.38-0.09l-0.15,0.22l-0.15,0.22
		c-0.21,0.32,0.07,0.87,0.63,1.23c0,0,37.14,24.04,37.25,24.21c0.45,0.66,0.48,1.13,1.56,1.85c1.86,1.23,2.96,1.26,3.36,0.66
		c0.4-0.6-0.07-1.6-1.93-2.83C39.86,37.55,39.42,37.7,38.63,37.55z"/>
	<path class="st2" d="M56.24,33.14c0.08-0.19,31.53-31.3,31.53-31.3c0.47-0.47,0.63-1.06,0.36-1.33l-0.19-0.19l-0.19-0.19
		c-0.27-0.27-0.87-0.1-1.33,0.37c0,0-30.87,31.69-31.06,31.77c-0.74,0.31-1.2,0.25-2.12,1.17c-1.57,1.58-1.82,2.66-1.31,3.16
		c0.51,0.51,1.58,0.25,3.15-1.33C56,34.35,55.94,33.88,56.24,33.14z"/>
</g>
</svg>
