<?xml version="1.0" encoding="utf-8"?>
<!-- Generator: Adobe Illustrator 23.0.2, SVG Export Plug-In . SVG Version: 6.00 Build 0)  -->
<svg version="1.1" id="Layer_1" xmlns="http://www.w3.org/2000/svg" xmlns:xlink="http://www.w3.org/1999/xlink" x="0px" y="0px"
	 viewBox="0 0 118.51 177.26" style="enable-background:new 0 0 118.51 177.26;" xml:space="preserve">
<style type="text/css">
	.st0{fill:none;}
	.st1{fill:#7D6445;}
	.st2{fill:#C68A5C;}
	.st3{fill:#C98F5F;}
	.st4{fill:#CD9362;}
	.st5{fill:#D19865;}
	.st6{fill:#D49D68;}
	.st7{fill:#D8A26C;}
	.st8{fill:#DCA76F;}
	.st9{fill:#E0AC73;}
	.st10{fill:#E4B176;}
	.st11{fill:#E8B67A;}
	.st12{fill:#ECBC7D;}
	.st13{fill:#F1C281;}
	.st14{fill:#F7C885;}
	.st15{fill:#FFD08A;}
	.st16{fill:#C78C5D;}
	.st17{fill:#CA9060;}
	.st18{fill:#CE9563;}
	.st19{fill:#D29966;}
	.st20{fill:#D59E69;}
	.st21{fill:#D9A36D;}
	.st22{fill:#DDA870;}
	.st23{fill:#E0AD73;}
	.st24{fill:#E4B277;}
	.st25{fill:#E8B77A;}
	.st26{fill:#EDBC7E;}
	.st27{fill:#F1C282;}
	.st28{fill:#F7C886;}
	.st29{fill:#C4895B;}
	.st30{fill:#C88D5E;}
	.st31{fill:#CC9261;}
	.st32{fill:#CF9764;}
	.st33{fill:#D39C68;}
	.st34{fill:#D7A16B;}
	.st35{fill:#DBA66E;}
	.st36{fill:#DFAB72;}
	.st37{fill:#E3B076;}
	.st38{fill:#E7B679;}
	.st39{fill:#ECBB7D;}
	.st40{fill:#F1C181;}
	.st41{fill:#D9A36C;}
	.st42{fill:#CB9261;}
	.st43{fill:#CF9664;}
	.st44{fill:#D39B67;}
	.st45{fill:#D69F6A;}
	.st46{fill:#DAA46D;}
	.st47{fill:#DDA970;}
	.st48{fill:#E1AD74;}
	.st49{fill:#E5B277;}
	.st50{fill:#E9B77B;}
	.st51{fill:#EDBD7E;}
	.st52{fill:#F2C282;}
	.st53{fill:#F7E6CA;}
	.st54{fill:#D29A66;}
	.st55{fill:#E1AD73;}
	.st56{fill:#D09765;}
	.st57{fill:#D7A06B;}
	.st58{fill:#DAA56E;}
	.st59{fill:#DEA971;}
	.st60{fill:#E2AE74;}
	.st61{fill:#E5B378;}
	.st62{fill:#E9B87B;}
	.st63{fill:#F2C382;}
	.st64{fill:#F7C986;}
	.st65{fill:url(#bodyShape_2_);stroke:#000000;stroke-width:3;stroke-miterlimit:10;}
	.st66{fill:#FF9F9F;stroke:#000000;stroke-width:3;stroke-miterlimit:10;}
	.st67{fill:#FF6464;}
	.st68{fill:none;stroke:#000000;stroke-width:1.5;stroke-linecap:round;stroke-miterlimit:10;}
	.st69{fill:none;stroke:#000000;stroke-width:1.5;stroke-linecap:round;stroke-miterlimit:10;stroke-dasharray:2.8991,3.8654;}
	.st70{fill:#FFFFFF;stroke:#000000;stroke-width:3;stroke-miterlimit:10;}
	.st71{fill:none;stroke:#FF9F9F;stroke-width:4;stroke-miterlimit:10;}
	.st72{fill:none;stroke:#FF9F9F;stroke-width:9;stroke-miterlimit:10;}
	.st73{fill:none;stroke:#000000;stroke-width:3;stroke-miterlimit:10;}
	.st74{opacity:0.2;fill:#3F3F3F;}
	.st75{fill:#FFFFFF;stroke:#000000;stroke-width:2;stroke-miterlimit:10;}
</style>
<pattern  x="-537.54" y="-424.05" width="124.42" height="124.41" patternUnits="userSpaceOnUse" id="Giraffe" viewBox="124.42 -138.11 124.42 124.41" style="overflow:visible;">
	<g>
		<rect x="124.42" y="-138.11" class="st0" width="124.42" height="124.41"/>
		<g>
			<g>
				<path class="st1" d="M150.72-29.15c4.85-1,9.84-3.28,16.95,7.65c7.11,10.94,19.97-1.85,25.44-7.31
					c5.47-5.47,7.11,20.78,7.65,24.6c0.55,3.83-23.69,7.04-33.1,0.21c-6.01-4.38-15.86-9.84-17.5-8.2
					C148.54-10.56,129.4-24.77,150.72-29.15z"/>
				<path class="st1" d="M220.1-33.88c0,0,7.9-1.73,7.36,3.36c-0.54,5.08-5.98,4.64-5.04,8.18c0.95,3.55,0.8,5.87,3.81,10
					c3.01,4.14-7.73,12.33-11.47,6.86C211.03-10.93,198.96-36.21,220.1-33.88z"/>
			</g>
			<g>
				<g>
					<path class="st2" d="M149.43-29.58c4.85-1,9.84-3.28,16.95,7.65c7.11,10.94,19.97-1.85,25.44-7.31
						c5.47-5.47,7.11,20.78,7.66,24.6c0.55,3.83-23.7,7.04-33.1,0.21c-6.01-4.37-15.86-9.84-17.5-8.2
						C147.24-10.99,128.1-25.2,149.43-29.58z"/>
					<path class="st3" d="M150.64-28.5c4.6-0.94,9.34-3.09,16.09,7.21c6.75,10.31,18.96-1.74,24.15-6.89
						c5.19-5.16,6.75,19.58,7.27,23.19c0.5,3.53-22.15,6.77-31.42,0.2c-5.74-4.07-15.05-9.28-16.61-7.73
						C148.56-10.97,130.39-24.37,150.64-28.5z"/>
					<path class="st4" d="M151.85-27.42c4.36-0.88,8.85-2.9,15.23,6.78c6.39,9.68,17.95-1.63,22.87-6.47
						c4.92-4.84,6.39,18.39,6.88,21.78c0.46,3.24-20.6,6.49-29.75,0.18c-5.46-3.77-14.25-8.71-15.72-7.26
						C149.88-10.96,132.68-23.54,151.85-27.42z"/>
					<path class="st5" d="M153.06-26.34c4.11-0.83,8.35-2.72,14.38,6.34c6.03,9.06,16.94-1.53,21.58-6.06
						c4.64-4.53,6.03,17.21,6.49,20.37c0.42,2.94-19.05,6.21-28.07,0.17c-5.19-3.47-13.45-8.15-14.84-6.79
						C151.2-10.94,134.97-22.71,153.06-26.34z"/>
					<path class="st6" d="M154.27-25.26c3.87-0.77,7.85-2.53,13.52,5.9c5.67,8.43,15.93-1.42,20.29-5.64
						c4.36-4.21,5.68,16.02,6.11,18.97c0.38,2.65-17.5,5.92-26.4,0.16c-4.9-3.18-12.65-7.59-13.95-6.32
						C152.53-10.92,137.26-21.88,154.27-25.26z"/>
					<path class="st7" d="M155.48-24.17c3.62-0.71,7.35-2.34,12.66,5.46c5.31,7.8,14.92-1.32,19-5.22
						c4.09-3.9,5.32,14.82,5.72,17.56c0.34,2.36-15.94,5.64-24.72,0.15c-4.62-2.88-11.84-7.02-13.07-5.85
						C153.85-10.91,139.55-21.05,155.48-24.17z"/>
					<path class="st8" d="M156.69-23.09c3.38-0.66,6.85-2.15,11.8,5.02c4.95,7.18,13.91-1.21,17.72-4.8
						c3.81-3.59,4.96,13.63,5.33,16.15c0.3,2.06-14.38,5.34-23.05,0.13c-4.33-2.6-11.04-6.46-12.18-5.38
						C155.17-10.89,141.84-20.23,156.69-23.09z"/>
					<path class="st9" d="M157.9-22.01c3.13-0.6,6.35-1.96,10.94,4.59c4.59,6.55,12.9-1.11,16.43-4.38
						c3.53-3.28,4.6,12.44,4.94,14.74c0.26,1.77-12.81,5.05-21.37,0.12c-4.03-2.32-10.24-5.89-11.3-4.91
						C156.49-10.88,144.13-19.4,157.9-22.01z"/>
					<path class="st10" d="M159.11-20.93c2.88-0.54,5.86-1.78,10.09,4.15c4.23,5.92,11.89-1,15.14-3.96
						c3.25-2.96,4.25,11.25,4.56,13.33c0.22,1.47-11.23,4.74-19.7,0.11c-3.74-2.04-9.44-5.33-10.41-4.44
						C157.81-10.86,146.42-18.57,159.11-20.93z"/>
					<path class="st11" d="M160.33-19.85c2.64-0.48,5.36-1.59,9.23,3.71c3.87,5.3,10.88-0.89,13.85-3.54
						c2.98-2.65,3.89,10.06,4.17,11.92c0.18,1.18-9.65,4.42-18.02,0.1c-3.44-1.77-8.63-4.77-9.53-3.97
						C159.13-10.85,148.71-17.74,160.33-19.85z"/>
					<path class="st12" d="M161.54-18.77c2.39-0.43,4.86-1.4,8.37,3.27c3.51,4.67,9.87-0.79,12.57-3.12
						c2.7-2.34,3.53,8.87,3.78,10.51c0.14,0.88-8.06,4.08-16.35,0.09c-3.13-1.51-7.83-4.2-8.64-3.5
						C160.46-10.83,151-16.91,161.54-18.77z"/>
					<path class="st13" d="M162.75-17.69c2.15-0.37,4.36-1.21,7.51,2.83c3.15,4.04,8.85-0.68,11.28-2.71
						c2.42-2.02,3.17,7.68,3.39,9.1c0.09,0.59-6.46,3.72-14.67,0.07c-2.83-1.25-7.03-3.64-7.76-3.03
						C161.78-10.82,153.29-16.08,162.75-17.69z"/>
					<path class="st14" d="M163.96-16.61c1.9-0.31,3.86-1.03,6.66,2.39c2.79,3.42,7.84-0.58,9.99-2.29
						c2.15-1.71,2.81,6.49,3.01,7.69c0.05,0.29-4.85,3.33-13,0.06c-2.52-1.01-6.23-3.08-6.87-2.56
						C163.1-10.8,155.58-15.25,163.96-16.61z"/>
					<path class="st15" d="M170.97-9.11c-2.21-0.77-5.42-2.51-5.99-2.09c-0.56,0.42-7.11-3.21,0.19-4.33
						c1.66-0.26,3.37-0.84,5.8,1.96c2.43,2.79,6.83-0.47,8.7-1.87c1.87-1.39,2.43,5.3,2.62,6.28
						C182.29-9.16,179.07-6.29,170.97-9.11z"/>
				</g>
				<g>
					<path class="st16" d="M218.81-34.31c0,0,7.9-1.73,7.36,3.36c-0.54,5.09-5.98,4.64-5.04,8.19c0.95,3.55,0.81,5.87,3.81,10
						c3.01,4.14-7.73,12.33-11.47,6.86C209.73-11.36,197.66-36.64,218.81-34.31z"/>
					<path class="st17" d="M218.6-33.86c0,0,7.47-1.67,6.96,3.24c-0.51,4.9-5.66,4.47-4.76,7.89c0.9,3.42,0.76,5.66,3.6,9.64
						c2.84,3.99-7.31,11.88-10.85,6.62C210.02-11.74,198.6-36.11,218.6-33.86z"/>
					<path class="st18" d="M218.39-33.41c0,0,7.05-1.61,6.56,3.12c-0.48,4.72-5.33,4.3-4.49,7.6c0.85,3.29,0.72,5.45,3.4,9.29
						c2.68,3.84-6.89,11.44-10.23,6.37C210.3-12.11,199.53-35.58,218.39-33.41z"/>
					<path class="st19" d="M218.19-32.97c0,0,6.62-1.54,6.16,3c-0.45,4.54-5.01,4.14-4.22,7.3c0.8,3.17,0.68,5.23,3.19,8.93
						c2.52,3.7-6.47,11-9.61,6.12C210.58-12.49,200.47-35.05,218.19-32.97z"/>
					<path class="st20" d="M217.98-32.52c0,0,6.19-1.48,5.77,2.88c-0.43,4.36-4.69,3.97-3.95,7.01c0.74,3.04,0.63,5.02,2.99,8.57
						c2.36,3.55-6.06,10.56-8.99,5.88C210.87-12.87,201.41-34.52,217.98-32.52z"/>
					<path class="st21" d="M217.77-32.07c0,0,5.76-1.42,5.37,2.75c-0.39,4.17-4.37,3.8-3.67,6.72c0.69,2.91,0.59,4.81,2.78,8.21
						c2.19,3.4-5.64,10.12-8.37,5.63C211.15-13.24,202.34-33.99,217.77-32.07z"/>
					<path class="st22" d="M217.57-31.62c0,0,5.34-1.36,4.97,2.63c-0.37,3.99-4.04,3.64-3.4,6.42c0.64,2.78,0.54,4.6,2.58,7.85
						c2.03,3.25-5.22,9.67-7.75,5.39C211.43-13.62,203.28-33.45,217.57-31.62z"/>
					<path class="st23" d="M217.36-31.17c0,0,4.91-1.29,4.57,2.51c-0.34,3.81-3.72,3.47-3.13,6.13c0.59,2.65,0.5,4.39,2.37,7.49
						c1.87,3.1-4.8,9.23-7.13,5.14C211.72-13.99,204.21-32.92,217.36-31.17z"/>
					<path class="st24" d="M217.15-30.73c0,0,4.48-1.23,4.18,2.39c-0.31,3.63-3.39,3.3-2.86,5.83c0.54,2.53,0.46,4.18,2.16,7.13
						c1.71,2.95-4.39,8.79-6.51,4.89C212-14.37,205.15-32.39,217.15-30.73z"/>
					<path class="st25" d="M216.94-30.28c0,0,4.06-1.17,3.78,2.27c-0.28,3.44-3.07,3.14-2.59,5.54c0.49,2.4,0.42,3.97,1.96,6.77
						c1.54,2.8-3.97,8.35-5.89,4.65C212.28-14.75,206.09-31.86,216.94-30.28z"/>
					<path class="st26" d="M216.74-29.83c0,0,3.63-1.11,3.38,2.15c-0.25,3.26-2.75,2.97-2.31,5.25c0.44,2.27,0.37,3.76,1.75,6.41
						c1.38,2.65-3.55,7.9-5.27,4.4C212.57-15.12,207.02-31.33,216.74-29.83z"/>
					<path class="st27" d="M216.53-29.38c0,0,3.2-1.04,2.98,2.03c-0.22,3.08-2.42,2.81-2.04,4.95c0.38,2.15,0.33,3.55,1.54,6.05
						c1.22,2.51-3.13,7.46-4.65,4.15C212.85-15.5,207.96-30.8,216.53-29.38z"/>
					<path class="st28" d="M216.32-28.94c0,0,2.78-0.98,2.59,1.91c-0.19,2.89-2.1,2.64-1.77,4.66c0.33,2.02,0.28,3.34,1.34,5.7
						c1.06,2.36-2.71,7.02-4.03,3.91C213.14-15.87,208.89-30.26,216.32-28.94z"/>
					<path class="st15" d="M216.12-28.49c0,0,2.35-0.92,2.19,1.79c-0.16,2.71-1.78,2.47-1.5,4.37c0.28,1.89,0.24,3.13,1.13,5.33
						c0.89,2.21-2.3,6.58-3.41,3.66C213.42-16.25,209.83-29.73,216.12-28.49z"/>
				</g>
			</g>
		</g>
		<g>
			<g>
				<path class="st1" d="M234.46-97.58c0,0-10.83-1.48-7.38-7.88c3.44-6.4,9.35-2.95,13.28-17.22c3.94-14.27,8.37-15.75,15.75-8.86
					c7.38,6.89,25.59,1.97,19.19,15.25c-6.4,13.29-6.89,11.81-15.75,13.78C250.7-100.54,239.38-104.48,234.46-97.58z"/>
			</g>
			<g>
				<g>
					<path class="st29" d="M233.17-98.02c0,0-10.83-1.48-7.38-7.87c3.44-6.4,9.35-2.95,13.28-17.22
						c3.94-14.27,8.37-15.75,15.75-8.86c7.38,6.89,25.59,1.97,19.19,15.25c-6.4,13.29-6.89,11.81-15.75,13.78
						C249.4-100.97,238.09-104.91,233.17-98.02z"/>
					<path class="st30" d="M234.12-99.11c0,0-10.21-1.4-6.96-7.43c3.25-6.04,8.82-2.79,12.53-16.26
						c3.71-13.47,7.89-14.86,14.85-8.36c6.96,6.5,24.13,1.86,18.09,14.4c-6.03,12.54-6.5,11.15-14.85,13.01
						C249.43-101.9,238.76-105.62,234.12-99.11z"/>
					<path class="st31" d="M235.08-100.21c0,0-9.59-1.31-6.54-6.99c3.05-5.68,8.28-2.62,11.77-15.29
						c3.49-12.67,7.41-13.98,13.95-7.86c6.54,6.12,22.67,1.75,17,13.54c-5.67,11.8-6.1,10.49-13.95,12.23
						C249.46-102.83,239.44-106.33,235.08-100.21z"/>
					<path class="st32" d="M236.03-101.31c0,0-8.97-1.23-6.12-6.55c2.85-5.32,7.75-2.46,11.01-14.32
						c3.26-11.87,6.93-13.1,13.05-7.37c6.12,5.73,21.21,1.64,15.9,12.69c-5.3,11.05-5.71,9.82-13.05,11.46
						C249.49-103.76,240.11-107.04,236.03-101.31z"/>
					<path class="st33" d="M236.99-102.4c0,0-8.35-1.15-5.7-6.11c2.66-4.96,7.21-2.29,10.25-13.36c3.04-11.07,6.46-12.21,12.15-6.87
						c5.7,5.35,19.75,1.53,14.81,11.83c-4.94,10.31-5.32,9.16-12.15,10.69C249.52-104.69,240.79-107.75,236.99-102.4z"/>
					<path class="st34" d="M237.94-103.5c0,0-7.74-1.06-5.28-5.67c2.46-4.6,6.68-2.13,9.49-12.39c2.81-10.27,5.98-11.33,11.25-6.37
						c5.27,4.96,18.29,1.42,13.71,10.97c-4.57,9.56-4.92,8.5-11.25,9.92C249.55-105.63,241.46-108.46,237.94-103.5z"/>
					<path class="st35" d="M238.9-104.6c0,0-7.12-0.98-4.85-5.22c2.26-4.25,6.15-1.96,8.74-11.43c2.59-9.47,5.5-10.45,10.36-5.88
						c4.85,4.57,16.83,1.31,12.62,10.12c-4.21,8.82-4.53,7.84-10.35,9.14C249.58-106.56,242.13-109.17,238.9-104.6z"/>
					<path class="st36" d="M239.85-105.69c0,0-6.5-0.9-4.43-4.78c2.07-3.89,5.61-1.79,7.98-10.46c2.37-8.67,5.02-9.56,9.46-5.38
						c4.43,4.19,15.36,1.2,11.52,9.26c-3.84,8.07-4.14,7.17-9.46,8.37C249.6-107.49,242.81-109.88,239.85-105.69z"/>
					<path class="st37" d="M240.81-106.79c0,0-5.88-0.81-4.01-4.34c1.87-3.53,5.08-1.63,7.22-9.5c2.14-7.87,4.55-8.68,8.56-4.88
						c4.01,3.8,13.9,1.09,10.43,8.41c-3.48,7.33-3.74,6.51-8.56,7.6C249.63-108.42,243.48-110.59,240.81-106.79z"/>
					<path class="st38" d="M241.76-107.89c0,0-5.27-0.73-3.59-3.9c1.67-3.17,4.55-1.46,6.46-8.53c1.92-7.07,4.07-7.8,7.66-4.39
						c3.59,3.41,12.44,0.98,9.33,7.55c-3.11,6.58-3.35,5.85-7.66,6.83C249.66-109.35,244.16-111.3,241.76-107.89z"/>
					<path class="st39" d="M242.72-108.98c0,0-4.65-0.65-3.17-3.46c1.48-2.81,4.01-1.29,5.7-7.56c1.69-6.27,3.59-6.92,6.76-3.89
						c3.17,3.03,10.98,0.87,8.24,6.7c-2.75,5.84-2.96,5.19-6.76,6.05C249.69-110.28,244.83-112.01,242.72-108.98z"/>
					<path class="st40" d="M243.67-110.08c0,0-4.03-0.56-2.75-3.02c1.28-2.45,3.48-1.13,4.94-6.6c1.47-5.47,3.11-6.03,5.86-3.39
						c2.75,2.64,9.52,0.76,7.14,5.84c-2.38,5.09-2.56,4.53-5.86,5.28C249.72-111.21,245.5-112.72,243.67-110.08z"/>
					<path class="st14" d="M244.63-111.18c0,0-3.41-0.48-2.33-2.57c1.09-2.09,2.95-0.97,4.19-5.63c1.24-4.67,2.64-5.15,4.96-2.9
						c2.33,2.25,8.06,0.64,6.05,4.99c-2.02,4.35-2.17,3.86-4.96,4.51C249.75-112.14,246.18-113.43,244.63-111.18z"/>
					<path class="st15" d="M245.58-112.27c0,0-2.79-0.4-1.91-2.13c0.89-1.73,2.41-0.8,3.43-4.67c1.02-3.87,2.16-4.27,4.06-2.4
						c1.9,1.87,6.6,0.54,4.95,4.13c-1.65,3.6-1.78,3.2-4.06,3.73C249.77-113.07,246.85-114.14,245.58-112.27z"/>
				</g>
				<path class="st1" d="M265.15-91.15c0,0-16.73-12.3-23.62-1.48c-6.89,10.83-2.46,9.84-8.86,24.11
					c-6.4,14.27,1.97,24.11,10.83,20.17c8.86-3.94-0.98-16.24,7.87-20.67c8.86-4.43,3.94,6.4,13.29,2.95
					C274-69.5,275.48-83.77,265.15-91.15z"/>
				<path class="st1" d="M257.39-35.42c0,0,6.2,4.43,1.33,7.97c-4.87,3.54,4.43,11.51-3.54,11.07c-7.97-0.44-14.62,3.54-16.39-3.98
					c-1.77-7.53-0.44-18.16,1.77-20.37C242.77-42.95,250.3-47.82,257.39-35.42z"/>
				<g>
					<path class="st16" d="M263.85-91.58c0,0-16.73-12.3-23.62-1.48c-6.89,10.82-2.46,9.84-8.86,24.11
						c-6.4,14.27,1.97,24.11,10.83,20.17c8.86-3.94-0.98-16.24,7.87-20.67c8.86-4.43,3.94,6.4,13.29,2.95
						C272.71-69.93,274.18-84.2,263.85-91.58z"/>
					<path class="st17" d="M263.29-90.92c0,0-16.06-11.63-22.67-1.39c-6.61,10.23-2.36,9.3-8.5,22.79
						c-6.14,13.49,1.89,22.79,10.39,19.07c8.5-3.72-0.94-15.35,7.56-19.53c8.5-4.18,3.78,6.04,12.75,2.79
						C271.79-70.45,273.21-83.94,263.29-90.92z"/>
					<path class="st18" d="M262.73-90.25c0,0-15.38-10.95-21.72-1.31c-6.33,9.63-2.26,8.76-8.14,21.46
						c-5.88,12.7,1.81,21.46,9.95,17.96c8.14-3.51-0.91-14.46,7.24-18.4c8.14-3.94,3.62,5.69,12.21,2.63
						C270.87-70.98,272.23-83.68,262.73-90.25z"/>
					<path class="st19" d="M262.16-89.58c0,0-14.71-10.27-20.76-1.23c-6.05,9.04-2.16,8.22-7.79,20.14
						c-5.62,11.92,1.73,20.14,9.52,16.85c7.79-3.29-0.87-13.56,6.92-17.26c7.79-3.7,3.46,5.34,11.68,2.46
						C269.95-71.5,271.25-83.42,262.16-89.58z"/>
					<path class="st20" d="M261.6-88.92c0,0-14.03-9.6-19.81-1.15c-5.78,8.45-2.06,7.68-7.43,18.81
						c-5.37,11.13,1.65,18.81,9.08,15.74c7.43-3.07-0.83-12.67,6.6-16.13c7.43-3.46,3.3,4.99,11.14,2.3
						C269.03-72.02,270.27-83.16,261.6-88.92z"/>
					<path class="st41" d="M261.04-88.25c0,0-13.36-8.92-18.86-1.07c-5.5,7.85-1.96,7.14-7.07,17.49
						c-5.11,10.35,1.57,17.49,8.64,14.63c7.07-2.86-0.79-11.78,6.29-14.99c7.07-3.21,3.14,4.64,10.61,2.14
						C268.11-72.55,269.29-82.9,261.04-88.25z"/>
					<path class="st22" d="M260.48-87.58c0,0-12.68-8.25-17.91-0.99c-5.22,7.26-1.87,6.6-6.71,16.16
						c-4.85,9.56,1.49,16.16,8.21,13.52c6.71-2.64-0.75-10.88,5.97-13.85c6.72-2.97,2.99,4.29,10.07,1.98
						C267.19-73.07,268.31-82.64,260.48-87.58z"/>
					<path class="st23" d="M259.91-86.92c0,0-12.01-7.57-16.96-0.91c-4.94,6.66-1.77,6.06-6.36,14.84
						c-4.59,8.78,1.41,14.84,7.77,12.41c6.36-2.42-0.71-9.99,5.65-12.72c6.36-2.73,2.83,3.94,9.54,1.82
						C266.27-73.59,267.33-82.37,259.91-86.92z"/>
					<path class="st24" d="M259.35-86.25c0,0-11.34-6.89-16-0.83c-4.67,6.07-1.67,5.52-6,13.52c-4.33,8,1.33,13.51,7.33,11.31
						c6-2.21-0.67-9.1,5.33-11.58c6-2.48,2.67,3.58,9,1.65C265.35-74.12,266.35-82.11,259.35-86.25z"/>
					<path class="st25" d="M258.79-85.58c0,0-10.66-6.22-15.05-0.75c-4.39,5.47-1.57,4.97-5.64,12.19
						c-4.08,7.21,1.25,12.19,6.9,10.2c5.64-1.99-0.63-8.21,5.02-10.45c5.64-2.24,2.51,3.23,8.47,1.49
						C264.43-74.64,265.37-81.85,258.79-85.58z"/>
					<path class="st26" d="M258.23-84.92c0,0-9.99-5.54-14.1-0.67c-4.11,4.88-1.47,4.44-5.29,10.87c-3.82,6.43,1.17,10.86,6.46,9.09
						c5.29-1.77-0.59-7.32,4.7-9.31c5.29-2,2.35,2.88,7.93,1.33C263.51-75.16,264.39-81.59,258.23-84.92z"/>
					<path class="st27" d="M257.66-84.25c0,0-9.31-4.87-13.14-0.58c-3.83,4.29-1.37,3.89-4.93,9.54c-3.56,5.64,1.09,9.54,6.02,7.98
						c4.93-1.56-0.55-6.43,4.38-8.18c4.93-1.75,2.19,2.53,7.39,1.17C262.59-75.68,263.41-81.33,257.66-84.25z"/>
					<path class="st28" d="M257.1-83.58c0,0-8.64-4.19-12.19-0.5c-3.56,3.69-1.27,3.35-4.57,8.22c-3.3,4.86,1.02,8.21,5.59,6.87
						c4.57-1.34-0.51-5.53,4.06-7.04c4.57-1.51,2.03,2.18,6.86,1.01C261.67-76.21,262.43-81.07,257.1-83.58z"/>
					<path class="st15" d="M256.54-82.92c0,0-7.96-3.51-11.24-0.42c-3.28,3.09-1.17,2.81-4.21,6.89c-3.04,4.08,0.94,6.89,5.15,5.76
						c4.21-1.13-0.47-4.64,3.75-5.9c4.22-1.27,1.87,1.83,6.32,0.84C260.75-76.73,261.46-80.81,256.54-82.92z"/>
				</g>
				<g>
					<path class="st30" d="M256.09-35.85c0,0,6.2,4.43,1.33,7.97c-4.87,3.54,4.43,11.51-3.54,11.07
						c-7.97-0.44-14.62,3.54-16.39-3.99c-1.77-7.53-0.44-18.16,1.77-20.37C241.48-43.38,249-48.25,256.09-35.85z"/>
					<path class="st42" d="M255.65-35.53c0,0,5.89,4.21,1.26,7.57c-4.62,3.37,4.2,10.94-3.36,10.52
						c-7.57-0.42-13.88,3.37-15.56-3.79c-1.68-7.15-0.42-17.25,1.68-19.36C241.78-42.68,248.92-47.31,255.65-35.53z"/>
					<path class="st43" d="M255.21-35.21c0,0,5.57,3.99,1.19,7.18c-4.38,3.19,3.98,10.37-3.18,9.97c-7.16-0.4-13.13,3.19-14.73-3.59
						c-1.59-6.78-0.4-16.35,1.59-18.34C242.08-41.98,248.84-46.37,255.21-35.21z"/>
					<path class="st44" d="M254.77-34.88c0,0,5.26,3.77,1.13,6.78c-4.13,3.01,3.75,9.79-3,9.41c-6.76-0.38-12.39,3.01-13.89-3.39
						c-1.5-6.4-0.38-15.44,1.5-17.32C242.38-41.29,248.76-45.43,254.77-34.88z"/>
					<path class="st45" d="M254.33-34.56c0,0,4.94,3.54,1.06,6.38c-3.88,2.84,3.53,9.21-2.82,8.86c-6.35-0.35-11.65,2.84-13.06-3.19
						c-1.41-6.02-0.35-14.54,1.41-16.31C242.68-40.59,248.68-44.49,254.33-34.56z"/>
					<path class="st46" d="M253.89-34.24c0,0,4.63,3.32,0.99,5.98c-3.63,2.66,3.3,8.64-2.64,8.31c-5.95-0.33-10.91,2.66-12.23-2.99
						c-1.32-5.65-0.33-13.63,1.32-15.29C242.98-39.89,248.6-43.55,253.89-34.24z"/>
					<path class="st47" d="M253.45-33.92c0,0,4.31,3.11,0.92,5.59c-3.39,2.48,3.08,8.07-2.46,7.76c-5.54-0.31-10.17,2.48-11.4-2.79
						c-1.23-5.27-0.31-12.72,1.23-14.28C243.28-39.19,248.52-42.61,253.45-33.92z"/>
					<path class="st48" d="M253.01-33.6c0,0,4,2.88,0.86,5.19c-3.14,2.31,2.85,7.49-2.28,7.21c-5.14-0.29-9.43,2.31-10.57-2.59
						c-1.14-4.9-0.29-11.82,1.14-13.26C243.59-38.5,248.44-41.67,253.01-33.6z"/>
					<path class="st49" d="M252.57-33.27c0,0,3.68,2.66,0.79,4.79c-2.89,2.13,2.63,6.92-2.1,6.65c-4.74-0.27-8.69,2.13-9.74-2.4
						c-1.05-4.52-0.26-10.92,1.05-12.25C243.89-37.8,248.36-40.73,252.57-33.27z"/>
					<path class="st50" d="M252.13-32.95c0,0,3.37,2.44,0.72,4.39c-2.65,1.95,2.41,6.35-1.92,6.1c-4.33-0.24-7.94,1.96-8.91-2.2
						c-0.96-4.15-0.24-10.01,0.96-11.23C244.19-37.1,248.28-39.79,252.13-32.95z"/>
					<path class="st51" d="M251.69-32.63c0,0,3.05,2.22,0.65,4c-2.4,1.78,2.18,5.77-1.75,5.55c-3.93-0.22-7.2,1.78-8.07-2
						c-0.87-3.77-0.22-9.11,0.87-10.21C244.49-36.41,248.2-38.85,251.69-32.63z"/>
					<path class="st52" d="M251.25-32.31c0,0,2.74,2,0.59,3.6c-2.15,1.6,1.96,5.2-1.57,5c-3.52-0.2-6.46,1.6-7.24-1.8
						c-0.78-3.4-0.19-8.2,0.78-9.2C244.79-35.71,248.12-37.91,251.25-32.31z"/>
					<path class="st28" d="M250.81-31.99c0,0,2.43,1.78,0.52,3.2c-1.9,1.42,1.73,4.62-1.38,4.45c-3.12-0.18-5.72,1.42-6.41-1.6
						c-0.69-3.02-0.17-7.29,0.69-8.18C245.09-35.01,248.04-36.97,250.81-31.99z"/>
					<path class="st15" d="M250.37-31.67c0,0,2.11,1.56,0.45,2.8c-1.66,1.25,1.51,4.05-1.21,3.89c-2.71-0.16-4.98,1.25-5.58-1.4
						c-0.6-2.65-0.15-6.39,0.6-7.17C245.39-34.32,247.96-36.03,250.37-31.67z"/>
				</g>
			</g>
		</g>
		<g>
			<rect x="124.42" y="-138.11" class="st53" width="125.64" height="124.41"/>
			<g>
				<path class="st1" d="M110.05-97.58c0,0-10.83-1.48-7.38-7.88c3.44-6.4,9.35-2.95,13.28-17.22c3.94-14.27,8.37-15.75,15.75-8.86
					c7.38,6.89,25.59,1.97,19.19,15.25c-6.4,13.29-6.89,11.81-15.75,13.78C126.28-100.54,114.97-104.48,110.05-97.58z"/>
				<path class="st1" d="M226.23-47.35c5.85,4.58-6.56,13.66-14.82,7.79c-8.26-5.88-3.55-10.11-5.65-16.09
					c-2.1-5.98-24.06-11.37-22.48-18.64c1.58-7.26,31.24-24.3,38.59-7.77C229.21-65.55,209.84-60.19,226.23-47.35z"/>
				<path class="st1" d="M172.59-70.71c4.31,3.5,19.04,10.63,17.72,17.71c-1.33,7.09,0.89,16.38-3.99,18.16
					c-4.87,1.77-9.74,3.54-13.73,0c-3.98-3.54-7.08-0.89-10.18-2.21c-2.96-1.27-6.64-11.96-5.31-15.5c1.33-3.54,4.87-12.4,1.33-15.5
					C154.88-71.16,165.51-76.47,172.59-70.71z"/>
				<path class="st1" d="M204.91-124.73c0,0-6.62,6.21-8.69,9.52c-2.07,3.31,0.82,5.38,1.24,9.52c0.42,4.14,0.83,8.28,0.83,8.28
					s2.89,2.48,7.87,4.55c3.46,1.44,2.07-2.9,11.59-3.72C227.27-97.41,217.33-130.53,204.91-124.73z"/>
				<path class="st1" d="M188.03-120.36c0,0,4.82,3.75-2.14,12.33c-6.97,8.57,3.19,7.31,1.58,15.35
					c-1.61,8.04-13.38,14.12-19.8,14.12c-6.43,0-27.33-9.64-13.4-23.58C168.2-116.07,169.81-121.43,188.03-120.36z"/>
				<path class="st1" d="M137.71-61.27c-5.07,6.26-9.48,11.99-4.46,17.05c5.02,5.05,4.46,12.62,8.92,7.57
					c4.46-5.05,11.71-11.99,10.59-19.56C151.65-63.79,143.84-68.84,137.71-61.27z"/>
				<path class="st1" d="M150.72-153.56c4.85-1,9.84-3.28,16.95,7.65c7.11,10.94,19.97-1.85,25.44-7.31
					c5.47-5.47,7.11,20.78,7.65,24.6c0.55,3.83-23.69,7.04-33.1,0.21c-6.01-4.38-15.86-9.84-17.5-8.2
					C148.54-134.97,129.4-149.18,150.72-153.56z"/>
				<path class="st1" d="M220.1-158.29c0,0,7.9-1.73,7.36,3.36c-0.54,5.08-5.98,4.64-5.04,8.18c0.95,3.55,0.8,5.87,3.81,10
					c3.01,4.14-7.73,12.33-11.47,6.86C211.03-135.34,198.96-160.63,220.1-158.29z"/>
			</g>
			<g>
				<g>
					<path class="st29" d="M108.75-98.02c0,0-10.83-1.48-7.38-7.87c3.44-6.4,9.35-2.95,13.28-17.22
						c3.94-14.27,8.37-15.75,15.75-8.86c7.38,6.89,25.59,1.97,19.19,15.25c-6.4,13.29-6.89,11.81-15.75,13.78
						C124.99-100.97,113.67-104.91,108.75-98.02z"/>
					<path class="st30" d="M109.71-99.11c0,0-10.21-1.4-6.96-7.43c3.25-6.04,8.82-2.79,12.53-16.26
						c3.71-13.47,7.89-14.86,14.85-8.36c6.96,6.5,24.13,1.86,18.09,14.4c-6.03,12.54-6.5,11.15-14.85,13.01
						C125.02-101.9,114.35-105.62,109.71-99.11z"/>
					<path class="st31" d="M110.66-100.21c0,0-9.59-1.31-6.54-6.99c3.05-5.68,8.28-2.62,11.77-15.29
						c3.49-12.67,7.41-13.98,13.95-7.86c6.54,6.12,22.67,1.75,17,13.54c-5.67,11.8-6.1,10.49-13.95,12.23
						C125.04-102.83,115.02-106.33,110.66-100.21z"/>
					<path class="st32" d="M111.62-101.31c0,0-8.97-1.23-6.12-6.55c2.85-5.32,7.75-2.46,11.01-14.32
						c3.26-11.87,6.93-13.1,13.05-7.37c6.12,5.73,21.21,1.64,15.9,12.69c-5.3,11.05-5.71,9.82-13.05,11.46
						C125.07-103.76,115.69-107.04,111.62-101.31z"/>
					<path class="st33" d="M112.57-102.4c0,0-8.35-1.15-5.7-6.11c2.66-4.96,7.21-2.29,10.25-13.36c3.04-11.07,6.46-12.21,12.15-6.87
						c5.7,5.35,19.75,1.53,14.81,11.83c-4.94,10.31-5.32,9.16-12.15,10.69C125.1-104.69,116.37-107.75,112.57-102.4z"/>
					<path class="st34" d="M113.53-103.5c0,0-7.74-1.06-5.28-5.67c2.46-4.6,6.68-2.13,9.49-12.39c2.81-10.27,5.98-11.33,11.25-6.37
						c5.27,4.96,18.29,1.42,13.71,10.97c-4.57,9.56-4.92,8.5-11.25,9.92C125.13-105.63,117.04-108.46,113.53-103.5z"/>
					<path class="st35" d="M114.48-104.6c0,0-7.12-0.98-4.85-5.22c2.26-4.25,6.15-1.96,8.74-11.43c2.59-9.47,5.5-10.45,10.36-5.88
						c4.85,4.57,16.83,1.31,12.62,10.12c-4.21,8.82-4.53,7.84-10.35,9.14C125.16-106.56,117.72-109.17,114.48-104.6z"/>
					<path class="st36" d="M115.44-105.69c0,0-6.5-0.9-4.43-4.78c2.07-3.89,5.61-1.79,7.98-10.46c2.37-8.67,5.02-9.56,9.46-5.38
						c4.43,4.19,15.36,1.2,11.52,9.26c-3.84,8.07-4.14,7.17-9.46,8.37C125.19-107.49,118.39-109.88,115.44-105.69z"/>
					<path class="st37" d="M116.39-106.79c0,0-5.88-0.81-4.01-4.34c1.87-3.53,5.08-1.63,7.22-9.5c2.14-7.87,4.55-8.68,8.56-4.88
						c4.01,3.8,13.9,1.09,10.43,8.41c-3.48,7.33-3.74,6.51-8.56,7.6C125.22-108.42,119.07-110.59,116.39-106.79z"/>
					<path class="st38" d="M117.35-107.89c0,0-5.27-0.73-3.59-3.9c1.67-3.17,4.55-1.46,6.46-8.53c1.92-7.07,4.07-7.8,7.66-4.39
						c3.59,3.41,12.44,0.98,9.33,7.55c-3.11,6.58-3.35,5.85-7.66,6.83C125.24-109.35,119.74-111.3,117.35-107.89z"/>
					<path class="st39" d="M118.3-108.98c0,0-4.65-0.65-3.17-3.46c1.48-2.81,4.01-1.29,5.7-7.56c1.69-6.27,3.59-6.92,6.76-3.89
						c3.17,3.03,10.98,0.87,8.24,6.7c-2.75,5.84-2.96,5.19-6.76,6.05C125.27-110.28,120.41-112.01,118.3-108.98z"/>
					<path class="st40" d="M119.26-110.08c0,0-4.03-0.56-2.75-3.02c1.28-2.45,3.48-1.13,4.94-6.6c1.47-5.47,3.11-6.03,5.86-3.39
						c2.75,2.64,9.52,0.76,7.14,5.84c-2.38,5.09-2.56,4.53-5.86,5.28S121.09-112.72,119.26-110.08z"/>
					<path class="st14" d="M120.21-111.18c0,0-3.41-0.48-2.33-2.57c1.09-2.09,2.95-0.97,4.19-5.63c1.24-4.67,2.64-5.15,4.96-2.9
						c2.33,2.25,8.06,0.64,6.05,4.99c-2.02,4.35-2.17,3.86-4.96,4.51C125.33-112.14,121.76-113.43,120.21-111.18z"/>
					<path class="st15" d="M121.17-112.27c0,0-2.79-0.4-1.91-2.13c0.89-1.73,2.41-0.8,3.43-4.67c1.02-3.87,2.16-4.27,4.06-2.4
						c1.9,1.87,6.6,0.54,4.95,4.13c-1.65,3.6-1.78,3.2-4.06,3.73C125.36-113.07,122.44-114.14,121.17-112.27z"/>
				</g>
				<g>
					<path class="st30" d="M224.93-47.78c5.85,4.58-6.56,13.66-14.82,7.78c-8.26-5.88-3.55-10.11-5.65-16.09
						c-2.1-5.98-24.07-11.37-22.48-18.64c1.58-7.26,31.24-24.3,38.59-7.77C227.91-65.98,208.55-60.62,224.93-47.78z"/>
					<path class="st42" d="M223.92-48.35c5.51,4.46-6.18,13.28-13.96,7.57c-7.78-5.71-3.35-9.83-5.32-15.63
						c-1.98-5.81-22.66-11.05-21.17-18.12c1.49-7.06,29.42-23.62,36.34-7.55C226.74-66.04,208.5-60.83,223.92-48.35z"/>
					<path class="st43" d="M222.92-48.92c5.17,4.33-5.8,12.9-13.09,7.35c-7.3-5.55-3.14-9.54-4.99-15.19
						c-1.86-5.64-21.26-10.73-19.86-17.6c1.39-6.86,27.6-22.94,34.09-7.34C225.55-66.09,208.44-61.04,222.92-48.92z"/>
					<path class="st44" d="M221.91-49.49c4.83,4.2-5.41,12.51-12.23,7.13c-6.81-5.38-2.93-9.26-4.66-14.74
						c-1.73-5.47-19.85-10.42-18.55-17.08c1.3-6.65,25.77-22.26,31.84-7.12C224.37-66.15,208.39-61.25,221.91-49.49z"/>
					<path class="st45" d="M220.91-50.05c4.49,4.07-5.03,12.13-11.36,6.91c-6.33-5.22-2.72-8.98-4.33-14.29
						c-1.61-5.31-18.45-10.1-17.24-16.56c1.21-6.45,23.95-21.58,29.59-6.9C223.19-66.21,208.34-61.45,220.91-50.05z"/>
					<path class="st46" d="M219.9-50.62c4.15,3.94-4.65,11.75-10.5,6.7c-5.85-5.05-2.52-8.7-4-13.84
						c-1.49-5.14-17.05-9.78-15.93-16.03c1.12-6.25,22.13-20.9,27.34-6.69C222.01-66.27,208.29-61.66,219.9-50.62z"/>
					<path class="st47" d="M218.89-51.19c3.8,3.81-4.27,11.37-9.63,6.48c-5.37-4.89-2.31-8.41-3.67-13.39
						c-1.37-4.97-15.65-9.46-14.62-15.51c1.03-6.04,20.31-20.22,25.09-6.47C220.83-66.33,208.24-61.87,218.89-51.19z"/>
					<path class="st48" d="M217.89-51.75c3.46,3.69-3.88,10.99-8.77,6.26c-4.89-4.73-2.1-8.13-3.34-12.94
						c-1.24-4.81-14.24-9.14-13.31-14.99c0.93-5.84,18.49-19.54,22.84-6.25C219.65-66.39,208.19-62.08,217.89-51.75z"/>
					<path class="st49" d="M216.88-52.32c3.12,3.56-3.5,10.6-7.91,6.04c-4.41-4.56-1.89-7.85-3.01-12.49
						c-1.12-4.64-12.84-8.83-12-14.47c0.84-5.64,16.67-18.86,20.59-6.03C218.47-66.44,208.14-62.29,216.88-52.32z"/>
					<path class="st50" d="M215.87-52.89c2.78,3.43-3.12,10.22-7.04,5.82c-3.92-4.4-1.69-7.57-2.68-12.04
						c-1-4.47-11.44-8.51-10.69-13.95c0.75-5.43,14.85-18.18,18.34-5.81C217.29-66.5,208.09-62.5,215.87-52.89z"/>
					<path class="st51" d="M214.86-53.46c2.44,3.3-2.73,9.84-6.18,5.61c-3.44-4.23-1.48-7.28-2.35-11.59
						c-0.88-4.31-10.03-8.19-9.38-13.43c0.66-5.23,13.02-17.5,16.09-5.6C216.11-66.56,208.03-62.7,214.86-53.46z"/>
					<path class="st52" d="M213.86-54.02c2.1,3.17-2.35,9.46-5.31,5.39c-2.96-4.07-1.27-7-2.03-11.14
						c-0.75-4.14-8.63-7.87-8.06-12.91c0.56-5.03,11.2-16.82,13.84-5.38C214.93-66.62,207.98-62.91,213.86-54.02z"/>
					<path class="st28" d="M212.85-54.59c1.76,3.05-1.97,9.07-4.45,5.17c-2.48-3.91-1.06-6.72-1.7-10.69
						c-0.63-3.97-7.23-7.56-6.75-12.38c0.47-4.83,9.38-16.14,11.59-5.16C213.75-66.68,207.93-63.12,212.85-54.59z"/>
					<path class="st15" d="M211.84-55.16c1.42,2.92-1.59,8.69-3.59,4.96c-2-3.74-0.86-6.44-1.37-10.24
						c-0.51-3.8-5.82-7.24-5.44-11.86c0.38-4.62,7.56-15.46,9.34-4.95C212.57-66.74,207.88-63.33,211.84-55.16z"/>
				</g>
				<g>
					<path class="st30" d="M171.3-71.14c4.31,3.5,19.04,10.63,17.71,17.71c-1.33,7.09,0.89,16.39-3.99,18.16
						c-4.87,1.77-9.74,3.54-13.73,0c-3.99-3.54-7.09-0.89-10.19-2.21c-2.96-1.27-6.64-11.96-5.31-15.5
						c1.33-3.54,4.87-12.4,1.33-15.5C153.59-71.59,164.21-76.9,171.3-71.14z"/>
					<path class="st42" d="M171.36-70.27c4.07,3.32,17.97,10.1,16.72,16.83c-1.25,6.73,0.84,15.57-3.76,17.25
						c-4.6,1.68-9.2,3.37-12.96,0c-3.76-3.37-6.69-0.84-9.61-2.11c-2.8-1.2-6.27-11.36-5.01-14.73c1.25-3.37,4.6-11.78,1.25-14.72
						C154.65-70.69,164.68-75.74,171.36-70.27z"/>
					<path class="st43" d="M171.43-69.4c3.83,3.15,16.9,9.56,15.72,15.94c-1.18,6.38,0.79,14.75-3.54,16.35
						c-4.32,1.6-8.65,3.19-12.18,0c-3.54-3.19-6.29-0.8-9.04-1.99c-2.63-1.14-5.9-10.76-4.72-13.95c1.18-3.19,4.32-11.16,1.18-13.95
						C155.71-69.8,165.14-74.58,171.43-69.4z"/>
					<path class="st44" d="M171.5-68.53c3.58,2.97,15.83,9.04,14.73,15.06c-1.1,6.03,0.74,13.93-3.31,15.44
						c-4.05,1.51-8.1,3.01-11.41,0c-3.31-3.01-5.89-0.75-8.47-1.88c-2.46-1.08-5.52-10.17-4.42-13.18c1.1-3.01,4.05-10.54,1.1-13.18
						C156.77-68.91,165.6-73.43,171.5-68.53z"/>
					<path class="st45" d="M171.56-67.66c3.34,2.8,14.76,8.5,13.73,14.18c-1.03,5.67,0.69,13.11-3.09,14.53
						c-3.78,1.42-7.55,2.84-10.64,0c-3.09-2.84-5.49-0.71-7.89-1.77c-2.3-1.02-5.15-9.57-4.12-12.41c1.03-2.83,3.78-9.92,1.03-12.4
						C157.83-68.02,166.07-72.27,171.56-67.66z"/>
					<path class="st46" d="M171.63-66.79c3.1,2.63,13.69,7.97,12.74,13.29c-0.96,5.32,0.64,12.3-2.87,13.63c-3.5,1.33-7,2.66-9.87,0
						c-2.86-2.66-5.09-0.67-7.32-1.66c-2.13-0.95-4.77-8.97-3.82-11.63c0.95-2.66,3.5-9.3,0.95-11.63
						C158.89-67.12,166.53-71.11,171.63-66.79z"/>
					<path class="st47" d="M171.69-65.92c2.86,2.45,12.62,7.44,11.74,12.41c-0.88,4.96,0.59,11.48-2.64,12.72
						c-3.23,1.24-6.46,2.48-9.1,0c-2.64-2.48-4.7-0.62-6.75-1.55c-1.96-0.89-4.4-8.38-3.52-10.86c0.88-2.48,3.23-8.69,0.88-10.86
						C159.95-66.23,167-69.95,171.69-65.92z"/>
					<path class="st48" d="M171.76-65.05c2.61,2.28,11.55,6.91,10.74,11.52c-0.81,4.61,0.54,10.66-2.42,11.81
						c-2.95,1.15-5.91,2.3-8.33,0c-2.42-2.3-4.3-0.58-6.18-1.44c-1.8-0.82-4.03-7.78-3.22-10.08c0.8-2.3,2.96-8.07,0.8-10.08
						C161.02-65.33,167.46-68.79,171.76-65.05z"/>
					<path class="st49" d="M171.82-64.17c2.37,2.1,10.48,6.38,9.75,10.64c-0.73,4.26,0.49,9.84-2.19,10.91
						c-2.68,1.06-5.36,2.13-7.55,0c-2.19-2.13-3.9-0.53-5.6-1.33c-1.63-0.76-3.65-7.18-2.92-9.31c0.73-2.13,2.68-7.45,0.73-9.31
						C162.08-64.44,167.92-67.63,171.82-64.17z"/>
					<path class="st50" d="M171.89-63.3c2.13,1.93,9.41,5.85,8.75,9.75c-0.66,3.9,0.44,9.03-1.97,10c-2.41,0.98-4.81,1.95-6.78,0
						c-1.97-1.95-3.5-0.49-5.03-1.22c-1.46-0.7-3.28-6.59-2.62-8.54c0.66-1.95,2.41-6.83,0.66-8.54
						C163.14-63.55,168.39-66.48,171.89-63.3z"/>
					<path class="st51" d="M171.95-62.43c1.89,1.75,8.33,5.32,7.75,8.87c-0.58,3.55,0.39,8.21-1.75,9.09
						c-2.13,0.89-4.26,1.78-6.01,0c-1.74-1.77-3.1-0.44-4.46-1.11c-1.3-0.63-2.91-5.99-2.33-7.76c0.58-1.77,2.13-6.21,0.58-7.76
						C164.2-62.66,168.85-65.32,171.95-62.43z"/>
					<path class="st52" d="M172.02-61.56c1.65,1.58,7.26,4.79,6.76,7.99c-0.51,3.2,0.34,7.39-1.52,8.19c-1.86,0.8-3.72,1.6-5.24,0
						c-1.52-1.6-2.7-0.4-3.88-1c-1.13-0.57-2.53-5.39-2.03-6.99c0.51-1.6,1.86-5.59,0.51-6.99
						C165.26-61.76,169.32-64.16,172.02-61.56z"/>
					<path class="st28" d="M172.08-60.69c1.4,1.4,6.19,4.26,5.76,7.1c-0.43,2.84,0.29,6.57-1.3,7.28c-1.58,0.71-3.17,1.42-4.47,0
						c-1.3-1.42-2.3-0.36-3.31-0.89c-0.96-0.51-2.16-4.79-1.73-6.21c0.43-1.42,1.58-4.97,0.43-6.21
						C166.32-60.87,169.78-63,172.08-60.69z"/>
					<path class="st15" d="M172.15-59.82c1.16,1.23,5.12,3.73,4.77,6.22c-0.36,2.49,0.24,5.75-1.07,6.38
						c-1.31,0.62-2.62,1.24-3.69,0c-1.07-1.24-1.9-0.31-2.74-0.78c-0.8-0.45-1.79-4.2-1.43-5.44c0.36-1.24,1.31-4.35,0.36-5.44
						C167.38-59.98,170.24-61.84,172.15-59.82z"/>
				</g>
				<g>
					<path class="st2" d="M203.61-125.17c0,0-6.62,6.21-8.69,9.53c-2.07,3.31,0.82,5.38,1.24,9.52c0.42,4.14,0.83,8.28,0.83,8.28
						s2.89,2.48,7.87,4.56c3.46,1.44,2.07-2.9,11.59-3.73C225.97-97.84,216.03-130.96,203.61-125.17z"/>
					<path class="st3" d="M203.82-124.38c0,0-6.27,5.88-8.23,9.02c-1.96,3.13,0.78,5.1,1.17,9.02c0.4,3.92,0.79,7.84,0.79,7.84
						s2.74,2.35,7.45,4.31c3.28,1.37,1.96-2.74,10.98-3.53C225-98.5,215.59-129.87,203.82-124.38z"/>
					<path class="st4" d="M204.04-123.6c0,0-5.92,5.55-7.77,8.52c-1.85,2.96,0.74,4.81,1.11,8.51c0.37,3.7,0.74,7.4,0.74,7.4
						s2.59,2.22,7.04,4.07c3.09,1.29,1.85-2.59,10.36-3.33C224.03-99.17,215.15-128.78,204.04-123.6z"/>
					<path class="st5" d="M204.25-122.82c0,0-5.57,5.22-7.31,8.01c-1.74,2.78,0.69,4.53,1.04,8.01c0.35,3.48,0.7,6.97,0.7,6.97
						s2.43,2.09,6.62,3.83c2.91,1.21,1.74-2.44,9.75-3.13C223.06-99.83,214.7-127.69,204.25-122.82z"/>
					<path class="st6" d="M204.47-122.04c0,0-5.22,4.9-6.85,7.51c-1.63,2.61,0.65,4.24,0.98,7.51c0.33,3.26,0.65,6.53,0.65,6.53
						s2.28,1.96,6.2,3.59c2.73,1.13,1.63-2.29,9.14-2.94C222.09-100.5,214.26-126.6,204.47-122.04z"/>
					<path class="st7" d="M204.68-121.25c0,0-4.87,4.57-6.39,7c-1.52,2.43,0.61,3.96,0.91,7c0.31,3.04,0.61,6.09,0.61,6.09
						s2.13,1.83,5.79,3.35c2.54,1.06,1.52-2.13,8.52-2.74C221.13-101.16,213.82-125.52,204.68-121.25z"/>
					<path class="st8" d="M204.9-120.47c0,0-4.52,4.24-5.93,6.5c-1.41,2.26,0.56,3.67,0.85,6.5c0.28,2.83,0.57,5.65,0.57,5.65
						s1.97,1.69,5.37,3.11c2.36,0.98,1.41-1.98,7.91-2.54C220.16-101.83,213.38-124.43,204.9-120.47z"/>
					<path class="st9" d="M205.11-119.69c0,0-4.17,3.91-5.47,5.99c-1.3,2.08,0.52,3.39,0.78,5.99c0.26,2.61,0.52,5.21,0.52,5.21
						s1.82,1.56,4.95,2.87c2.18,0.91,1.3-1.82,7.29-2.35C219.19-102.49,212.93-123.34,205.11-119.69z"/>
					<path class="st10" d="M205.33-118.91c0,0-3.82,3.58-5.01,5.49c-1.2,1.91,0.47,3.1,0.71,5.49c0.24,2.39,0.48,4.78,0.48,4.78
						s1.67,1.43,4.53,2.63c2,0.83,1.19-1.67,6.68-2.15C218.22-103.16,212.49-122.25,205.33-118.91z"/>
					<path class="st11" d="M205.54-118.13c0,0-3.47,3.25-4.55,4.98c-1.09,1.73,0.43,2.82,0.65,4.99c0.22,2.17,0.43,4.33,0.43,4.33
						s1.52,1.3,4.12,2.38c1.81,0.75,1.08-1.52,6.07-1.95C217.25-103.82,212.05-121.16,205.54-118.13z"/>
					<path class="st12" d="M205.76-117.34c0,0-3.12,2.92-4.09,4.48c-0.98,1.56,0.39,2.53,0.58,4.48c0.2,1.95,0.39,3.9,0.39,3.9
						s1.36,1.17,3.7,2.14c1.63,0.68,0.97-1.36,5.45-1.75C216.28-104.49,211.6-120.07,205.76-117.34z"/>
					<path class="st13" d="M205.98-116.56c0,0-2.77,2.59-3.63,3.98c-0.87,1.38,0.34,2.25,0.52,3.98c0.17,1.73,0.35,3.46,0.35,3.46
						s1.21,1.04,3.28,1.9c1.45,0.6,0.87-1.21,4.84-1.56C215.31-105.15,211.16-118.98,205.98-116.56z"/>
					<path class="st14" d="M206.19-115.78c0,0-2.42,2.27-3.17,3.47c-0.76,1.21,0.3,1.96,0.45,3.47c0.15,1.51,0.3,3.02,0.3,3.02
						s1.06,0.9,2.87,1.66c1.26,0.53,0.76-1.06,4.23-1.36C214.34-105.82,210.72-117.89,206.19-115.78z"/>
					<path class="st15" d="M206.41-115c0,0-2.06,1.94-2.71,2.97c-0.65,1.03,0.26,1.68,0.39,2.97c0.13,1.29,0.26,2.58,0.26,2.58
						s0.9,0.77,2.45,1.42c1.08,0.45,0.64-0.9,3.61-1.16C213.37-106.48,210.28-116.8,206.41-115z"/>
				</g>
				<g>
					<path class="st16" d="M186.73-120.79c0,0,4.82,3.75-2.14,12.32c-6.97,8.58,3.19,7.31,1.59,15.35
						c-1.61,8.04-13.38,14.12-19.81,14.12c-6.43,0-27.33-9.64-13.4-23.58C166.91-116.5,168.52-121.86,186.73-120.79z"/>
					<path class="st17" d="M185.71-119.71c0,0,4.54,3.56-2.02,11.69c-6.56,8.14,3.01,6.94,1.49,14.57
						c-1.51,7.63-12.6,13.4-18.65,13.4c-6.06,0-25.73-9.15-12.62-22.37C167.04-115.64,168.55-120.73,185.71-119.71z"/>
					<path class="st18" d="M184.69-118.63c0,0,4.26,3.37-1.89,11.06c-6.16,7.7,2.82,6.56,1.4,13.78
						c-1.42,7.21-11.81,12.67-17.49,12.67c-5.68,0-24.14-8.65-11.83-21.16C167.18-114.78,168.59-119.59,184.69-118.63z"/>
					<path class="st54" d="M183.66-117.55c0,0,3.98,3.17-1.77,10.43c-5.75,7.26,2.63,6.19,1.31,12.99
						c-1.33,6.8-11.03,11.95-16.34,11.95c-5.31,0-22.54-8.16-11.05-19.95C167.31-113.92,168.63-118.46,183.66-117.55z"/>
					<path class="st20" d="M182.64-116.47c0,0,3.69,2.98-1.64,9.8c-5.34,6.81,2.45,5.81,1.21,12.2
						c-1.23,6.39-10.25,11.22-15.18,11.22c-4.93,0-20.94-7.66-10.27-18.74C167.44-113.06,168.67-117.33,182.64-116.47z"/>
					<path class="st21" d="M181.61-115.39c0,0,3.41,2.79-1.52,9.16c-4.93,6.38,2.26,5.44,1.12,11.42
						c-1.14,5.98-9.47,10.5-14.02,10.5c-4.55,0-19.35-7.17-9.49-17.53C167.57-112.2,168.71-116.19,181.61-115.39z"/>
					<path class="st22" d="M180.59-114.31c0,0,3.13,2.6-1.39,8.53c-4.53,5.94,2.07,5.06,1.03,10.63c-1.04,5.56-8.69,9.78-12.87,9.78
						c-4.18,0-17.75-6.68-8.7-16.32C167.71-111.34,168.75-115.06,180.59-114.31z"/>
					<path class="st55" d="M179.56-113.23c0,0,2.85,2.4-1.27,7.9c-4.12,5.5,1.89,4.69,0.94,9.84c-0.95,5.15-7.91,9.05-11.71,9.05
						c-3.8,0-16.16-6.18-7.92-15.11C167.84-110.49,168.79-113.92,179.56-113.23z"/>
					<path class="st24" d="M178.54-112.15c0,0,2.57,2.21-1.14,7.27c-3.71,5.06,1.7,4.31,0.84,9.05c-0.86,4.74-7.13,8.33-10.55,8.33
						c-3.43,0-14.56-5.69-7.14-13.9C167.97-109.63,168.83-112.79,178.54-112.15z"/>
					<path class="st25" d="M177.51-111.08c0,0,2.29,2.02-1.02,6.64c-3.31,4.62,1.52,3.94,0.75,8.27c-0.76,4.33-6.34,7.6-9.39,7.6
						c-3.05,0-12.96-5.19-6.36-12.7C168.11-108.77,168.87-111.65,177.51-111.08z"/>
					<path class="st26" d="M176.48-110c0,0,2.01,1.83-0.89,6c-2.9,4.18,1.33,3.56,0.66,7.48c-0.67,3.92-5.56,6.88-8.24,6.88
						c-2.68,0-11.37-4.7-5.57-11.48C168.24-107.91,168.91-110.52,176.48-110z"/>
					<path class="st27" d="M175.46-108.92c0,0,1.72,1.63-0.77,5.37c-2.49,3.74,1.14,3.19,0.57,6.69c-0.57,3.5-4.78,6.15-7.08,6.15
						c-2.3,0-9.77-4.2-4.79-10.28C168.37-107.05,168.95-109.38,175.46-108.92z"/>
					<path class="st28" d="M174.44-107.83c0,0,1.44,1.44-0.64,4.74c-2.08,3.3,0.96,2.81,0.47,5.9c-0.48,3.09-4,5.43-5.92,5.43
						c-1.92,0-8.18-3.71-4.01-9.07C168.51-106.19,168.99-108.25,174.44-107.83z"/>
					<path class="st15" d="M173.41-106.75c0,0,1.16,1.25-0.52,4.11c-1.68,2.86,0.77,2.44,0.38,5.12c-0.39,2.68-3.22,4.71-4.77,4.71
						c-1.55,0-6.58-3.21-3.23-7.86C168.64-105.33,169.02-107.11,173.41-106.75z"/>
				</g>
				<g>
					<path class="st3" d="M136.41-61.7c-5.07,6.26-9.48,11.99-4.46,17.04c5.02,5.05,4.46,12.62,8.92,7.57
						c4.46-5.05,11.71-11.99,10.59-19.56C150.35-64.22,142.55-69.27,136.41-61.7z"/>
					<path class="st4" d="M136.64-61.3c-4.83,5.99-9.02,11.46-4.25,16.29c4.78,4.83,4.25,12.07,8.49,7.24
						c4.25-4.83,11.14-11.46,10.08-18.71C149.91-63.71,142.47-68.54,136.64-61.3z"/>
					<path class="st56" d="M136.86-60.91c-4.58,5.71-8.57,10.94-4.03,15.54c4.54,4.61,4.03,11.51,8.06,6.91
						c4.03-4.6,10.58-10.94,9.58-17.85C149.46-63.21,142.4-67.82,136.86-60.91z"/>
					<path class="st33" d="M137.08-60.51c-4.34,5.44-8.11,10.41-3.82,14.79c4.29,4.38,3.82,10.96,7.64,6.57
						c3.82-4.38,10.02-10.41,9.07-16.98S142.33-67.09,137.08-60.51z"/>
					<path class="st57" d="M137.3-60.12c-4.1,5.16-7.66,9.88-3.6,14.05c4.05,4.16,3.6,10.4,7.21,6.24c3.6-4.16,9.46-9.88,8.56-16.13
						C148.56-62.2,142.25-66.36,137.3-60.12z"/>
					<path class="st58" d="M137.52-59.73c-3.85,4.89-7.2,9.36-3.39,13.3c3.81,3.94,3.39,9.85,6.78,5.91
						c3.39-3.94,8.89-9.36,8.05-15.26C148.11-61.69,142.18-65.63,137.52-59.73z"/>
					<path class="st59" d="M137.75-59.33c-3.61,4.61-6.74,8.83-3.17,12.55c3.57,3.72,3.17,9.29,6.35,5.58
						c3.17-3.72,8.33-8.83,7.54-14.41S142.11-64.91,137.75-59.33z"/>
					<path class="st60" d="M137.97-58.94c-3.37,4.34-6.29,8.3-2.96,11.8c3.33,3.5,2.96,8.74,5.92,5.24c2.96-3.5,7.77-8.3,7.03-13.54
						C147.22-60.68,142.04-64.18,137.97-58.94z"/>
					<path class="st61" d="M138.19-58.54c-3.12,4.06-5.83,7.78-2.75,11.05c3.09,3.27,2.75,8.19,5.49,4.91
						c2.74-3.27,7.21-7.78,6.52-12.69C146.77-60.18,141.96-63.45,138.19-58.54z"/>
					<path class="st62" d="M138.41-58.15c-2.88,3.79-5.38,7.25-2.53,10.3c2.85,3.05,2.53,7.63,5.06,4.58
						c2.53-3.05,6.64-7.25,6.01-11.83C146.32-59.67,141.89-62.73,138.41-58.15z"/>
					<path class="st51" d="M138.64-57.75c-2.63,3.51-4.92,6.72-2.32,9.55c2.61,2.83,2.32,7.08,4.63,4.25
						c2.32-2.83,6.08-6.72,5.5-10.96C145.87-59.17,141.82-62,138.64-57.75z"/>
					<path class="st63" d="M138.86-57.36c-2.39,3.23-4.46,6.19-2.1,8.8c2.37,2.61,2.1,6.52,4.2,3.91c2.1-2.61,5.52-6.2,4.99-10.11
						C145.43-58.66,141.75-61.27,138.86-57.36z"/>
					<path class="st64" d="M139.08-56.96c-2.15,2.96-4.01,5.67-1.89,8.05c2.12,2.38,1.89,5.96,3.77,3.58
						c1.89-2.38,4.95-5.67,4.48-9.24C144.98-58.16,141.67-60.54,139.08-56.96z"/>
					<path class="st15" d="M139.3-56.57c-1.9,2.68-3.55,5.14-1.67,7.3c1.88,2.16,1.67,5.41,3.35,3.25c1.67-2.16,4.39-5.14,3.97-8.38
						C144.53-57.65,141.6-59.82,139.3-56.57z"/>
				</g>
				<g>
					<path class="st2" d="M149.43-153.99c4.85-1,9.84-3.28,16.95,7.65c7.11,10.94,19.97-1.85,25.44-7.31
						c5.47-5.47,7.11,20.78,7.66,24.6c0.55,3.83-23.7,7.04-33.1,0.21c-6.01-4.37-15.86-9.84-17.5-8.2
						C147.24-135.4,128.1-149.62,149.43-153.99z"/>
					<path class="st3" d="M150.64-152.91c4.6-0.94,9.34-3.09,16.09,7.21c6.75,10.31,18.96-1.74,24.15-6.89
						c5.19-5.16,6.75,19.58,7.27,23.19c0.5,3.53-22.15,6.77-31.42,0.2c-5.74-4.07-15.05-9.28-16.61-7.73
						C148.56-135.39,130.39-148.79,150.64-152.91z"/>
					<path class="st4" d="M151.85-151.83c4.36-0.88,8.85-2.9,15.23,6.78c6.39,9.68,17.95-1.63,22.87-6.47
						c4.92-4.84,6.39,18.39,6.88,21.78c0.46,3.24-20.6,6.49-29.75,0.18c-5.46-3.77-14.25-8.71-15.72-7.26
						C149.88-135.37,132.68-147.96,151.85-151.83z"/>
					<path class="st5" d="M153.06-150.75c4.11-0.83,8.35-2.72,14.38,6.34c6.03,9.06,16.94-1.53,21.58-6.06
						c4.64-4.53,6.03,17.21,6.49,20.37c0.42,2.94-19.05,6.21-28.07,0.17c-5.19-3.47-13.45-8.15-14.84-6.79
						C151.2-135.35,134.97-147.13,153.06-150.75z"/>
					<path class="st6" d="M154.27-149.67c3.87-0.77,7.85-2.53,13.52,5.9c5.67,8.43,15.93-1.42,20.29-5.64
						c4.36-4.21,5.68,16.02,6.11,18.97c0.38,2.65-17.5,5.92-26.4,0.16c-4.9-3.18-12.65-7.59-13.95-6.32
						C152.53-135.34,137.26-146.3,154.27-149.67z"/>
					<path class="st7" d="M155.48-148.59c3.62-0.71,7.35-2.34,12.66,5.46c5.31,7.8,14.92-1.32,19-5.22
						c4.09-3.9,5.32,14.82,5.72,17.56c0.34,2.36-15.94,5.64-24.72,0.15c-4.62-2.88-11.84-7.02-13.07-5.85
						C153.85-135.33,139.55-145.47,155.48-148.59z"/>
					<path class="st8" d="M156.69-147.51c3.38-0.66,6.85-2.15,11.8,5.02c4.95,7.18,13.91-1.21,17.72-4.8
						c3.81-3.59,4.96,13.63,5.33,16.15c0.3,2.06-14.38,5.34-23.05,0.13c-4.33-2.6-11.04-6.46-12.18-5.38
						C155.17-135.31,141.84-144.64,156.69-147.51z"/>
					<path class="st9" d="M157.9-146.43c3.13-0.6,6.35-1.96,10.94,4.59c4.59,6.55,12.9-1.11,16.43-4.38
						c3.53-3.28,4.6,12.44,4.94,14.74c0.26,1.77-12.81,5.05-21.37,0.12c-4.03-2.32-10.24-5.89-11.3-4.91
						C156.49-135.29,144.13-143.81,157.9-146.43z"/>
					<path class="st10" d="M159.11-145.35c2.88-0.54,5.86-1.78,10.09,4.15c4.23,5.92,11.89-1,15.14-3.96
						c3.25-2.96,4.25,11.25,4.56,13.33c0.22,1.47-11.23,4.74-19.7,0.11c-3.74-2.04-9.44-5.33-10.41-4.44
						C157.81-135.28,146.42-142.98,159.11-145.35z"/>
					<path class="st11" d="M160.33-144.27c2.64-0.48,5.36-1.59,9.23,3.71c3.87,5.3,10.88-0.89,13.85-3.54
						c2.98-2.65,3.89,10.06,4.17,11.92c0.18,1.18-9.65,4.42-18.02,0.1c-3.44-1.77-8.63-4.77-9.53-3.97
						C159.13-135.26,148.71-142.15,160.33-144.27z"/>
					<path class="st12" d="M161.54-143.19c2.39-0.43,4.86-1.4,8.37,3.27c3.51,4.67,9.87-0.79,12.57-3.13
						c2.7-2.34,3.53,8.87,3.78,10.51c0.14,0.88-8.06,4.08-16.35,0.09c-3.13-1.51-7.83-4.2-8.64-3.5
						C160.46-135.25,151-141.32,161.54-143.19z"/>
					<path class="st13" d="M162.75-142.11c2.15-0.37,4.36-1.21,7.51,2.83c3.15,4.04,8.85-0.68,11.28-2.71
						c2.42-2.02,3.17,7.68,3.39,9.1c0.09,0.59-6.46,3.72-14.67,0.07c-2.83-1.25-7.03-3.64-7.76-3.03
						C161.78-135.23,153.29-140.49,162.75-142.11z"/>
					<path class="st14" d="M163.96-141.03c1.9-0.31,3.86-1.03,6.66,2.39c2.79,3.42,7.84-0.58,9.99-2.29
						c2.15-1.71,2.81,6.49,3.01,7.69c0.05,0.29-4.85,3.33-13,0.06c-2.52-1.01-6.23-3.08-6.87-2.56
						C163.1-135.22,155.58-139.66,163.96-141.03z"/>
					<path class="st15" d="M170.97-133.53c-2.21-0.77-5.42-2.51-5.99-2.09c-0.56,0.42-7.11-3.21,0.19-4.33
						c1.66-0.26,3.37-0.84,5.8,1.96c2.43,2.79,6.83-0.47,8.7-1.87c1.87-1.39,2.43,5.3,2.62,6.28
						C182.29-133.58,179.07-130.7,170.97-133.53z"/>
				</g>
				<g>
					<path class="st16" d="M218.81-158.72c0,0,7.9-1.73,7.36,3.36c-0.54,5.09-5.98,4.64-5.04,8.19c0.95,3.55,0.81,5.87,3.81,10
						c3.01,4.14-7.73,12.33-11.47,6.86C209.73-135.77,197.66-161.06,218.81-158.72z"/>
					<path class="st17" d="M218.6-158.27c0,0,7.47-1.67,6.96,3.24c-0.51,4.9-5.66,4.47-4.76,7.89c0.9,3.42,0.76,5.66,3.6,9.64
						c2.84,3.99-7.31,11.88-10.85,6.62C210.02-136.15,198.6-160.53,218.6-158.27z"/>
					<path class="st18" d="M218.39-157.83c0,0,7.05-1.61,6.56,3.12c-0.48,4.72-5.33,4.3-4.49,7.6c0.85,3.29,0.72,5.45,3.4,9.29
						c2.68,3.84-6.89,11.44-10.23,6.37C210.3-136.53,199.53-160,218.39-157.83z"/>
					<path class="st19" d="M218.19-157.38c0,0,6.62-1.54,6.16,3c-0.45,4.54-5.01,4.14-4.22,7.3c0.8,3.17,0.68,5.23,3.19,8.93
						c2.52,3.7-6.47,11-9.61,6.12C210.58-136.9,200.47-159.46,218.19-157.38z"/>
					<path class="st20" d="M217.98-156.93c0,0,6.19-1.48,5.77,2.88c-0.43,4.36-4.69,3.97-3.95,7.01c0.74,3.04,0.63,5.02,2.99,8.57
						c2.36,3.55-6.06,10.56-8.99,5.88C210.87-137.28,201.41-158.93,217.98-156.93z"/>
					<path class="st21" d="M217.77-156.48c0,0,5.76-1.42,5.37,2.75c-0.39,4.17-4.37,3.8-3.67,6.72c0.69,2.91,0.59,4.81,2.78,8.21
						c2.19,3.4-5.64,10.12-8.37,5.63C211.15-137.66,202.34-158.4,217.77-156.48z"/>
					<path class="st22" d="M217.57-156.04c0,0,5.34-1.36,4.97,2.63c-0.37,3.99-4.04,3.64-3.4,6.42c0.64,2.78,0.54,4.6,2.58,7.85
						c2.03,3.25-5.22,9.67-7.75,5.39C211.43-138.03,203.28-157.87,217.57-156.04z"/>
					<path class="st23" d="M217.36-155.59c0,0,4.91-1.29,4.57,2.51c-0.34,3.81-3.72,3.47-3.13,6.13c0.59,2.65,0.5,4.39,2.37,7.49
						c1.87,3.1-4.8,9.23-7.13,5.14C211.72-138.41,204.21-157.34,217.36-155.59z"/>
					<path class="st24" d="M217.15-155.14c0,0,4.48-1.23,4.18,2.39c-0.31,3.63-3.39,3.3-2.86,5.83c0.54,2.53,0.46,4.18,2.16,7.13
						c1.71,2.95-4.39,8.79-6.51,4.89C212-138.78,205.15-156.81,217.15-155.14z"/>
					<path class="st25" d="M216.94-154.69c0,0,4.06-1.17,3.78,2.27c-0.28,3.44-3.07,3.14-2.59,5.54c0.49,2.4,0.42,3.97,1.96,6.77
						c1.54,2.8-3.97,8.35-5.89,4.65C212.28-139.16,206.09-156.27,216.94-154.69z"/>
					<path class="st26" d="M216.74-154.25c0,0,3.63-1.11,3.38,2.15c-0.25,3.26-2.75,2.97-2.31,5.25c0.44,2.27,0.37,3.76,1.75,6.41
						c1.38,2.65-3.55,7.9-5.27,4.4C212.57-139.54,207.02-155.74,216.74-154.25z"/>
					<path class="st27" d="M216.53-153.8c0,0,3.2-1.04,2.98,2.03c-0.22,3.08-2.42,2.81-2.04,4.95c0.38,2.15,0.33,3.55,1.54,6.05
						c1.22,2.51-3.13,7.46-4.65,4.15C212.85-139.91,207.96-155.21,216.53-153.8z"/>
					<path class="st28" d="M216.32-153.35c0,0,2.78-0.98,2.59,1.91c-0.19,2.89-2.1,2.64-1.77,4.66c0.33,2.02,0.28,3.34,1.34,5.7
						c1.06,2.36-2.71,7.02-4.03,3.91C213.14-140.29,208.89-154.68,216.32-153.35z"/>
					<path class="st15" d="M216.12-152.9c0,0,2.35-0.92,2.19,1.79c-0.16,2.71-1.78,2.47-1.5,4.37c0.28,1.89,0.24,3.13,1.13,5.33
						c0.89,2.21-2.3,6.58-3.41,3.66C213.42-140.66,209.83-154.15,216.12-152.9z"/>
				</g>
				<path class="st1" d="M150.72-29.14c4.85-1,9.84-3.28,16.95,7.65c7.11,10.94,19.97-1.85,25.44-7.31
					c5.47-5.47,7.11,20.78,7.65,24.6c0.55,3.83-23.69,7.04-33.1,0.21c-6.01-4.37-15.86-9.84-17.5-8.2
					C148.54-10.55,129.4-24.77,150.72-29.14z"/>
				<path class="st1" d="M220.1-33.87c0,0,7.9-1.73,7.36,3.36c-0.54,5.09-5.98,4.64-5.04,8.19c0.95,3.55,0.8,5.87,3.81,10
					c3.01,4.14-7.73,12.33-11.47,6.86C211.03-10.93,198.96-36.21,220.1-33.87z"/>
				<g>
					<path class="st2" d="M149.43-29.58c4.85-1,9.84-3.28,16.95,7.66c7.11,10.94,19.97-1.85,25.44-7.31
						c5.47-5.47,7.11,20.78,7.66,24.6c0.55,3.83-23.7,7.04-33.1,0.21c-6.01-4.38-15.86-9.84-17.5-8.2
						C147.24-10.99,128.1-25.2,149.43-29.58z"/>
					<path class="st3" d="M150.64-28.5c4.6-0.94,9.34-3.09,16.09,7.22c6.75,10.31,18.96-1.74,24.15-6.89
						c5.19-5.15,6.75,19.59,7.27,23.2c0.52,3.61-22.5,6.64-31.42,0.19c-5.71-4.12-15.05-9.28-16.61-7.73
						C148.56-10.97,130.39-24.37,150.64-28.5z"/>
					<path class="st4" d="M151.85-27.42c4.36-0.88,8.85-2.9,15.23,6.78c6.39,9.68,17.95-1.63,22.87-6.47
						c4.92-4.84,6.39,18.39,6.88,21.79c0.49,3.39-21.3,6.23-29.75,0.18c-5.41-3.87-14.25-8.71-15.72-7.26
						C149.88-10.95,132.68-23.54,151.85-27.42z"/>
					<path class="st5" d="M153.06-26.33c4.11-0.83,8.35-2.72,14.38,6.34c6.03,9.06,16.94-1.53,21.58-6.06
						c4.64-4.53,6.03,17.21,6.49,20.38c0.46,3.17-20.1,5.83-28.07,0.17c-5.1-3.62-13.45-8.15-14.84-6.79
						C151.2-10.94,134.97-22.71,153.06-26.33z"/>
					<path class="st6" d="M154.27-25.25c3.87-0.77,7.85-2.53,13.52,5.9c5.67,8.43,15.93-1.42,20.29-5.64
						c4.36-4.21,5.67,16.02,6.11,18.97c0.44,2.95-18.9,5.43-26.4,0.16c-4.8-3.37-12.65-7.59-13.95-6.32
						C152.53-10.92,137.26-21.88,154.27-25.25z"/>
					<path class="st7" d="M155.48-24.17c3.62-0.71,7.35-2.34,12.66,5.46c5.31,7.8,14.92-1.32,19-5.22
						c4.09-3.9,5.31,14.83,5.72,17.56c0.41,2.73-17.7,5.02-24.72,0.15c-4.49-3.12-11.84-7.02-13.07-5.85
						C153.85-10.91,139.55-21.05,155.48-24.17z"/>
					<path class="st8" d="M156.69-23.09c3.38-0.65,6.85-2.15,11.8,5.03c4.95,7.18,13.91-1.21,17.72-4.8
						c3.81-3.59,4.95,13.64,5.33,16.15c0.38,2.51-16.5,4.62-23.05,0.13c-4.19-2.87-11.04-6.46-12.18-5.38
						C155.17-10.89,141.84-20.22,156.69-23.09z"/>
					<path class="st9" d="M157.9-22.01c3.13-0.6,6.35-1.96,10.94,4.59c4.59,6.55,12.9-1.11,16.43-4.38
						c3.53-3.27,4.59,12.45,4.94,14.74c0.35,2.29-15.3,4.22-21.37,0.12c-3.88-2.62-10.24-5.89-11.3-4.91
						C156.49-10.88,144.13-19.39,157.9-22.01z"/>
					<path class="st10" d="M159.11-20.93c2.88-0.54,5.86-1.78,10.09,4.15c4.23,5.92,11.89-1,15.14-3.96
						c3.25-2.96,4.23,11.26,4.56,13.33c0.32,2.07-14.1,3.81-19.7,0.11c-3.58-2.37-9.44-5.33-10.41-4.44
						C157.81-10.86,146.42-18.56,159.11-20.93z"/>
					<path class="st11" d="M160.33-19.85c2.64-0.48,5.36-1.59,9.23,3.71c3.87,5.3,10.88-0.89,13.85-3.54
						c2.98-2.65,3.87,10.06,4.17,11.92c0.3,1.85-12.9,3.41-18.02,0.1c-3.28-2.12-8.63-4.77-9.53-3.97
						C159.13-10.85,148.71-17.73,160.33-19.85z"/>
					<path class="st12" d="M161.54-18.77c2.39-0.43,4.86-1.4,8.37,3.27c3.51,4.67,9.87-0.79,12.57-3.12
						c2.7-2.34,3.51,8.88,3.78,10.51c0.27,1.63-11.71,3.01-16.35,0.09c-2.97-1.87-7.83-4.21-8.64-3.5
						C160.46-10.83,151-16.9,161.54-18.77z"/>
					<path class="st13" d="M162.75-17.69c2.15-0.37,4.36-1.21,7.51,2.83c3.15,4.05,8.85-0.68,11.28-2.7
						c2.42-2.02,3.15,7.69,3.39,9.1c0.24,1.41-10.51,2.6-14.67,0.07c-2.67-1.62-7.03-3.64-7.76-3.03
						C161.78-10.82,153.29-16.07,162.75-17.69z"/>
					<path class="st14" d="M163.96-16.61c1.9-0.31,3.86-1.03,6.66,2.39c2.79,3.42,7.84-0.58,9.99-2.29
						c2.15-1.71,2.79,6.49,3.01,7.69c0.21,1.2-9.31,2.2-13,0.06c-2.36-1.37-6.23-3.08-6.87-2.56
						C163.1-10.8,155.58-15.25,163.96-16.61z"/>
					<path class="st15" d="M165.17-15.53c1.66-0.25,3.37-0.84,5.8,1.96c2.43,2.79,6.83-0.47,8.7-1.87c1.87-1.39,2.43,5.3,2.62,6.28
						c0.19,0.98-8.11,1.8-11.32,0.05c-2.06-1.12-5.42-2.51-5.99-2.09C164.42-10.78,157.87-14.41,165.17-15.53z"/>
				</g>
				<g>
					<path class="st16" d="M218.81-34.31c0,0,7.9-1.73,7.36,3.36c-0.54,5.08-5.98,4.64-5.04,8.18c0.95,3.55,0.81,5.87,3.81,10
						c3.01,4.14-7.73,12.33-11.47,6.86C209.73-11.36,197.66-36.64,218.81-34.31z"/>
					<path class="st17" d="M218.6-33.86c0,0,7.47-1.67,6.96,3.24c-0.51,4.9-5.66,4.47-4.76,7.89c0.9,3.42,0.76,5.65,3.6,9.64
						c2.84,3.99-7.31,11.88-10.85,6.62C210.02-11.74,198.6-36.11,218.6-33.86z"/>
					<path class="st18" d="M218.39-33.41c0,0,7.05-1.61,6.56,3.12c-0.48,4.72-5.33,4.3-4.49,7.6c0.85,3.29,0.72,5.44,3.4,9.29
						c2.68,3.84-6.89,11.44-10.23,6.37C210.3-12.11,199.53-35.58,218.39-33.41z"/>
					<path class="st19" d="M218.19-32.96c0,0,6.62-1.54,6.16,2.99c-0.45,4.54-5.01,4.14-4.22,7.3c0.8,3.16,0.68,5.23,3.19,8.93
						c2.52,3.7-6.47,11-9.61,6.12C210.58-12.49,200.47-35.05,218.19-32.96z"/>
					<path class="st20" d="M217.98-32.51c0,0,6.19-1.48,5.77,2.87c-0.43,4.35-4.69,3.97-3.95,7.01c0.74,3.04,0.63,5.02,2.99,8.57
						c2.36,3.55-6.06,10.56-8.99,5.88C210.87-12.86,201.41-34.51,217.98-32.51z"/>
					<path class="st21" d="M217.77-32.07c0,0,5.76-1.42,5.37,2.76c-0.39,4.17-4.37,3.8-3.67,6.71c0.69,2.91,0.59,4.81,2.78,8.21
						c2.19,3.4-5.64,10.12-8.37,5.63C211.15-13.24,202.34-33.98,217.77-32.07z"/>
					<path class="st22" d="M217.57-31.62c0,0,5.34-1.36,4.97,2.63c-0.37,3.99-4.04,3.64-3.4,6.42c0.64,2.78,0.54,4.6,2.58,7.85
						c2.03,3.25-5.22,9.67-7.75,5.38C211.43-13.62,203.28-33.45,217.57-31.62z"/>
					<path class="st23" d="M217.36-31.17c0,0,4.91-1.29,4.57,2.51c-0.34,3.81-3.72,3.47-3.13,6.13c0.59,2.65,0.5,4.39,2.37,7.49
						c1.87,3.1-4.8,9.23-7.13,5.14C211.72-13.99,204.21-32.92,217.36-31.17z"/>
					<path class="st24" d="M217.15-30.72c0,0,4.48-1.23,4.18,2.39c-0.31,3.62-3.39,3.3-2.86,5.83c0.54,2.53,0.46,4.18,2.16,7.13
						c1.71,2.95-4.39,8.79-6.51,4.89C212-14.37,205.15-32.39,217.15-30.72z"/>
					<path class="st25" d="M216.94-30.28c0,0,4.06-1.17,3.78,2.27c-0.28,3.44-3.07,3.14-2.59,5.54c0.49,2.4,0.42,3.97,1.96,6.77
						c1.54,2.8-3.97,8.35-5.89,4.64C212.28-14.74,206.09-31.86,216.94-30.28z"/>
					<path class="st26" d="M216.74-29.83c0,0,3.63-1.11,3.38,2.15c-0.25,3.26-2.75,2.97-2.31,5.25c0.44,2.27,0.37,3.76,1.75,6.41
						c1.38,2.65-3.55,7.9-5.27,4.4C212.57-15.12,207.02-31.33,216.74-29.83z"/>
					<path class="st27" d="M216.53-29.38c0,0,3.2-1.05,2.98,2.03c-0.22,3.08-2.42,2.8-2.04,4.95c0.38,2.15,0.33,3.55,1.54,6.05
						c1.22,2.51-3.13,7.46-4.65,4.15C212.85-15.5,207.96-30.79,216.53-29.38z"/>
					<path class="st28" d="M216.32-28.93c0,0,2.78-0.98,2.59,1.91c-0.19,2.89-2.1,2.64-1.77,4.66c0.33,2.02,0.28,3.34,1.34,5.7
						c1.06,2.36-2.71,7.02-4.03,3.91C213.14-15.87,208.89-30.26,216.32-28.93z"/>
					<path class="st15" d="M216.12-28.49c0,0,2.35-0.92,2.19,1.79c-0.16,2.71-1.78,2.47-1.5,4.36c0.28,1.89,0.24,3.13,1.13,5.34
						c0.89,2.21-2.3,6.57-3.41,3.66C213.42-16.25,209.83-29.73,216.12-28.49z"/>
				</g>
				<path class="st1" d="M140.73-91.15c0,0-16.73-12.3-23.62-1.48c-6.89,10.83-2.46,9.84-8.86,24.11
					c-6.4,14.27,1.97,24.11,10.83,20.17c8.86-3.94-0.98-16.24,7.87-20.67c8.86-4.43,3.94,6.4,13.29,2.95
					C149.59-69.5,151.06-83.77,140.73-91.15z"/>
				<path class="st1" d="M132.97-35.42c0,0,6.2,4.43,1.33,7.97c-4.87,3.54,4.43,11.51-3.54,11.07c-7.97-0.44-14.62,3.54-16.39-3.98
					c-1.77-7.53-0.44-18.16,1.77-20.37C118.36-42.95,125.88-47.82,132.97-35.42z"/>
				<g>
					<path class="st16" d="M139.44-91.58c0,0-16.73-12.3-23.62-1.48c-6.89,10.82-2.46,9.84-8.86,24.11
						c-6.4,14.27,1.97,24.11,10.83,20.17c8.86-3.94-0.98-16.24,7.87-20.67c8.86-4.43,3.94,6.4,13.29,2.95
						C148.29-69.93,149.77-84.2,139.44-91.58z"/>
					<path class="st17" d="M138.87-90.92c0,0-16.06-11.63-22.67-1.39c-6.61,10.23-2.36,9.3-8.5,22.79
						c-6.14,13.49,1.89,22.79,10.39,19.07c8.5-3.72-0.94-15.35,7.56-19.53c8.5-4.18,3.78,6.04,12.75,2.79
						C147.37-70.45,148.79-83.94,138.87-90.92z"/>
					<path class="st18" d="M138.31-90.25c0,0-15.38-10.95-21.72-1.31c-6.33,9.63-2.26,8.76-8.14,21.46
						c-5.88,12.7,1.81,21.46,9.95,17.96c8.14-3.51-0.91-14.46,7.24-18.4c8.14-3.94,3.62,5.69,12.21,2.63
						C146.45-70.98,147.81-83.68,138.31-90.25z"/>
					<path class="st19" d="M137.75-89.58c0,0-14.71-10.27-20.76-1.23c-6.05,9.04-2.16,8.22-7.79,20.14
						c-5.62,11.92,1.73,20.14,9.52,16.85c7.79-3.29-0.87-13.56,6.92-17.26c7.79-3.7,3.46,5.34,11.68,2.46
						C145.53-71.5,146.83-83.42,137.75-89.58z"/>
					<path class="st20" d="M137.19-88.92c0,0-14.03-9.6-19.81-1.15c-5.78,8.45-2.06,7.68-7.43,18.81
						c-5.37,11.13,1.65,18.81,9.08,15.74c7.43-3.07-0.83-12.67,6.6-16.13c7.43-3.46,3.3,4.99,11.14,2.3
						C144.61-72.02,145.85-83.16,137.19-88.92z"/>
					<path class="st41" d="M136.62-88.25c0,0-13.36-8.92-18.86-1.07c-5.5,7.85-1.96,7.14-7.07,17.49
						c-5.11,10.35,1.57,17.49,8.64,14.63c7.07-2.86-0.79-11.78,6.29-14.99c7.07-3.21,3.14,4.64,10.61,2.14
						C143.69-72.55,144.87-82.9,136.62-88.25z"/>
					<path class="st22" d="M136.06-87.58c0,0-12.68-8.25-17.91-0.99c-5.22,7.26-1.87,6.6-6.71,16.16
						c-4.85,9.56,1.49,16.16,8.21,13.52c6.71-2.64-0.75-10.88,5.97-13.85c6.72-2.97,2.99,4.29,10.07,1.98
						C142.77-73.07,143.89-82.64,136.06-87.58z"/>
					<path class="st23" d="M135.5-86.92c0,0-12.01-7.57-16.96-0.91c-4.94,6.66-1.77,6.06-6.36,14.84
						c-4.59,8.78,1.41,14.84,7.77,12.41c6.36-2.42-0.71-9.99,5.65-12.72c6.36-2.73,2.83,3.94,9.54,1.82
						C141.85-73.59,142.91-82.37,135.5-86.92z"/>
					<path class="st24" d="M134.94-86.25c0,0-11.33-6.89-16-0.83c-4.67,6.07-1.67,5.52-6,13.52c-4.33,8,1.33,13.51,7.33,11.31
						c6-2.21-0.67-9.1,5.33-11.58c6-2.48,2.67,3.58,9,1.65C140.93-74.12,141.93-82.11,134.94-86.25z"/>
					<path class="st25" d="M134.37-85.58c0,0-10.66-6.22-15.05-0.75c-4.39,5.47-1.57,4.97-5.64,12.19
						c-4.08,7.21,1.25,12.19,6.9,10.2c5.64-1.99-0.63-8.21,5.02-10.45c5.64-2.24,2.51,3.23,8.47,1.49
						C140.01-74.64,140.95-81.85,134.37-85.58z"/>
					<path class="st26" d="M133.81-84.92c0,0-9.99-5.54-14.1-0.67c-4.11,4.88-1.47,4.44-5.29,10.87c-3.82,6.43,1.17,10.86,6.46,9.09
						c5.29-1.77-0.59-7.32,4.7-9.31c5.29-2,2.35,2.88,7.93,1.33C139.09-75.16,139.98-81.59,133.81-84.92z"/>
					<path class="st27" d="M133.25-84.25c0,0-9.31-4.87-13.14-0.58c-3.83,4.29-1.37,3.89-4.93,9.54c-3.56,5.64,1.09,9.54,6.02,7.98
						c4.93-1.56-0.55-6.43,4.38-8.18c4.93-1.75,2.19,2.53,7.39,1.17C138.17-75.68,139-81.33,133.25-84.25z"/>
					<path class="st28" d="M132.68-83.58c0,0-8.64-4.19-12.19-0.5c-3.56,3.69-1.27,3.35-4.57,8.22c-3.3,4.86,1.02,8.21,5.59,6.87
						c4.57-1.34-0.51-5.53,4.06-7.04c4.57-1.51,2.03,2.18,6.86,1.01C137.25-76.21,138.02-81.07,132.68-83.58z"/>
					<path class="st15" d="M132.12-82.92c0,0-7.96-3.51-11.24-0.42c-3.28,3.09-1.17,2.81-4.21,6.89c-3.04,4.08,0.94,6.89,5.15,5.76
						c4.21-1.13-0.47-4.64,3.75-5.9c4.22-1.27,1.87,1.83,6.32,0.84C136.34-76.73,137.04-80.81,132.12-82.92z"/>
				</g>
				<g>
					<path class="st30" d="M131.67-35.85c0,0,6.2,4.43,1.33,7.97c-4.87,3.54,4.43,11.51-3.54,11.07
						c-7.97-0.44-14.62,3.54-16.39-3.99c-1.77-7.53-0.44-18.16,1.77-20.37C117.06-43.38,124.59-48.25,131.67-35.85z"/>
					<path class="st42" d="M131.23-35.53c0,0,5.89,4.21,1.26,7.57c-4.62,3.37,4.2,10.94-3.36,10.52
						c-7.57-0.42-13.88,3.37-15.56-3.79c-1.68-7.15-0.42-17.25,1.68-19.36C117.36-42.68,124.51-47.31,131.23-35.53z"/>
					<path class="st43" d="M130.79-35.21c0,0,5.57,3.99,1.19,7.18c-4.38,3.19,3.98,10.37-3.18,9.97c-7.16-0.4-13.13,3.19-14.73-3.59
						c-1.59-6.78-0.4-16.35,1.59-18.34C117.66-41.98,124.43-46.37,130.79-35.21z"/>
					<path class="st44" d="M130.35-34.88c0,0,5.26,3.77,1.13,6.78c-4.13,3.01,3.75,9.79-3,9.41c-6.76-0.38-12.39,3.01-13.89-3.39
						c-1.5-6.4-0.38-15.44,1.5-17.32C117.96-41.29,124.35-45.43,130.35-34.88z"/>
					<path class="st45" d="M129.91-34.56c0,0,4.94,3.54,1.06,6.38c-3.88,2.84,3.53,9.21-2.82,8.86c-6.35-0.35-11.65,2.84-13.06-3.19
						c-1.41-6.02-0.35-14.54,1.41-16.31C118.27-40.59,124.26-44.49,129.91-34.56z"/>
					<path class="st46" d="M129.47-34.24c0,0,4.63,3.32,0.99,5.98c-3.63,2.66,3.3,8.64-2.64,8.31c-5.95-0.33-10.91,2.66-12.23-2.99
						c-1.32-5.65-0.33-13.63,1.32-15.29C118.57-39.89,124.18-43.55,129.47-34.24z"/>
					<path class="st47" d="M129.03-33.92c0,0,4.31,3.11,0.92,5.59c-3.39,2.48,3.08,8.07-2.46,7.76c-5.54-0.31-10.17,2.48-11.4-2.79
						c-1.23-5.27-0.31-12.72,1.23-14.28C118.87-39.19,124.1-42.61,129.03-33.92z"/>
					<path class="st48" d="M128.59-33.6c0,0,4,2.88,0.86,5.19c-3.14,2.31,2.85,7.49-2.28,7.21c-5.14-0.29-9.43,2.31-10.57-2.59
						c-1.14-4.9-0.29-11.82,1.14-13.26C119.17-38.5,124.02-41.67,128.59-33.6z"/>
					<path class="st49" d="M128.15-33.27c0,0,3.68,2.66,0.79,4.79c-2.89,2.13,2.63,6.92-2.1,6.65c-4.74-0.27-8.69,2.13-9.74-2.4
						c-1.05-4.52-0.26-10.92,1.05-12.25C119.47-37.8,123.94-40.73,128.15-33.27z"/>
					<path class="st50" d="M127.71-32.95c0,0,3.37,2.44,0.72,4.39c-2.65,1.95,2.41,6.35-1.92,6.1c-4.33-0.24-7.94,1.96-8.91-2.2
						c-0.96-4.15-0.24-10.01,0.96-11.23C119.77-37.1,123.86-39.79,127.71-32.95z"/>
					<path class="st51" d="M127.27-32.63c0,0,3.05,2.22,0.65,4c-2.4,1.78,2.18,5.77-1.75,5.55c-3.93-0.22-7.2,1.78-8.07-2
						c-0.87-3.77-0.22-9.11,0.87-10.21C120.07-36.41,123.78-38.85,127.27-32.63z"/>
					<path class="st52" d="M126.83-32.31c0,0,2.74,2,0.59,3.6c-2.15,1.6,1.96,5.2-1.57,5c-3.52-0.2-6.46,1.6-7.24-1.8
						c-0.78-3.4-0.19-8.2,0.78-9.2C120.37-35.71,123.7-37.91,126.83-32.31z"/>
					<path class="st28" d="M126.39-31.99c0,0,2.43,1.78,0.52,3.2c-1.9,1.42,1.73,4.62-1.38,4.45c-3.12-0.18-5.72,1.42-6.41-1.6
						c-0.69-3.02-0.17-7.29,0.69-8.18C120.67-35.01,123.62-36.97,126.39-31.99z"/>
					<path class="st15" d="M125.95-31.67c0,0,2.11,1.56,0.45,2.8c-1.66,1.25,1.51,4.05-1.21,3.89c-2.71-0.16-4.98,1.25-5.58-1.4
						c-0.6-2.65-0.15-6.39,0.6-7.17C120.98-34.32,123.54-36.03,125.95-31.67z"/>
				</g>
			</g>
			<g>
				<path class="st1" d="M234.44-97.58c0,0-10.83-1.48-7.38-7.88c3.44-6.4,9.35-2.95,13.28-17.22c3.94-14.27,8.37-15.75,15.75-8.86
					c7.38,6.89,25.59,1.97,19.19,15.25c-6.4,13.29-6.89,11.81-15.75,13.78C250.68-100.54,239.36-104.48,234.44-97.58z"/>
				<g>
					<g>
						<path class="st29" d="M233.15-98.02c0,0-10.83-1.48-7.38-7.87c3.44-6.4,9.35-2.95,13.28-17.22
							c3.94-14.27,8.37-15.75,15.75-8.86c7.38,6.89,25.59,1.97,19.19,15.25c-6.4,13.29-6.89,11.81-15.75,13.78
							C249.38-100.97,238.07-104.91,233.15-98.02z"/>
						<path class="st30" d="M234.1-99.11c0,0-10.21-1.4-6.96-7.43c3.25-6.04,8.82-2.79,12.53-16.26
							c3.71-13.47,7.89-14.86,14.85-8.36c6.96,6.5,24.13,1.86,18.09,14.4c-6.03,12.54-6.5,11.15-14.85,13.01
							C249.41-101.9,238.74-105.62,234.1-99.11z"/>
						<path class="st31" d="M235.06-100.21c0,0-9.59-1.31-6.54-6.99c3.05-5.68,8.28-2.62,11.77-15.29
							c3.49-12.67,7.41-13.98,13.95-7.86c6.54,6.12,22.67,1.75,17,13.54c-5.67,11.8-6.1,10.49-13.95,12.23
							C249.44-102.83,239.41-106.33,235.06-100.21z"/>
						<path class="st32" d="M236.01-101.31c0,0-8.97-1.23-6.12-6.55c2.85-5.32,7.75-2.46,11.01-14.32
							c3.26-11.87,6.93-13.1,13.05-7.37c6.12,5.73,21.21,1.64,15.9,12.69c-5.3,11.05-5.71,9.82-13.05,11.46
							C249.47-103.76,240.09-107.04,236.01-101.31z"/>
						<path class="st33" d="M236.97-102.4c0,0-8.35-1.15-5.7-6.11c2.66-4.96,7.21-2.29,10.25-13.36
							c3.04-11.07,6.46-12.21,12.15-6.87c5.7,5.35,19.75,1.53,14.81,11.83c-4.94,10.31-5.32,9.16-12.15,10.69
							C249.5-104.69,240.76-107.75,236.97-102.4z"/>
						<path class="st34" d="M237.92-103.5c0,0-7.74-1.06-5.28-5.67c2.46-4.6,6.68-2.13,9.49-12.39c2.81-10.27,5.98-11.33,11.25-6.37
							c5.27,4.96,18.29,1.42,13.71,10.97c-4.57,9.56-4.92,8.5-11.25,9.92C249.53-105.63,241.44-108.46,237.92-103.5z"/>
						<path class="st35" d="M238.88-104.6c0,0-7.12-0.98-4.85-5.22c2.26-4.25,6.15-1.96,8.74-11.43c2.59-9.47,5.5-10.45,10.36-5.88
							c4.85,4.57,16.83,1.31,12.62,10.12c-4.21,8.82-4.53,7.84-10.35,9.14C249.55-106.56,242.11-109.17,238.88-104.6z"/>
						<path class="st36" d="M239.83-105.69c0,0-6.5-0.9-4.43-4.78c2.07-3.89,5.61-1.79,7.98-10.46c2.37-8.67,5.02-9.56,9.46-5.38
							c4.43,4.19,15.36,1.2,11.52,9.26c-3.84,8.07-4.14,7.17-9.46,8.37C249.58-107.49,242.79-109.88,239.83-105.69z"/>
						<path class="st37" d="M240.79-106.79c0,0-5.88-0.81-4.01-4.34c1.87-3.53,5.08-1.63,7.22-9.5c2.14-7.87,4.55-8.68,8.56-4.88
							c4.01,3.8,13.9,1.09,10.43,8.41c-3.48,7.33-3.74,6.51-8.56,7.6C249.61-108.42,243.46-110.59,240.79-106.79z"/>
						<path class="st38" d="M241.74-107.89c0,0-5.27-0.73-3.59-3.9c1.67-3.17,4.55-1.46,6.46-8.53c1.92-7.07,4.07-7.8,7.66-4.39
							c3.59,3.41,12.44,0.98,9.33,7.55c-3.11,6.58-3.35,5.85-7.66,6.83C249.64-109.35,244.13-111.3,241.74-107.89z"/>
						<path class="st39" d="M242.7-108.98c0,0-4.65-0.65-3.17-3.46c1.48-2.81,4.01-1.29,5.7-7.56c1.69-6.27,3.59-6.92,6.76-3.89
							c3.17,3.03,10.98,0.87,8.24,6.7c-2.75,5.84-2.96,5.19-6.76,6.05C249.67-110.28,244.81-112.01,242.7-108.98z"/>
						<path class="st40" d="M243.65-110.08c0,0-4.03-0.56-2.75-3.02c1.28-2.45,3.48-1.13,4.94-6.6c1.47-5.47,3.11-6.03,5.86-3.39
							c2.75,2.64,9.52,0.76,7.14,5.84c-2.38,5.09-2.56,4.53-5.86,5.28S245.48-112.72,243.65-110.08z"/>
						<path class="st14" d="M244.61-111.18c0,0-3.41-0.48-2.33-2.57c1.09-2.09,2.95-0.97,4.19-5.63c1.24-4.67,2.64-5.15,4.96-2.9
							c2.33,2.25,8.06,0.64,6.05,4.99c-2.02,4.35-2.17,3.86-4.96,4.51C249.72-112.14,246.16-113.43,244.61-111.18z"/>
						<path class="st15" d="M245.56-112.27c0,0-2.79-0.4-1.91-2.13c0.89-1.73,2.41-0.8,3.43-4.67c1.02-3.87,2.16-4.27,4.06-2.4
							c1.9,1.87,6.6,0.54,4.95,4.13c-1.65,3.6-1.78,3.2-4.06,3.73C249.75-113.07,246.83-114.14,245.56-112.27z"/>
					</g>
					<path class="st1" d="M265.13-91.15c0,0-16.73-12.3-23.62-1.48c-6.89,10.83-2.46,9.84-8.86,24.11
						c-6.4,14.27,1.97,24.11,10.83,20.17c8.86-3.94-0.98-16.24,7.87-20.67c8.86-4.43,3.94,6.4,13.29,2.95
						C273.98-69.5,275.46-83.77,265.13-91.15z"/>
					<path class="st1" d="M257.37-35.42c0,0,6.2,4.43,1.33,7.97c-4.87,3.54,4.43,11.51-3.54,11.07c-7.97-0.44-14.62,3.54-16.39-3.98
						c-1.77-7.53-0.44-18.16,1.77-20.37C242.75-42.95,250.28-47.82,257.37-35.42z"/>
					<g>
						<path class="st16" d="M263.83-91.58c0,0-16.73-12.3-23.62-1.48c-6.89,10.82-2.46,9.84-8.86,24.11
							c-6.4,14.27,1.97,24.11,10.83,20.17c8.86-3.94-0.98-16.24,7.87-20.67c8.86-4.43,3.94,6.4,13.29,2.95
							C272.69-69.93,274.16-84.2,263.83-91.58z"/>
						<path class="st17" d="M263.27-90.92c0,0-16.06-11.63-22.67-1.39c-6.61,10.23-2.36,9.3-8.5,22.79
							c-6.14,13.49,1.89,22.79,10.39,19.07c8.5-3.72-0.94-15.35,7.56-19.53c8.5-4.18,3.78,6.04,12.75,2.79
							C271.77-70.45,273.18-83.94,263.27-90.92z"/>
						<path class="st18" d="M262.71-90.25c0,0-15.38-10.95-21.72-1.31c-6.33,9.63-2.26,8.76-8.14,21.46
							c-5.88,12.7,1.81,21.46,9.95,17.96c8.14-3.51-0.91-14.46,7.24-18.4c8.14-3.94,3.62,5.69,12.21,2.63
							C270.85-70.98,272.21-83.68,262.71-90.25z"/>
						<path class="st19" d="M262.14-89.58c0,0-14.71-10.27-20.76-1.23c-6.05,9.04-2.16,8.22-7.79,20.14
							c-5.62,11.92,1.73,20.14,9.52,16.85c7.79-3.29-0.87-13.56,6.92-17.26c7.79-3.7,3.46,5.34,11.68,2.46
							C269.93-71.5,271.23-83.42,262.14-89.58z"/>
						<path class="st20" d="M261.58-88.92c0,0-14.03-9.6-19.81-1.15c-5.78,8.45-2.06,7.68-7.43,18.81
							c-5.37,11.13,1.65,18.81,9.08,15.74c7.43-3.07-0.83-12.67,6.6-16.13c7.43-3.46,3.3,4.99,11.14,2.3
							C269.01-72.02,270.25-83.16,261.58-88.92z"/>
						<path class="st41" d="M261.02-88.25c0,0-13.36-8.92-18.86-1.07c-5.5,7.85-1.96,7.14-7.07,17.49
							c-5.11,10.35,1.57,17.49,8.64,14.63c7.07-2.86-0.79-11.78,6.29-14.99c7.07-3.21,3.14,4.64,10.61,2.14
							C268.09-72.55,269.27-82.9,261.02-88.25z"/>
						<path class="st22" d="M260.46-87.58c0,0-12.68-8.25-17.91-0.99c-5.22,7.26-1.87,6.6-6.71,16.16
							c-4.85,9.56,1.49,16.16,8.21,13.52c6.71-2.64-0.75-10.88,5.97-13.85c6.72-2.97,2.99,4.29,10.07,1.98
							C267.17-73.07,268.29-82.64,260.46-87.58z"/>
						<path class="st23" d="M259.89-86.92c0,0-12.01-7.57-16.96-0.91c-4.94,6.66-1.77,6.06-6.36,14.84
							c-4.59,8.78,1.41,14.84,7.77,12.41c6.36-2.42-0.71-9.99,5.65-12.72c6.36-2.73,2.83,3.94,9.54,1.82
							C266.25-73.59,267.31-82.37,259.89-86.92z"/>
						<path class="st24" d="M259.33-86.25c0,0-11.34-6.89-16-0.83c-4.67,6.07-1.67,5.52-6,13.52c-4.33,8,1.33,13.51,7.33,11.31
							c6-2.21-0.67-9.1,5.33-11.58c6-2.48,2.67,3.58,9,1.65C265.33-74.12,266.33-82.11,259.33-86.25z"/>
						<path class="st25" d="M258.77-85.58c0,0-10.66-6.22-15.05-0.75c-4.39,5.47-1.57,4.97-5.64,12.19
							c-4.08,7.21,1.25,12.19,6.9,10.2c5.64-1.99-0.63-8.21,5.02-10.45c5.64-2.24,2.51,3.23,8.47,1.49
							C264.41-74.64,265.35-81.85,258.77-85.58z"/>
						<path class="st26" d="M258.21-84.92c0,0-9.99-5.54-14.1-0.67c-4.11,4.88-1.47,4.44-5.29,10.87
							c-3.82,6.43,1.17,10.86,6.46,9.09c5.29-1.77-0.59-7.32,4.7-9.31c5.29-2,2.35,2.88,7.93,1.33
							C263.49-75.16,264.37-81.59,258.21-84.92z"/>
						<path class="st27" d="M257.64-84.25c0,0-9.31-4.87-13.14-0.58c-3.83,4.29-1.37,3.89-4.93,9.54c-3.56,5.64,1.09,9.54,6.02,7.98
							c4.93-1.56-0.55-6.43,4.38-8.18c4.93-1.75,2.19,2.53,7.39,1.17C262.57-75.68,263.39-81.33,257.64-84.25z"/>
						<path class="st28" d="M257.08-83.58c0,0-8.64-4.19-12.19-0.5c-3.56,3.69-1.27,3.35-4.57,8.22c-3.3,4.86,1.02,8.21,5.59,6.87
							c4.57-1.34-0.51-5.53,4.06-7.04c4.57-1.51,2.03,2.18,6.86,1.01C261.65-76.21,262.41-81.07,257.08-83.58z"/>
						<path class="st15" d="M256.52-82.92c0,0-7.96-3.51-11.24-0.42c-3.28,3.09-1.17,2.81-4.21,6.89c-3.04,4.08,0.94,6.89,5.15,5.76
							c4.21-1.13-0.47-4.64,3.75-5.9c4.22-1.27,1.87,1.83,6.32,0.84C260.73-76.73,261.43-80.81,256.52-82.92z"/>
					</g>
					<g>
						<path class="st30" d="M256.07-35.85c0,0,6.2,4.43,1.33,7.97c-4.87,3.54,4.43,11.51-3.54,11.07
							c-7.97-0.44-14.62,3.54-16.39-3.99c-1.77-7.53-0.44-18.16,1.77-20.37C241.46-43.38,248.98-48.25,256.07-35.85z"/>
						<path class="st42" d="M255.63-35.53c0,0,5.89,4.21,1.26,7.57c-4.62,3.37,4.2,10.94-3.36,10.52
							c-7.57-0.42-13.88,3.37-15.56-3.79c-1.68-7.15-0.42-17.25,1.68-19.36C241.76-42.68,248.9-47.31,255.63-35.53z"/>
						<path class="st43" d="M255.19-35.21c0,0,5.57,3.99,1.19,7.18c-4.38,3.19,3.98,10.37-3.18,9.97
							c-7.16-0.4-13.13,3.19-14.73-3.59c-1.59-6.78-0.4-16.35,1.59-18.34C242.06-41.98,248.82-46.37,255.19-35.21z"/>
						<path class="st44" d="M254.75-34.88c0,0,5.26,3.77,1.13,6.78c-4.13,3.01,3.75,9.79-3,9.41c-6.76-0.38-12.39,3.01-13.89-3.39
							c-1.5-6.4-0.38-15.44,1.5-17.32C242.36-41.29,248.74-45.43,254.75-34.88z"/>
						<path class="st45" d="M254.31-34.56c0,0,4.94,3.54,1.06,6.38c-3.88,2.84,3.53,9.21-2.82,8.86
							c-6.35-0.35-11.65,2.84-13.06-3.19c-1.41-6.02-0.35-14.54,1.41-16.31C242.66-40.59,248.66-44.49,254.31-34.56z"/>
						<path class="st46" d="M253.87-34.24c0,0,4.63,3.32,0.99,5.98c-3.63,2.66,3.3,8.64-2.64,8.31c-5.95-0.33-10.91,2.66-12.23-2.99
							c-1.32-5.65-0.33-13.63,1.32-15.29C242.96-39.89,248.58-43.55,253.87-34.24z"/>
						<path class="st47" d="M253.43-33.92c0,0,4.31,3.11,0.92,5.59c-3.39,2.48,3.08,8.07-2.46,7.76c-5.54-0.31-10.17,2.48-11.4-2.79
							c-1.23-5.27-0.31-12.72,1.23-14.28C243.26-39.19,248.5-42.61,253.43-33.92z"/>
						<path class="st48" d="M252.99-33.6c0,0,4,2.88,0.86,5.19c-3.14,2.31,2.85,7.49-2.28,7.21c-5.14-0.29-9.43,2.31-10.57-2.59
							c-1.14-4.9-0.29-11.82,1.14-13.26C243.56-38.5,248.42-41.67,252.99-33.6z"/>
						<path class="st49" d="M252.55-33.27c0,0,3.68,2.66,0.79,4.79c-2.89,2.13,2.63,6.92-2.1,6.65c-4.74-0.27-8.69,2.13-9.74-2.4
							c-1.05-4.52-0.26-10.92,1.05-12.25C243.86-37.8,248.34-40.73,252.55-33.27z"/>
						<path class="st50" d="M252.11-32.95c0,0,3.37,2.44,0.72,4.39c-2.65,1.95,2.41,6.35-1.92,6.1c-4.33-0.24-7.94,1.96-8.91-2.2
							c-0.96-4.15-0.24-10.01,0.96-11.23C244.17-37.1,248.26-39.79,252.11-32.95z"/>
						<path class="st51" d="M251.67-32.63c0,0,3.05,2.22,0.65,4c-2.4,1.78,2.18,5.77-1.75,5.55c-3.93-0.22-7.2,1.78-8.07-2
							c-0.87-3.77-0.22-9.11,0.87-10.21C244.47-36.41,248.18-38.85,251.67-32.63z"/>
						<path class="st52" d="M251.23-32.31c0,0,2.74,2,0.59,3.6c-2.15,1.6,1.96,5.2-1.57,5c-3.52-0.2-6.46,1.6-7.24-1.8
							c-0.78-3.4-0.19-8.2,0.78-9.2C244.77-35.71,248.09-37.91,251.23-32.31z"/>
						<path class="st28" d="M250.79-31.99c0,0,2.43,1.78,0.52,3.2c-1.9,1.42,1.73,4.62-1.38,4.45c-3.12-0.18-5.72,1.42-6.41-1.6
							c-0.69-3.02-0.17-7.29,0.69-8.18C245.07-35.01,248.01-36.97,250.79-31.99z"/>
						<path class="st15" d="M250.35-31.67c0,0,2.11,1.56,0.45,2.8c-1.66,1.25,1.51,4.05-1.21,3.89c-2.71-0.16-4.98,1.25-5.58-1.4
							c-0.6-2.65-0.15-6.39,0.6-7.17C245.37-34.32,247.93-36.03,250.35-31.67z"/>
					</g>
				</g>
			</g>
		</g>
		<g>
			<rect y="-138.11" class="st53" width="125.64" height="124.41"/>
			<g>
				<path class="st1" d="M110.03-97.58c0,0-10.83-1.48-7.38-7.88c3.44-6.4,9.35-2.95,13.28-17.22c3.94-14.27,8.37-15.75,15.75-8.86
					c7.38,6.89,25.59,1.97,19.19,15.25c-6.4,13.29-6.89,11.81-15.75,13.78C126.26-100.54,114.95-104.48,110.03-97.58z"/>
				<g>
					<g>
						<path class="st29" d="M108.73-98.02c0,0-10.83-1.48-7.38-7.87c3.44-6.4,9.35-2.95,13.28-17.22
							c3.94-14.27,8.37-15.75,15.75-8.86c7.38,6.89,25.59,1.97,19.19,15.25c-6.4,13.29-6.89,11.81-15.75,13.78
							C124.97-100.97,113.65-104.91,108.73-98.02z"/>
						<path class="st30" d="M109.68-99.11c0,0-10.21-1.4-6.96-7.43c3.25-6.04,8.82-2.79,12.53-16.26
							c3.71-13.47,7.89-14.86,14.85-8.36c6.96,6.5,24.13,1.86,18.09,14.4c-6.03,12.54-6.5,11.15-14.85,13.01
							C124.99-101.9,114.32-105.62,109.68-99.11z"/>
						<path class="st31" d="M110.64-100.21c0,0-9.59-1.31-6.54-6.99c3.05-5.68,8.28-2.62,11.77-15.29
							c3.49-12.67,7.41-13.98,13.95-7.86c6.54,6.12,22.67,1.75,17,13.54c-5.67,11.8-6.1,10.49-13.95,12.23
							C125.02-102.83,115-106.33,110.64-100.21z"/>
						<path class="st32" d="M111.6-101.31c0,0-8.97-1.23-6.12-6.55c2.85-5.32,7.75-2.46,11.01-14.32
							c3.26-11.87,6.93-13.1,13.05-7.37c6.12,5.73,21.21,1.64,15.9,12.69c-5.3,11.05-5.71,9.82-13.05,11.46
							C125.05-103.76,115.67-107.04,111.6-101.31z"/>
						<path class="st33" d="M112.55-102.4c0,0-8.35-1.15-5.7-6.11c2.66-4.96,7.21-2.29,10.25-13.36
							c3.04-11.07,6.46-12.21,12.15-6.87c5.7,5.35,19.75,1.53,14.81,11.83c-4.94,10.31-5.32,9.16-12.15,10.69
							C125.08-104.69,116.35-107.75,112.55-102.4z"/>
						<path class="st34" d="M113.51-103.5c0,0-7.74-1.06-5.28-5.67c2.46-4.6,6.68-2.13,9.49-12.39c2.81-10.27,5.98-11.33,11.25-6.37
							c5.27,4.96,18.29,1.42,13.71,10.97c-4.57,9.56-4.92,8.5-11.25,9.92C125.11-105.63,117.02-108.46,113.51-103.5z"/>
						<path class="st35" d="M114.46-104.6c0,0-7.12-0.98-4.85-5.22c2.26-4.25,6.15-1.96,8.74-11.43c2.59-9.47,5.5-10.45,10.36-5.88
							c4.85,4.57,16.83,1.31,12.62,10.12c-4.21,8.82-4.53,7.84-10.35,9.14C125.14-106.56,117.7-109.17,114.46-104.6z"/>
						<path class="st36" d="M115.42-105.69c0,0-6.5-0.9-4.43-4.78c2.07-3.89,5.61-1.79,7.98-10.46c2.37-8.67,5.02-9.56,9.46-5.38
							c4.43,4.19,15.36,1.2,11.52,9.26c-3.84,8.07-4.14,7.17-9.46,8.37C125.17-107.49,118.37-109.88,115.42-105.69z"/>
						<path class="st37" d="M116.37-106.79c0,0-5.88-0.81-4.01-4.34c1.87-3.53,5.08-1.63,7.22-9.5c2.14-7.87,4.55-8.68,8.56-4.88
							c4.01,3.8,13.9,1.09,10.43,8.41c-3.48,7.33-3.74,6.51-8.56,7.6C125.19-108.42,119.04-110.59,116.37-106.79z"/>
						<path class="st38" d="M117.33-107.89c0,0-5.27-0.73-3.59-3.9c1.67-3.17,4.55-1.46,6.46-8.53c1.92-7.07,4.07-7.8,7.66-4.39
							c3.59,3.41,12.44,0.98,9.33,7.55c-3.11,6.58-3.35,5.85-7.66,6.83C125.22-109.35,119.72-111.3,117.33-107.89z"/>
						<path class="st39" d="M118.28-108.98c0,0-4.65-0.65-3.17-3.46c1.48-2.81,4.01-1.29,5.7-7.56c1.69-6.27,3.59-6.92,6.76-3.89
							c3.17,3.03,10.98,0.87,8.24,6.7c-2.75,5.84-2.96,5.19-6.76,6.05C125.25-110.28,120.39-112.01,118.28-108.98z"/>
						<path class="st40" d="M119.24-110.08c0,0-4.03-0.56-2.75-3.02c1.28-2.45,3.48-1.13,4.94-6.6c1.47-5.47,3.11-6.03,5.86-3.39
							c2.75,2.64,9.52,0.76,7.14,5.84c-2.38,5.09-2.56,4.53-5.86,5.28S121.07-112.72,119.24-110.08z"/>
						<path class="st14" d="M120.19-111.18c0,0-3.41-0.48-2.33-2.57c1.09-2.09,2.95-0.97,4.19-5.63c1.24-4.67,2.64-5.15,4.96-2.9
							c2.33,2.25,8.06,0.64,6.05,4.99c-2.02,4.35-2.17,3.86-4.96,4.51C125.31-112.14,121.74-113.43,120.19-111.18z"/>
						<path class="st15" d="M121.15-112.27c0,0-2.79-0.4-1.91-2.13c0.89-1.73,2.41-0.8,3.43-4.67c1.02-3.87,2.16-4.27,4.06-2.4
							c1.9,1.87,6.6,0.54,4.95,4.13c-1.65,3.6-1.78,3.2-4.06,3.73C125.34-113.07,122.42-114.14,121.15-112.27z"/>
					</g>
					<path class="st1" d="M140.71-91.15c0,0-16.73-12.3-23.62-1.48c-6.89,10.83-2.46,9.84-8.86,24.11
						c-6.4,14.27,1.97,24.11,10.83,20.17c8.86-3.94-0.98-16.24,7.87-20.67c8.86-4.43,3.94,6.4,13.29,2.95
						C149.57-69.5,151.04-83.77,140.71-91.15z"/>
					<path class="st1" d="M132.95-35.42c0,0,6.2,4.43,1.33,7.97c-4.87,3.54,4.43,11.51-3.54,11.07c-7.97-0.44-14.62,3.54-16.39-3.98
						c-1.77-7.53-0.44-18.16,1.77-20.37C118.34-42.95,125.86-47.82,132.95-35.42z"/>
					<g>
						<path class="st16" d="M139.41-91.58c0,0-16.73-12.3-23.62-1.48c-6.89,10.82-2.46,9.84-8.86,24.11
							c-6.4,14.27,1.97,24.11,10.83,20.17c8.86-3.94-0.98-16.24,7.87-20.67c8.86-4.43,3.94,6.4,13.29,2.95
							C148.27-69.93,149.75-84.2,139.41-91.58z"/>
						<path class="st17" d="M138.85-90.92c0,0-16.06-11.63-22.67-1.39c-6.61,10.23-2.36,9.3-8.5,22.79
							c-6.14,13.49,1.89,22.79,10.39,19.07c8.5-3.72-0.94-15.35,7.56-19.53c8.5-4.18,3.78,6.04,12.75,2.79
							C147.35-70.45,148.77-83.94,138.85-90.92z"/>
						<path class="st18" d="M138.29-90.25c0,0-15.38-10.95-21.72-1.31c-6.33,9.63-2.26,8.76-8.14,21.46
							c-5.88,12.7,1.81,21.46,9.95,17.96c8.14-3.51-0.91-14.46,7.24-18.4c8.14-3.94,3.62,5.69,12.21,2.63
							C146.43-70.98,147.79-83.68,138.29-90.25z"/>
						<path class="st19" d="M137.73-89.58c0,0-14.71-10.27-20.76-1.23c-6.05,9.04-2.16,8.22-7.79,20.14
							c-5.62,11.92,1.73,20.14,9.52,16.85c7.79-3.29-0.87-13.56,6.92-17.26c7.79-3.7,3.46,5.34,11.68,2.46
							C145.51-71.5,146.81-83.42,137.73-89.58z"/>
						<path class="st20" d="M137.16-88.92c0,0-14.03-9.6-19.81-1.15c-5.78,8.45-2.06,7.68-7.43,18.81
							c-5.37,11.13,1.65,18.81,9.08,15.74c7.43-3.07-0.83-12.67,6.6-16.13c7.43-3.46,3.3,4.99,11.14,2.3
							C144.59-72.02,145.83-83.16,137.16-88.92z"/>
						<path class="st41" d="M136.6-88.25c0,0-13.36-8.92-18.86-1.07c-5.5,7.85-1.96,7.14-7.07,17.49
							c-5.11,10.35,1.57,17.49,8.64,14.63c7.07-2.86-0.79-11.78,6.29-14.99c7.07-3.21,3.14,4.64,10.61,2.14
							C143.67-72.55,144.85-82.9,136.6-88.25z"/>
						<path class="st22" d="M136.04-87.58c0,0-12.68-8.25-17.91-0.99c-5.22,7.26-1.87,6.6-6.71,16.16
							c-4.85,9.56,1.49,16.16,8.21,13.52c6.71-2.64-0.75-10.88,5.97-13.85c6.72-2.97,2.99,4.29,10.07,1.98
							C142.75-73.07,143.87-82.64,136.04-87.58z"/>
						<path class="st23" d="M135.48-86.92c0,0-12.01-7.57-16.96-0.91c-4.94,6.66-1.77,6.06-6.36,14.84
							c-4.59,8.78,1.41,14.84,7.77,12.41c6.36-2.42-0.71-9.99,5.65-12.72c6.36-2.73,2.83,3.94,9.54,1.82
							C141.83-73.59,142.89-82.37,135.48-86.92z"/>
						<path class="st24" d="M134.91-86.25c0,0-11.33-6.89-16-0.83c-4.67,6.07-1.67,5.52-6,13.52c-4.33,8,1.33,13.51,7.33,11.31
							c6-2.21-0.67-9.1,5.33-11.58c6-2.48,2.67,3.58,9,1.65C140.91-74.12,141.91-82.11,134.91-86.25z"/>
						<path class="st25" d="M134.35-85.58c0,0-10.66-6.22-15.05-0.75c-4.39,5.47-1.57,4.97-5.64,12.19
							c-4.08,7.21,1.25,12.19,6.9,10.2c5.64-1.99-0.63-8.21,5.02-10.45c5.64-2.24,2.51,3.23,8.47,1.49
							C139.99-74.64,140.93-81.85,134.35-85.58z"/>
						<path class="st26" d="M133.79-84.92c0,0-9.99-5.54-14.1-0.67c-4.11,4.88-1.47,4.44-5.29,10.87
							c-3.82,6.43,1.17,10.86,6.46,9.09c5.29-1.77-0.59-7.32,4.7-9.31c5.29-2,2.35,2.88,7.93,1.33
							C139.07-75.16,139.95-81.59,133.79-84.92z"/>
						<path class="st27" d="M133.23-84.25c0,0-9.31-4.87-13.14-0.58c-3.83,4.29-1.37,3.89-4.93,9.54c-3.56,5.64,1.09,9.54,6.02,7.98
							c4.93-1.56-0.55-6.43,4.38-8.18c4.93-1.75,2.19,2.53,7.39,1.17C138.15-75.68,138.98-81.33,133.23-84.25z"/>
						<path class="st28" d="M132.66-83.58c0,0-8.64-4.19-12.19-0.5c-3.56,3.69-1.27,3.35-4.57,8.22c-3.3,4.86,1.02,8.21,5.59,6.87
							c4.57-1.34-0.51-5.53,4.06-7.04c4.57-1.51,2.03,2.18,6.86,1.01C137.23-76.21,138-81.07,132.66-83.58z"/>
						<path class="st15" d="M132.1-82.92c0,0-7.96-3.51-11.24-0.42c-3.28,3.09-1.17,2.81-4.21,6.89c-3.04,4.08,0.94,6.89,5.15,5.76
							c4.21-1.13-0.47-4.64,3.75-5.9c4.22-1.27,1.87,1.83,6.32,0.84C136.31-76.73,137.02-80.81,132.1-82.92z"/>
					</g>
					<g>
						<path class="st30" d="M131.65-35.85c0,0,6.2,4.43,1.33,7.97c-4.87,3.54,4.43,11.51-3.54,11.07
							c-7.97-0.44-14.62,3.54-16.39-3.99c-1.77-7.53-0.44-18.16,1.77-20.37C117.04-43.38,124.57-48.25,131.65-35.85z"/>
						<path class="st42" d="M131.21-35.53c0,0,5.89,4.21,1.26,7.57c-4.62,3.37,4.2,10.94-3.36,10.52
							c-7.57-0.42-13.88,3.37-15.56-3.79c-1.68-7.15-0.42-17.25,1.68-19.36C117.34-42.68,124.48-47.31,131.21-35.53z"/>
						<path class="st43" d="M130.77-35.21c0,0,5.57,3.99,1.19,7.18c-4.38,3.19,3.98,10.37-3.18,9.97
							c-7.16-0.4-13.13,3.19-14.73-3.59c-1.59-6.78-0.4-16.35,1.59-18.34C117.64-41.98,124.4-46.37,130.77-35.21z"/>
						<path class="st44" d="M130.33-34.88c0,0,5.26,3.77,1.13,6.78c-4.13,3.01,3.75,9.79-3,9.41c-6.76-0.38-12.39,3.01-13.89-3.39
							c-1.5-6.4-0.38-15.44,1.5-17.32C117.94-41.29,124.32-45.43,130.33-34.88z"/>
						<path class="st45" d="M129.89-34.56c0,0,4.94,3.54,1.06,6.38c-3.88,2.84,3.53,9.21-2.82,8.86
							c-6.35-0.35-11.65,2.84-13.06-3.19c-1.41-6.02-0.35-14.54,1.41-16.31C118.24-40.59,124.24-44.49,129.89-34.56z"/>
						<path class="st46" d="M129.45-34.24c0,0,4.63,3.32,0.99,5.98c-3.63,2.66,3.3,8.64-2.64,8.31c-5.95-0.33-10.91,2.66-12.23-2.99
							c-1.32-5.65-0.33-13.63,1.32-15.29C118.54-39.89,124.16-43.55,129.45-34.24z"/>
						<path class="st47" d="M129.01-33.92c0,0,4.31,3.11,0.92,5.59c-3.39,2.48,3.08,8.07-2.46,7.76c-5.54-0.31-10.17,2.48-11.4-2.79
							c-1.23-5.27-0.31-12.72,1.23-14.28C118.85-39.19,124.08-42.61,129.01-33.92z"/>
						<path class="st48" d="M128.57-33.6c0,0,4,2.88,0.86,5.19c-3.14,2.31,2.85,7.49-2.28,7.21c-5.14-0.29-9.43,2.31-10.57-2.59
							c-1.14-4.9-0.29-11.82,1.14-13.26C119.15-38.5,124-41.67,128.57-33.6z"/>
						<path class="st49" d="M128.13-33.27c0,0,3.68,2.66,0.79,4.79c-2.89,2.13,2.63,6.92-2.1,6.65c-4.74-0.27-8.69,2.13-9.74-2.4
							c-1.05-4.52-0.26-10.92,1.05-12.25C119.45-37.8,123.92-40.73,128.13-33.27z"/>
						<path class="st50" d="M127.69-32.95c0,0,3.37,2.44,0.72,4.39c-2.65,1.95,2.41,6.35-1.92,6.1c-4.33-0.24-7.94,1.96-8.91-2.2
							c-0.96-4.15-0.24-10.01,0.96-11.23C119.75-37.1,123.84-39.79,127.69-32.95z"/>
						<path class="st51" d="M127.25-32.63c0,0,3.05,2.22,0.65,4c-2.4,1.78,2.18,5.77-1.75,5.55c-3.93-0.22-7.2,1.78-8.07-2
							c-0.87-3.77-0.22-9.11,0.87-10.21C120.05-36.41,123.76-38.85,127.25-32.63z"/>
						<path class="st52" d="M126.81-32.31c0,0,2.74,2,0.59,3.6c-2.15,1.6,1.96,5.2-1.57,5c-3.52-0.2-6.46,1.6-7.24-1.8
							c-0.78-3.4-0.19-8.2,0.78-9.2C120.35-35.71,123.68-37.91,126.81-32.31z"/>
						<path class="st28" d="M126.37-31.99c0,0,2.43,1.78,0.52,3.2c-1.9,1.42,1.73,4.62-1.38,4.45c-3.12-0.18-5.72,1.42-6.41-1.6
							c-0.69-3.02-0.17-7.29,0.69-8.18C120.65-35.01,123.6-36.97,126.37-31.99z"/>
						<path class="st15" d="M125.93-31.67c0,0,2.11,1.56,0.45,2.8c-1.66,1.25,1.51,4.05-1.21,3.89c-2.71-0.16-4.98,1.25-5.58-1.4
							c-0.6-2.65-0.15-6.39,0.6-7.17C120.95-34.32,123.52-36.03,125.93-31.67z"/>
					</g>
				</g>
			</g>
		</g>
		<g>
			<g>
				<path class="st1" d="M150.72-153.56c4.85-1,9.84-3.28,16.95,7.65c7.11,10.94,19.97-1.85,25.44-7.31
					c5.47-5.47,7.11,20.78,7.65,24.6c0.55,3.83-23.69,7.04-33.1,0.21c-6.01-4.37-15.86-9.84-17.5-8.2
					C148.54-134.97,129.4-149.18,150.72-153.56z"/>
				<path class="st1" d="M220.1-158.29c0,0,7.9-1.73,7.36,3.36c-0.54,5.09-5.98,4.64-5.04,8.19c0.95,3.55,0.8,5.87,3.81,10
					c3.01,4.14-7.73,12.33-11.47,6.86C211.03-135.34,198.96-160.62,220.1-158.29z"/>
				<g>
					<path class="st2" d="M149.43-153.99c4.85-1,9.84-3.28,16.95,7.66c7.11,10.94,19.97-1.85,25.44-7.31
						c5.47-5.47,7.11,20.78,7.66,24.6c0.55,3.83-23.7,7.04-33.1,0.21c-6.01-4.38-15.86-9.84-17.5-8.2
						C147.24-135.4,128.1-149.62,149.43-153.99z"/>
					<path class="st3" d="M150.64-152.91c4.6-0.94,9.34-3.09,16.09,7.22c6.75,10.31,18.96-1.74,24.15-6.89
						c5.19-5.15,6.75,19.59,7.27,23.2c0.52,3.61-22.5,6.64-31.42,0.19c-5.71-4.12-15.05-9.28-16.61-7.73
						C148.56-135.38,130.39-148.79,150.64-152.91z"/>
					<path class="st4" d="M151.85-151.83c4.36-0.88,8.85-2.9,15.23,6.78c6.39,9.68,17.95-1.63,22.87-6.47
						c4.92-4.84,6.39,18.39,6.88,21.79c0.49,3.39-21.3,6.23-29.75,0.18c-5.41-3.87-14.25-8.71-15.72-7.26
						C149.88-135.37,132.68-147.96,151.85-151.83z"/>
					<path class="st5" d="M153.06-150.75c4.11-0.83,8.35-2.72,14.38,6.34c6.03,9.06,16.94-1.53,21.58-6.06
						c4.64-4.53,6.03,17.21,6.49,20.38c0.46,3.17-20.1,5.83-28.07,0.17c-5.1-3.62-13.45-8.15-14.84-6.79
						C151.2-135.35,134.97-147.13,153.06-150.75z"/>
					<path class="st6" d="M154.27-149.67c3.87-0.77,7.85-2.53,13.52,5.9c5.67,8.43,15.93-1.42,20.29-5.64
						c4.36-4.21,5.67,16.02,6.11,18.97c0.44,2.95-18.9,5.43-26.4,0.16c-4.8-3.37-12.65-7.59-13.95-6.32
						C152.53-135.34,137.26-146.3,154.27-149.67z"/>
					<path class="st7" d="M155.48-148.59c3.62-0.71,7.35-2.34,12.66,5.46c5.31,7.8,14.92-1.32,19-5.22
						c4.09-3.9,5.31,14.83,5.72,17.56c0.41,2.73-17.7,5.02-24.72,0.15c-4.49-3.12-11.84-7.02-13.07-5.85
						C153.85-135.32,139.55-145.47,155.48-148.59z"/>
					<path class="st8" d="M156.69-147.51c3.38-0.65,6.85-2.15,11.8,5.03c4.95,7.18,13.91-1.21,17.72-4.8
						c3.81-3.59,4.95,13.64,5.33,16.15c0.38,2.51-16.5,4.62-23.05,0.13c-4.19-2.87-11.04-6.46-12.18-5.38
						C155.17-135.31,141.84-144.64,156.69-147.51z"/>
					<path class="st9" d="M157.9-146.43c3.13-0.6,6.35-1.96,10.94,4.59c4.59,6.55,12.9-1.11,16.43-4.38
						c3.53-3.27,4.59,12.45,4.94,14.74c0.35,2.29-15.3,4.22-21.37,0.12c-3.88-2.62-10.24-5.89-11.3-4.91
						C156.49-135.29,144.13-143.81,157.9-146.43z"/>
					<path class="st10" d="M159.11-145.35c2.88-0.54,5.86-1.78,10.09,4.15c4.23,5.92,11.89-1,15.14-3.96
						c3.25-2.96,4.23,11.26,4.56,13.33c0.32,2.07-14.1,3.81-19.7,0.11c-3.58-2.37-9.44-5.33-10.41-4.44
						C157.81-135.28,146.42-142.98,159.11-145.35z"/>
					<path class="st11" d="M160.33-144.27c2.64-0.48,5.36-1.59,9.23,3.71c3.87,5.3,10.88-0.89,13.85-3.54
						c2.98-2.65,3.87,10.06,4.17,11.92c0.3,1.85-12.9,3.41-18.02,0.1c-3.28-2.12-8.63-4.77-9.53-3.97
						C159.13-135.26,148.71-142.15,160.33-144.27z"/>
					<path class="st12" d="M161.54-143.19c2.39-0.43,4.86-1.4,8.37,3.27c3.51,4.67,9.87-0.79,12.57-3.12
						c2.7-2.34,3.51,8.88,3.78,10.51c0.27,1.63-11.71,3.01-16.35,0.09c-2.97-1.87-7.83-4.21-8.64-3.5
						C160.46-135.25,151-141.32,161.54-143.19z"/>
					<path class="st13" d="M162.75-142.11c2.15-0.37,4.36-1.21,7.51,2.83c3.15,4.04,8.85-0.68,11.28-2.71
						c2.42-2.02,3.15,7.69,3.39,9.1c0.24,1.41-10.51,2.6-14.67,0.07c-2.67-1.62-7.03-3.64-7.76-3.03
						C161.78-135.23,153.29-140.49,162.75-142.11z"/>
					<path class="st14" d="M163.96-141.03c1.9-0.31,3.86-1.03,6.66,2.39c2.79,3.42,7.84-0.58,9.99-2.29
						c2.15-1.71,2.79,6.49,3.01,7.69c0.21,1.2-9.31,2.2-13,0.06c-2.36-1.37-6.23-3.08-6.87-2.56
						C163.1-135.21,155.58-139.66,163.96-141.03z"/>
					<path class="st15" d="M165.17-139.95c1.66-0.25,3.37-0.84,5.8,1.96c2.43,2.79,6.83-0.47,8.7-1.87c1.87-1.39,2.43,5.3,2.62,6.28
						c0.19,0.98-8.11,1.8-11.32,0.05c-2.06-1.12-5.42-2.51-5.99-2.09C164.42-135.2,157.87-138.83,165.17-139.95z"/>
				</g>
				<g>
					<path class="st16" d="M218.81-158.72c0,0,7.9-1.73,7.36,3.36c-0.54,5.08-5.98,4.64-5.04,8.18c0.95,3.55,0.81,5.87,3.81,10
						c3.01,4.14-7.73,12.33-11.47,6.86C209.73-135.77,197.66-161.05,218.81-158.72z"/>
					<path class="st17" d="M218.6-158.27c0,0,7.47-1.67,6.96,3.24c-0.51,4.9-5.66,4.47-4.76,7.89c0.9,3.42,0.76,5.65,3.6,9.64
						c2.84,3.99-7.31,11.88-10.85,6.62C210.02-136.15,198.6-160.52,218.6-158.27z"/>
					<path class="st18" d="M218.39-157.83c0,0,7.05-1.61,6.56,3.12c-0.48,4.72-5.33,4.3-4.49,7.6c0.85,3.29,0.72,5.44,3.4,9.29
						c2.68,3.84-6.89,11.44-10.23,6.37C210.3-136.53,199.53-159.99,218.39-157.83z"/>
					<path class="st19" d="M218.19-157.38c0,0,6.62-1.54,6.16,2.99c-0.45,4.54-5.01,4.14-4.22,7.3c0.8,3.16,0.68,5.23,3.19,8.93
						c2.52,3.7-6.47,11-9.61,6.12C210.58-136.9,200.47-159.46,218.19-157.38z"/>
					<path class="st20" d="M217.98-156.93c0,0,6.19-1.48,5.77,2.88c-0.43,4.35-4.69,3.97-3.95,7.01c0.74,3.04,0.63,5.02,2.99,8.57
						c2.36,3.55-6.06,10.56-8.99,5.88C210.87-137.28,201.41-158.93,217.98-156.93z"/>
					<path class="st21" d="M217.77-156.48c0,0,5.76-1.42,5.37,2.76c-0.39,4.17-4.37,3.8-3.67,6.71c0.69,2.91,0.59,4.81,2.78,8.21
						c2.19,3.4-5.64,10.12-8.37,5.63C211.15-137.65,202.34-158.4,217.77-156.48z"/>
					<path class="st22" d="M217.57-156.03c0,0,5.34-1.36,4.97,2.63c-0.37,3.99-4.04,3.64-3.4,6.42c0.64,2.78,0.54,4.6,2.58,7.85
						c2.03,3.25-5.22,9.67-7.75,5.38C211.43-138.03,203.28-157.86,217.57-156.03z"/>
					<path class="st23" d="M217.36-155.59c0,0,4.91-1.29,4.57,2.51c-0.34,3.81-3.72,3.47-3.13,6.13c0.59,2.65,0.5,4.39,2.37,7.49
						c1.87,3.1-4.8,9.23-7.13,5.14C211.72-138.41,204.21-157.33,217.36-155.59z"/>
					<path class="st24" d="M217.15-155.14c0,0,4.48-1.23,4.18,2.39c-0.31,3.62-3.39,3.3-2.86,5.83c0.54,2.53,0.46,4.18,2.16,7.13
						c1.71,2.95-4.39,8.79-6.51,4.89C212-138.78,205.15-156.8,217.15-155.14z"/>
					<path class="st25" d="M216.94-154.69c0,0,4.06-1.17,3.78,2.27c-0.28,3.44-3.07,3.14-2.59,5.54c0.49,2.4,0.42,3.97,1.96,6.77
						c1.54,2.8-3.97,8.35-5.89,4.64C212.28-139.16,206.09-156.27,216.94-154.69z"/>
					<path class="st26" d="M216.74-154.24c0,0,3.63-1.11,3.38,2.15c-0.25,3.26-2.75,2.97-2.31,5.25c0.44,2.27,0.37,3.76,1.75,6.41
						c1.38,2.65-3.55,7.9-5.27,4.4C212.57-139.53,207.02-155.74,216.74-154.24z"/>
					<path class="st27" d="M216.53-153.8c0,0,3.2-1.04,2.98,2.03c-0.22,3.08-2.42,2.8-2.04,4.95c0.38,2.15,0.33,3.55,1.54,6.05
						c1.22,2.51-3.13,7.46-4.65,4.15C212.85-139.91,207.96-155.21,216.53-153.8z"/>
					<path class="st28" d="M216.32-153.35c0,0,2.78-0.98,2.59,1.91c-0.19,2.89-2.1,2.64-1.77,4.66c0.33,2.02,0.28,3.34,1.34,5.7
						c1.06,2.36-2.71,7.02-4.03,3.91C213.14-140.29,208.89-154.68,216.32-153.35z"/>
					<path class="st15" d="M216.12-152.9c0,0,2.35-0.92,2.19,1.79c-0.16,2.71-1.78,2.47-1.5,4.36c0.28,1.89,0.24,3.13,1.13,5.34
						c0.89,2.21-2.3,6.57-3.41,3.66C213.42-140.66,209.83-154.15,216.12-152.9z"/>
				</g>
			</g>
		</g>
	</g>
</pattern>
<g id="animalSock">
	<pattern  id="bodyShape_2_" xlink:href="#Giraffe" patternTransform="matrix(1 0 0 1 193.5835 88.2938)">
	</pattern>
	<path id="bodyShape_1_" class="st65" d="M63.04,166.51l-4.92-63.76c-0.26-3.64,0.25-17.63,0.88-24.38
		c0.51-5.47-2.05-6.36,29.31-7.5c1.3-0.05,2.6-0.02,3.89,0.11c3.12,0.31,12.1,0.07,21.51-10.73c9.99-11.45-5.42-24.1-10.07-27.5
		c-0.93-0.68-1.81-1.41-2.67-2.22c-4.49-4.22-18.65-17.39-27.26-23.81C63.37-0.99,26.37,19.7,22.37,23.75s-15.62,15.82-6,42.99
		C24.71,90.27,5.71,165.7,5.71,165.7L63.04,166.51z"/>
	<g id="mouth_2_">
		<path id="mouth_3_" class="st66" d="M85.18,70.57c-6.04-1.07-21.81-4.54-30.87-13.93c0,0-12.32-16-9.5-2.33
			c2.82,13.67,12.76,23.33,12.76,23.33s11.95-6,29.39-6.67C87.42,70.96,85.63,70.65,85.18,70.57z"/>
		<path id="tongue_1_" class="st67" d="M61.2,74.52c0,0,1.51-5.5-3.55-8.75c-5.06-3.24-7.4-0.59-7.4-0.59
			c0.85,1.67,1.89,3.49,3.15,5.38c1.39,2.1,3.14,3.9,4.42,5.38C59.03,75.41,59.99,75.04,61.2,74.52z"/>
	</g>
	<g id="stitching_1_">
		<g>
			<path class="st68" d="M109.04,37.75c0,0-0.49,0.23-1.33,0.68"/>
			<path class="st69" d="M104.37,40.37c-6.37,4.02-17.1,12.57-18,24.94"/>
			<path class="st68" d="M86.31,67.25c0.01,0.49,0.03,0.99,0.07,1.5"/>
		</g>
	</g>
	<g id="bottomDetails_1_">
		<path id="baseBottom_1_" class="st70" d="M5.67,172.96c7.96,1.6,17.95,2.9,29.46,2.79c10.35-0.1,19.4-1.31,26.79-2.79
			c0.44-0.05,2.16-0.22,3.39-1.73c0.87-1.07,1.4-2.55,1.4-4.19v-23.57c0-3.16-2.07-5.71-4.62-5.71c-7.09,1.64-16.35,3.07-27.21,2.97
			c-9.87-0.09-18.36-1.43-25.03-2.97c-0.46,0.04-1.96,0.17-3.17,1.43c-0.86,0.89-1.48,2.15-1.68,3.61l-3.43,24.14
			C1.12,170.07,3.08,172.96,5.67,172.96z"/>
		<path id="bottomLine_1_" class="st71" d="M3.12,146.17c7.53,2.26,18.44,4.68,31.76,4.75c13.03,0.07,23.77-2.13,31.24-4.25"/>
		<path id="topLine_1_" class="st72" d="M1.56,160.75c7.71,2.26,18.9,4.68,32.54,4.75c13.35,0.07,24.35-2.13,32.02-4.25"/>
		<path id="covering_lines_1_" class="st73" d="M5.67,172.96c7.96,1.6,17.95,2.9,29.46,2.79c10.35-0.1,19.4-1.31,26.79-2.79
			c0.44-0.05,2.16-0.22,3.39-1.73c0.87-1.07,1.4-2.55,1.4-4.19v-23.57c0-3.16-2.07-5.71-4.62-5.71c-7.09,1.64-16.35,3.07-27.21,2.97
			c-9.87-0.09-18.36-1.43-25.03-2.97c-0.46,0.04-1.96,0.17-3.17,1.43c-0.86,0.89-1.48,2.15-1.68,3.61l-3.43,24.14
			C1.12,170.07,3.08,172.96,5.67,172.96z"/>
		<path id="shadow_3_" class="st74" d="M66.7,143.21v23.58c0,1.63-0.46,3.11-1.21,4.18c-1.05,1.52-2.54,1.69-2.92,1.74
			c-4.54,1.06-9.81,1.97-15.7,2.44c3.65-14.77,2.6-27.8,1.41-35.06c5.54-0.51,10.39-1.5,14.43-2.59
			C64.92,137.5,66.7,140.06,66.7,143.21z"/>
	</g>
	<g id="eyes_1_">
		<g id="leftEye_1_">
			<ellipse class="st75" cx="75.12" cy="12" rx="13" ry="11"/>
			<ellipse cx="79.87" cy="15.87" rx="7.25" ry="6.13"/>
		</g>
		<g id="rightEye_1_">
			<ellipse class="st75" cx="97.12" cy="20.75" rx="13" ry="11"/>
			<ellipse cx="92.62" cy="17.62" rx="7.25" ry="6.13"/>
		</g>
	</g>
</g>
</svg>
