<?xml version="1.0" encoding="utf-8"?>
<!-- Generator: Adobe Illustrator 23.0.2, SVG Export Plug-In . SVG Version: 6.00 Build 0)  -->
<svg version="1.1" id="Layer_1" xmlns="http://www.w3.org/2000/svg" xmlns:xlink="http://www.w3.org/1999/xlink" x="0px" y="0px"
	 viewBox="0 0 88.09 56.53" style="enable-background:new 0 0 88.09 56.53;" xml:space="preserve">
<style type="text/css">
	.st0{fill:#C000FF;stroke:#000000;stroke-miterlimit:10;}
	.st1{opacity:0.3;fill:#401E5E;}
</style>
<g id="hair_2_">
	<path id="hair_3_" class="st0" d="M57.44,44.32c0,0,5.71-35.84,30.45-30.45c0,0-21.2-9.2-34.2,9.83c0,0-0.26-14.75,13.96-23.1
		c0,0-14.8-2.96-22.98,21.96c0,0-7.52-13.45-25.28-9.96c0,0,18.4,6.66,17.76,19.03c0,0-24.95-10.47-36.79,1.27
		c0,0,7.72-6.66,36.43,8.06c0,0-14.23-7.43-21.21,14.14c0,0,15.54-12.37,29.18-4.44L57.44,44.32z"/>
	<path id="shadow_2_" class="st1" d="M87.57,13.56c-24.73-5.4-30.45,30.45-30.45,30.45l-12.68,6.34c-1.04-0.6-2.07-1.08-3.12-1.47
		c5.09-12.5,10.6-22.37,15.81-30.04C70.1,5.98,87.57,13.56,87.57,13.56z"/>
</g>
</svg>
