<?xml version="1.0" encoding="utf-8"?>
<!-- Generator: Adobe Illustrator 23.0.2, SVG Export Plug-In . SVG Version: 6.00 Build 0)  -->
<svg version="1.1" id="Layer_1" xmlns="http://www.w3.org/2000/svg" xmlns:xlink="http://www.w3.org/1999/xlink" x="0px" y="0px"
	 viewBox="0 0 60.55 59.78" style="enable-background:new 0 0 60.55 59.78;" xml:space="preserve">
<style type="text/css">
	.st0{fill:#00AEEF;stroke:#000000;stroke-miterlimit:10;}
	.st1{fill:#EFE3D8;stroke:#000000;stroke-miterlimit:10;}
</style>
<g id="dapper">
	<g id="bowtie_1_">
		<path class="st0" d="M52.37,58.81c0,0-8.28-4.07-11.67-6.66c-4.65-3.56-7.06-9.38-7.06-9.38l1.81-9.6c0,0,4.85-3.64,11.87-5.28
			c5.11-1.19,11.87-1.04,11.87-1.04s1.76,9.84,0.28,16.26C57.48,51.68,52.37,58.81,52.37,58.81z"/>
		<path class="st0" d="M10.3,59.13c0,0,7.89-4.79,11.03-7.67c4.31-3.96,6.76-11.22,6.76-11.22l-2.28-7.29c0,0-6.08-4.05-13.21-5.06
			c-5.19-0.74-11.91,0.01-11.91,0.01s-0.88,9.96,1.16,16.22C4.58,52.48,10.3,59.13,10.3,59.13z"/>
		<path class="st0" d="M26.1,32.86c0.76-0.56,2.48-0.58,4.25-0.59c2.33-0.02,3.77-0.12,4.58,0.7c0.78,0.79,0.93,1.59,0.93,4.54
			c0,3.75-0.19,4.76-1.56,5.28c-0.65,0.25-3.7,0.47-3.7,0.47s-1.67-0.11-2.51-0.26c-2.63-0.47-2.68-2-2.71-5.07
			C25.37,36.01,25.1,33.6,26.1,32.86z"/>
		<path class="st1" d="M30.61,43.51l-0.02,0c-0.07,0-1.69-0.11-2.54-0.26c-2.87-0.51-2.88-2.32-2.91-5.31
			c0-0.32-0.01-0.65-0.02-0.98c-0.05-1.77-0.1-3.6,0.83-4.29c0.83-0.61,2.56-0.62,4.39-0.64c0.2,0,0.39,0,0.58-0.01
			c0.33,0,0.65-0.01,0.94-0.01c1.34,0,2.51,0.06,3.23,0.79c0.87,0.88,1,1.85,1,4.71c0,3.59-0.14,4.91-1.72,5.51
			c-0.66,0.25-3.45,0.47-3.77,0.49L30.61,43.51z M31.87,32.5c-0.29,0-0.6,0-0.94,0.01c-0.19,0-0.38,0-0.58,0.01
			c-1.68,0.01-3.41,0.03-4.11,0.54c-0.73,0.54-0.68,2.32-0.64,3.89c0.01,0.34,0.02,0.67,0.02,0.99c0.02,3.26,0.15,4.42,2.51,4.84
			c0.78,0.14,2.29,0.24,2.47,0.26c0.85-0.06,3.11-0.27,3.61-0.46c1.18-0.45,1.41-1.25,1.41-5.06c0-2.91-0.15-3.64-0.86-4.37
			C34.23,32.6,33.33,32.5,31.87,32.5z"/>
	</g>
	<g id="mustache_1_">
		<path d="M29.56,1.61c0,0-0.65-1.92-5.64-1.48C15,0.92,8.35,8.94,5.34,8.65C2.98,8.41,1.76,4.43,1.76,4.43s0.93,9.61,4.59,12.09
			c4.14,2.81,9.95,2.26,14.68,0.58c4.73-1.67,8.64-3.53,9.7-7.98C31.8,4.68,29.56,1.61,29.56,1.61z"/>
		<path d="M30.95,1.6c0,0,0.62-1.93,5.62-1.56c8.94,0.67,15.69,8.6,18.7,8.26c2.36-0.27,3.53-3.9,3.53-3.9s-0.8,9.26-4.43,11.79
			c-4.11,2.86-9.92,2.39-14.67,0.78c-4.75-1.61-8.68-3.41-9.81-7.84C28.76,4.7,30.95,1.6,30.95,1.6z"/>
	</g>
</g>
</svg>
