<?xml version="1.0" encoding="utf-8"?>
<!-- Generator: Adobe Illustrator 23.0.2, SVG Export Plug-In . SVG Version: 6.00 Build 0)  -->
<svg version="1.1" id="Layer_1" xmlns="http://www.w3.org/2000/svg" xmlns:xlink="http://www.w3.org/1999/xlink" x="0px" y="0px"
	 viewBox="0 0 118.51 177.26" style="enable-background:new 0 0 118.51 177.26;" xml:space="preserve">
<style type="text/css">
	.st0{fill:#FFFFFF;stroke:#000000;stroke-width:3;stroke-miterlimit:10;}
	.st1{fill:#FF9F9F;stroke:#000000;stroke-width:3;stroke-miterlimit:10;}
	.st2{fill:#FF6464;}
	.st3{fill:none;stroke:#000000;stroke-width:1.5;stroke-linecap:round;stroke-miterlimit:10;}
	.st4{fill:none;stroke:#000000;stroke-width:1.5;stroke-linecap:round;stroke-miterlimit:10;stroke-dasharray:2.8991,3.8654;}
	.st5{fill:none;stroke:#FF9F9F;stroke-width:4;stroke-miterlimit:10;}
	.st6{fill:none;stroke:#FF9F9F;stroke-width:9;stroke-miterlimit:10;}
	.st7{fill:none;stroke:#000000;stroke-width:3;stroke-miterlimit:10;}
	.st8{opacity:0.2;fill:#3F3F3F;}
	.st9{fill:#FFFFFF;stroke:#000000;stroke-width:2;stroke-miterlimit:10;}
</style>
<path id="bodyShape" class="st0" d="M63.04,166.51l-4.92-63.76c-0.26-3.64,0.25-17.63,0.88-24.38c0.51-5.47-2.05-6.36,29.31-7.5
	c1.3-0.05,2.6-0.02,3.89,0.11c3.12,0.31,12.1,0.07,21.51-10.73c9.99-11.45-5.42-24.1-10.07-27.5c-0.93-0.68-1.81-1.41-2.67-2.22
	c-4.49-4.22-18.65-17.39-27.26-23.81C63.37-0.99,26.37,19.7,22.37,23.75s-15.62,15.82-6,42.99C24.71,90.27,5.71,165.7,5.71,165.7
	L63.04,166.51z"/>
<g id="mouth_1_">
	<path id="mouth" class="st1" d="M85.18,70.57c-6.04-1.07-21.81-4.54-30.87-13.93c0,0-12.32-16-9.5-2.33
		c2.82,13.67,12.76,23.33,12.76,23.33s11.95-6,29.39-6.67C87.42,70.96,85.63,70.65,85.18,70.57z"/>
	<path id="tongue" class="st2" d="M61.2,74.52c0,0,1.51-5.5-3.55-8.75c-5.06-3.24-7.4-0.59-7.4-0.59c0.85,1.67,1.89,3.49,3.15,5.38
		c1.39,2.1,3.14,3.9,4.42,5.38C59.03,75.41,59.99,75.04,61.2,74.52z"/>
</g>
<g id="stitching">
	<g>
		<path class="st3" d="M109.04,37.75c0,0-0.49,0.23-1.33,0.68"/>
		<path class="st4" d="M104.37,40.37c-6.37,4.02-17.1,12.57-18,24.94"/>
		<path class="st3" d="M86.31,67.25c0.01,0.49,0.03,0.99,0.07,1.5"/>
	</g>
</g>
<g id="bottomDetails">
	<path id="baseBottom" class="st0" d="M5.67,172.96c7.96,1.6,17.95,2.9,29.46,2.79c10.35-0.1,19.4-1.31,26.79-2.79
		c0.44-0.05,2.16-0.22,3.39-1.73c0.87-1.07,1.4-2.55,1.4-4.19v-23.57c0-3.16-2.07-5.71-4.62-5.71c-7.09,1.64-16.35,3.07-27.21,2.97
		c-9.87-0.09-18.36-1.43-25.03-2.97c-0.46,0.04-1.96,0.17-3.17,1.43c-0.86,0.89-1.48,2.15-1.68,3.61l-3.43,24.14
		C1.12,170.07,3.08,172.96,5.67,172.96z"/>
	<path id="bottomLine" class="st5" d="M3.12,146.17c7.53,2.26,18.44,4.68,31.76,4.75c13.03,0.07,23.77-2.13,31.24-4.25"/>
	<path id="topLine" class="st6" d="M1.56,160.75c7.71,2.26,18.9,4.68,32.54,4.75c13.35,0.07,24.35-2.13,32.02-4.25"/>
	<path id="covering_lines" class="st7" d="M5.67,172.96c7.96,1.6,17.95,2.9,29.46,2.79c10.35-0.1,19.4-1.31,26.79-2.79
		c0.44-0.05,2.16-0.22,3.39-1.73c0.87-1.07,1.4-2.55,1.4-4.19v-23.57c0-3.16-2.07-5.71-4.62-5.71c-7.09,1.64-16.35,3.07-27.21,2.97
		c-9.87-0.09-18.36-1.43-25.03-2.97c-0.46,0.04-1.96,0.17-3.17,1.43c-0.86,0.89-1.48,2.15-1.68,3.61l-3.43,24.14
		C1.12,170.07,3.08,172.96,5.67,172.96z"/>
	<path id="shadow" class="st8" d="M66.7,143.21v23.58c0,1.63-0.46,3.11-1.21,4.18c-1.05,1.52-2.54,1.69-2.92,1.74
		c-4.54,1.06-9.81,1.97-15.7,2.44c3.65-14.77,2.6-27.8,1.41-35.06c5.54-0.51,10.39-1.5,14.43-2.59
		C64.92,137.5,66.7,140.06,66.7,143.21z"/>
</g>
<g id="eyes">
	<g id="leftEye">
		<ellipse class="st9" cx="75.12" cy="12" rx="13" ry="11"/>
		<ellipse cx="79.87" cy="15.87" rx="7.25" ry="6.13"/>
	</g>
	<g id="rightEye">
		<ellipse class="st9" cx="97.12" cy="20.75" rx="13" ry="11"/>
		<ellipse cx="92.62" cy="17.62" rx="7.25" ry="6.13"/>
	</g>
</g>
</svg>
