<?xml version="1.0" encoding="utf-8"?>
<!-- Generator: Adobe Illustrator 23.0.2, SVG Export Plug-In . SVG Version: 6.00 Build 0)  -->
<svg version="1.1" id="stage" xmlns="http://www.w3.org/2000/svg" xmlns:xlink="http://www.w3.org/1999/xlink" x="0px" y="0px"
	 viewBox="0 0 1154 768" style="enable-background:new 0 0 1154 768;" xml:space="preserve">
<style type="text/css">
	.st0{fill:#262626;}
	.st1{fill:#A09D9C;}
	.st2{fill:#FF552E;}
	.st3{fill:#F73B1C;}
	.st4{fill:#D32816;}
	.st5{fill:#C69C6D;}
	.st6{fill:#C4905C;}
	.st7{fill:#8C6239;}
	.st8{fill:#997252;}
	.st9{fill:#C6A887;}
	.st10{fill:#A87D5A;}
	.st11{fill:#A67C52;}
	.st12{opacity:0.24;fill:#122D33;}
	.st13{fill:#FFD700;}
	.st14{fill:#D1A900;}
</style>
<rect id="black-background" class="st0" width="1153.35" height="767"/>
<rect id="topcurtainShadow" x="1.41" y="76.98" class="st1" width="1155.59" height="78.01"/>
<g id="topCurtain">
	<rect x="1131.9" class="st2" width="25.1" height="126.84"/>
	<rect x="239.47" class="st3" width="57.91" height="132.86"/>
	<rect x="371.95" class="st3" width="58.26" height="132.86"/>
	<rect x="378.67" class="st2" width="29.41" height="132.86"/>
	<rect x="420.35" class="st4" width="9.86" height="132.86"/>
	<rect x="848.08" class="st3" width="58.26" height="132.86"/>
	<rect x="854.81" class="st2" width="29.41" height="132.86"/>
	<rect x="896.48" class="st4" width="9.86" height="132.86"/>
	<rect x="282.88" class="st4" width="14.85" height="132.86"/>
	<rect x="125.02" class="st3" width="59.28" height="132.86"/>
	<rect x="297.73" class="st3" width="74.22" height="126.84"/>
	<rect x="555.12" class="st3" width="60.59" height="126.84"/>
	<rect x="429.86" class="st3" width="74.22" height="126.84"/>
	<rect x="55.52" class="st3" width="69.49" height="126.84"/>
	<rect x="501.98" class="st3" width="53.14" height="132.86"/>
	<rect x="104.7" class="st4" width="17.25" height="126.84"/>
	<rect x="132.2" class="st2" width="17.93" height="132.86"/>
	<rect x="175.65" class="st4" width="8.65" height="132.86"/>
	<rect x="184.3" class="st3" width="44.69" height="126.84"/>
	<rect x="228.48" class="st4" width="11.14" height="126.84"/>
	<rect x="305.61" class="st2" width="13.68" height="126.84"/>
	<rect x="359.35" class="st4" width="12.6" height="126.84"/>
	<rect x="439.73" class="st2" width="14" height="126.84"/>
	<rect x="487.8" class="st4" width="14.18" height="126.84"/>
	<rect x="510.87" class="st2" width="10.64" height="132.86"/>
	<rect x="563.13" class="st2" width="15.95" height="126.84"/>
	<rect x="542.1" class="st4" width="13.02" height="132.86"/>
	<rect x="68.62" class="st2" width="22.95" height="126.84"/>
	<rect x="188.77" class="st2" width="11.17" height="126.84"/>
	<rect x="673.62" class="st3" width="44.69" height="126.84"/>
	<rect x="711.17" class="st4" width="17.63" height="126.84"/>
	<rect x="678.1" class="st2" width="11.17" height="126.84"/>
	<rect x="251.56" class="st2" width="16.87" height="132.86"/>
	<rect x="615.71" class="st3" width="57.91" height="132.86"/>
	<rect x="666.55" class="st4" width="7.42" height="132.86"/>
	<rect x="627.8" class="st2" width="16.87" height="132.86"/>
	<rect x="961.68" class="st3" width="57.91" height="132.86"/>
	<rect x="1005.09" class="st4" width="14.85" height="132.86"/>
	<rect x="973.77" class="st2" width="16.87" height="132.86"/>
	<rect x="741.86" class="st3" width="43.67" height="132.86"/>
	<rect x="774.99" class="st4" width="10.55" height="132.86"/>
	<rect x="728.8" class="st2" width="13.07" height="132.86"/>
	<rect x="1093.16" class="st3" width="43.67" height="132.86"/>
	<rect x="1126.4" class="st4" width="11" height="132.86"/>
	<rect x="1080.09" class="st2" width="13.07" height="132.86"/>
	<rect x="605.85" class="st4" width="9.86" height="126.84"/>
	<rect x="785.53" class="st3" width="62.55" height="126.84"/>
	<rect x="791.3" class="st2" width="23.31" height="126.84"/>
	<rect x="835.97" class="st4" width="11.85" height="126.84"/>
	<rect x="905.99" class="st3" width="55.69" height="126.84"/>
	<rect x="917.44" y="0.16" class="st2" width="14.71" height="126.68"/>
	<rect x="948.9" y="0.16" class="st4" width="7.35" height="126.68"/>
	<rect x="1019.94" y="0.16" class="st3" width="60.15" height="126.84"/>
	<rect x="1033.64" y="0.32" class="st2" width="17.6" height="126.68"/>
	<rect x="1071.29" y="0.32" class="st4" width="8.8" height="126.68"/>
	<rect x="14.47" class="st3" width="41.05" height="138.39"/>
	<rect x="1.41" class="st2" width="13.06" height="138.39"/>
	<rect x="46.09" class="st4" width="13.06" height="138.39"/>
</g>
<path id="clippingObject" class="st5" d="M1134.52,720.12c6.78,2.57,13.06,5.19,18.83,7.87V767H0v-39.01
	c2.96-1.37,6.05-2.73,9.27-4.07c11.78-4.91,25.33-9.64,40.47-14.16c12.11-3.63,25.25-7.11,39.34-10.45
	c0.37-0.09,0.74-0.18,1.12-0.27c12.06-2.84,24.82-5.57,38.22-8.18c0.37-0.08,0.74-0.15,1.12-0.22c12.22-2.38,24.97-4.66,38.22-6.83
	c0.37-0.06,0.74-0.12,1.12-0.18c12.67-2.07,25.8-4.05,39.34-5.92c13.11-1.82,26.61-3.54,40.47-5.16
	c13.17-1.54,26.66-2.99,40.47-4.34c13.22-1.3,26.71-2.51,40.47-3.63c12.89-1.05,26.01-2.02,39.34-2.91
	c0.37-0.02,0.75-0.05,1.12-0.07c12.56-0.83,25.3-1.59,38.22-2.27c0.37-0.02,0.75-0.04,1.12-0.05c12.58-0.67,25.33-1.25,38.22-1.76
	c0.37-0.02,0.74-0.03,1.12-0.04c12.97-0.52,26.09-0.95,39.34-1.31c12.99-0.34,26.11-0.62,39.34-0.81c0.38-0.01,0.75-0.01,1.12-0.02
	c13.01-0.18,26.12-0.29,39.34-0.33c2.9-0.01,5.8-0.01,8.71-0.01c10.65,0,21.23,0.05,31.76,0.15c13.61,0.13,27.1,0.34,40.47,0.63
	c13.62,0.29,27.13,0.67,40.47,1.14c13.66,0.46,27.15,1.01,40.47,1.65c13.68,0.65,27.17,1.38,40.47,2.2
	c13.7,0.85,27.2,1.78,40.47,2.79c13.74,1.05,27.24,2.19,40.47,3.42c13.78,1.27,27.28,2.64,40.47,4.1
	c13.84,1.53,27.34,3.16,40.47,4.88c13.92,1.83,27.42,3.76,40.47,5.79c14.02,2.17,27.52,4.47,40.47,6.86
	c14.18,2.62,27.69,5.37,40.47,8.24c14.43,3.23,27.95,6.62,40.47,10.13C1108.99,711.18,1122.51,715.57,1134.52,720.12z"/>
<g id="pannels">
	<path class="st6" d="M208.24,671.9V767h-40.47v-89.8c0.37-0.05,0.74-0.11,1.12-0.16C181.68,675.24,194.81,673.52,208.24,671.9z"/>
	<path class="st7" d="M49.74,698.43V767H9.27v-58.39C21.92,705.09,35.43,701.69,49.74,698.43z"/>
	<path class="st8" d="M90.21,689.99V767H49.74v-68.57c12.52-2.85,25.65-5.6,39.34-8.23C89.46,690.13,89.83,690.06,90.21,689.99z"/>
	<path class="st9" d="M129.55,683.02V767H89.09v-76.8c0.37-0.07,0.74-0.14,1.12-0.21c12.29-2.36,25.03-4.62,38.22-6.79
		C128.8,683.14,129.18,683.08,129.55,683.02z"/>
	<path class="st7" d="M168.9,677.04V767h-40.47v-83.8c0.37-0.06,0.75-0.12,1.12-0.18c12.37-2.03,25.11-3.97,38.22-5.82
		C168.15,677.15,168.52,677.09,168.9,677.04z"/>
	<path class="st5" d="M248.71,667.37V767h-40.47v-95.1C221.44,670.3,234.93,668.78,248.71,667.37z"/>
	<path class="st8" d="M289.18,663.51V767h-40.47v-99.63C261.94,665.99,275.44,664.71,289.18,663.51z"/>
	<path class="st10" d="M329.65,660.29V767h-40.47V663.51C302.44,662.35,315.95,661.27,329.65,660.29z"/>
	<path class="st11" d="M370.12,657.63V767h-40.47V660.29c12.93-0.95,26.05-1.81,39.34-2.59
		C369.36,657.67,369.73,657.65,370.12,657.63z"/>
	<path class="st9" d="M409.46,655.57V767h-40.47V657.7c0.37-0.03,0.74-0.05,1.12-0.07c12.59-0.74,25.33-1.41,38.22-2.01
		C408.71,655.6,409.08,655.58,409.46,655.57z"/>
	<path class="st7" d="M448.8,653.99V767h-40.47V655.62c0.37-0.02,0.74-0.04,1.12-0.05c12.6-0.59,25.35-1.1,38.22-1.54
		C448.05,654.01,448.42,654,448.8,653.99z"/>
	<path class="st8" d="M488.15,652.87V767h-40.47V654.03c0.37-0.02,0.74-0.03,1.12-0.04C461.79,653.55,474.92,653.17,488.15,652.87z"
		/>
	<path class="st5" d="M528.06,652.26c-0.2,0-0.38-0.03-0.56-0.05v0.01c-13.22,0.15-26.34,0.37-39.34,0.65V767h40.47V652.21
		C528.43,652.23,528.25,652.26,528.06,652.26z"/>
	<path class="st10" d="M566.84,652c-12.83,0-25.57,0.07-38.22,0.21v0c-0.19,0.02-0.36,0.05-0.56,0.05s-0.38-0.03-0.56-0.05V767
		h40.47V652H566.84z"/>
	<path class="st11" d="M608.43,652.25V767h-40.47V652C581.55,652,595.04,652.09,608.43,652.25z"/>
	<path class="st9" d="M648.9,652.95V767h-40.47V652.25C622.03,652.4,635.53,652.64,648.9,652.95z"/>
	<path class="st10" d="M689.37,655v112H648.9V655c0-0.72,0.15-1.4,0.42-2.04c13.46,0.32,26.79,0.72,39.97,1.18
		C689.34,654.42,689.37,654.71,689.37,655z"/>
	<path class="st6" d="M729.83,655.83V767h-40.47V654.15C703,654.63,716.5,655.19,729.83,655.83z"/>
	<path class="st11" d="M770.3,658.04V767h-40.47V657c0-0.4,0.04-0.78,0.12-1.16C743.57,656.49,757.03,657.22,770.3,658.04z"/>
	<path class="st5" d="M810.77,660.78V767H770.3V658.04C783.98,658.87,797.47,659.78,810.77,660.78z"/>
	<path class="st7" d="M851.24,664.11V767h-40.47V660.78C824.49,661.8,837.97,662.92,851.24,664.11z"/>
	<path class="st11" d="M891.71,668.07V767h-40.47V664.11C864.98,665.34,878.48,666.66,891.71,668.07z"/>
	<path class="st8" d="M932.18,672.73V767h-40.47v-98.93C905.49,669.53,918.99,671.08,932.18,672.73z"/>
	<path class="st9" d="M972.64,678.16V767h-40.47v-94.27C946.01,674.44,959.51,676.26,972.64,678.16z"/>
	<path class="st5" d="M1013.11,684.52V767h-40.47v-88.84C986.56,680.18,1000.05,682.3,1013.11,684.52z"/>
	<path class="st6" d="M1053.58,691.96V767h-40.47v-82.48C1027.12,686.89,1040.62,689.37,1053.58,691.96z"/>
	<path class="st7" d="M1094.05,700.79V767h-40.47v-75.04C1067.73,694.79,1081.23,697.73,1094.05,700.79z"/>
	<path class="st11" d="M1134.52,711.5V767h-40.47v-66.21C1108.43,704.23,1121.94,707.8,1134.52,711.5z"/>
	<path class="st5" d="M9.27,708.61V767H0v-55.74C3.04,710.37,6.13,709.49,9.27,708.61z"/>
</g>
<g id="leftCurtain">
	<path class="st12" d="M96.11,705.82c3.95,19.28-21.79,8.89-20.67,17.86c0.83,6.68-6.22,8.26-17.73,9.52
		c-8.2,0.9-2.26,3.97-6.3,7.44c-7.8,6.71-23.34,2.08-21.72,5.7c3.63,8.11-6.2,9.58-6.2,9.58l-20.97-1.83V0h272.04
		C267.42,292.35,86.42,453.73,86.42,453.73c-1.19,17.65-5.81,31.67-17.94,42.16C68.49,529.79,85.11,652.1,96.11,705.82z"/>
	<path class="st4" d="M89.42,712.31c1.81,8.96-47.27,5.98-67.66,0V0h197.9c0,275.38-169.96,470.91-169.96,470.91
		S79.79,664.62,89.42,712.31z"/>
	<path class="st3" d="M49.71,736.35c0.62,5.99-45.24,8.52-47.18-3.78V0h131.65c4.21,207.19-43.22,357.27-108.06,462.19L49.71,736.35
		z"/>
	<path class="st3" d="M70.19,722.74c3.82,16.79-43.39,6.27-67.66,0V0h173.61c5.92,183.17-49.2,365.21-136.36,464.1
		C39.78,464.1,57.32,666.19,70.19,722.74z"/>
	<path class="st4" d="M15.68,455.57l19.31,285.5c8.35-0.64,14.96-2.42,14.72-4.72L26.12,462.19C90.97,357.27,128.9,207.19,124.7,0
		H93.49C97.7,207.19,80.53,350.65,15.68,455.57z"/>
	<path class="st2" d="M60.18,0H6.01c0,0,57.93,249.69-3.49,429.84v324.27c1.37,3.49,23.57,4.89,23.1-0.44
		c-7.09-80.06-23.1-323.83-23.1-323.83C82.31,314.63,60.18,0,60.18,0z"/>
	<path class="st13" d="M61.86,455.55c-20.47,2.95-40.36,1.01-59.33-8.96v33.78c0,0,36.64,12.09,49.33,8.12
		C63.49,484.86,64.98,468.84,61.86,455.55z"/>
	<path class="st14" d="M23.82,486.24c11.57,3.3,19.15,5.03,28.04,2.25c9.72-3.04,12.35-14.72,11.14-26.23h0
		C63,462.26,58.8,487.3,23.82,486.24z"/>
</g>
<g id="rightCurtain">
	<path class="st12" d="M1060.58,710.29c-3.97,19.4,21.93,8.95,20.8,17.97c-0.84,6.72,6.26,8.31,17.84,9.58
		c8.25,0.91,2.27,3.99,6.34,7.49c7.85,6.75,23.49,2.09,21.86,5.74c-3.66,8.17,6.24,9.64,6.24,9.64l21.1-1.84V0H880.99
		c7.19,294.2,189.34,456.6,189.34,456.6c1.2,17.76,5.85,31.87,18.05,42.43C1088.38,533.14,1071.65,656.22,1060.58,710.29z"/>
	<path class="st4" d="M1067.31,716.82c-1.82,9.02,47.57,6.02,68.09,0V0H936.24c0,277.12,171.03,473.89,171.03,473.89
		S1077.01,668.83,1067.31,716.82z"/>
	<path class="st3" d="M1107.27,741.01c-0.62,6.02,45.53,8.58,47.48-3.81V0h-132.48c-4.23,208.5,43.49,359.53,108.75,465.11
		L1107.27,741.01z"/>
	<path class="st3" d="M1086.66,727.32c-3.84,16.9,43.67,6.31,68.09,0V0H980.04c-5.96,184.33,49.51,367.52,137.22,467.04
		C1117.26,467.04,1099.61,670.4,1086.66,727.32z"/>
	<path class="st4" d="M1141.52,458.45l-19.43,287.31c-8.4-0.64-15.05-2.44-14.81-4.75l23.74-275.9
		C1065.76,359.53,1027.58,208.5,1031.81,0h31.41C1058.98,208.5,1076.26,352.87,1141.52,458.45z"/>
	<path class="st2" d="M1096.73,0h54.51c0,0-58.3,251.27,3.51,432.56v326.32c-1.38,3.52-23.72,4.92-23.25-0.44
		c7.13-80.57,23.25-325.88,23.25-325.88C1074.46,316.62,1096.73,0,1096.73,0z"/>
	<path class="st13" d="M1095.04,458.43c20.59,2.97,40.62,1.01,59.71-9.01v33.99c0,0-36.87,12.17-49.65,8.17
		C1093.4,487.92,1091.9,471.8,1095.04,458.43z"/>
	<path class="st14" d="M1133.32,489.32c-11.65,3.32-19.28,5.06-28.22,2.26c-9.78-3.06-12.43-14.81-11.21-26.4h0
		C1093.9,465.18,1098.13,490.38,1133.32,489.32z"/>
</g>
</svg>
