<?xml version="1.0" encoding="utf-8"?>
<!-- Generator: Adobe Illustrator 22.1.0, SVG Export Plug-In . SVG Version: 6.00 Build 0)  -->
<svg version="1.1" id="stage" xmlns="http://www.w3.org/2000/svg" xmlns:xlink="http://www.w3.org/1999/xlink" x="0px" y="0px"
	 viewBox="0 0 1160 767" style="enable-background:new 0 0 1160 767;" xml:space="preserve">
<style type="text/css">
	.st0{fill:#262626;}
	.st1{fill:#A09D9C;}
	.st2{fill:#FF552E;}
	.st3{fill:#F73B1C;}
	.st4{fill:#D32816;}
	.st5{fill:#C69C6D;}
	.st6{fill:#C4905C;}
	.st7{fill:#8C6239;}
	.st8{fill:#997252;}
	.st9{fill:#C6A887;}
	.st10{fill:#A87D5A;}
	.st11{fill:#A67C52;}
	.st12{opacity:0.24;fill:#122D33;}
	.st13{fill:#FFD700;}
	.st14{fill:#D1A900;}
</style>
<rect id="black-background" x="1" class="st0" width="1153.3" height="767"/>
<rect id="topcurtainShadow" x="2.4" y="77" class="st1" width="1155.6" height="78"/>
<g id="topCurtain">
	<rect x="1132.9" class="st2" width="25.1" height="156.7"/>
	<rect x="240.5" class="st3" width="57.9" height="164.2"/>
	<rect x="372.9" class="st3" width="58.3" height="164.2"/>
	<rect x="379.7" class="st2" width="29.4" height="164.2"/>
	<rect x="421.3" class="st4" width="9.9" height="164.2"/>
	<rect x="849.1" class="st3" width="58.3" height="164.2"/>
	<rect x="855.8" class="st2" width="29.4" height="164.2"/>
	<rect x="897.5" class="st4" width="9.9" height="164.2"/>
	<rect x="283.9" class="st4" width="14.8" height="164.2"/>
	<rect x="126" class="st3" width="59.3" height="164.2"/>
	<rect x="298.7" class="st3" width="74.2" height="156.7"/>
	<rect x="556.1" class="st3" width="60.6" height="156.7"/>
	<rect x="430.9" class="st3" width="74.2" height="156.7"/>
	<rect x="56.5" class="st3" width="69.5" height="156.7"/>
	<rect x="503" class="st3" width="53.1" height="164.2"/>
	<rect x="105.7" class="st4" width="17.3" height="156.7"/>
	<rect x="133.2" class="st2" width="17.9" height="164.2"/>
	<rect x="176.6" class="st4" width="8.7" height="164.2"/>
	<rect x="185.3" class="st3" width="44.7" height="156.7"/>
	<rect x="229.5" class="st4" width="11.1" height="156.7"/>
	<rect x="306.6" class="st2" width="13.7" height="156.7"/>
	<rect x="360.3" class="st4" width="12.6" height="156.7"/>
	<rect x="440.7" class="st2" width="14" height="156.7"/>
	<rect x="488.8" class="st4" width="14.2" height="156.7"/>
	<rect x="511.9" class="st2" width="10.6" height="164.2"/>
	<rect x="564.1" class="st2" width="15.9" height="156.7"/>
	<rect x="543.1" class="st4" width="13" height="164.2"/>
	<rect x="69.6" class="st2" width="23" height="156.7"/>
	<rect x="189.8" class="st2" width="11.2" height="156.7"/>
	<rect x="674.6" class="st3" width="44.7" height="156.7"/>
	<rect x="712.2" class="st4" width="17.6" height="156.7"/>
	<rect x="679.1" class="st2" width="11.2" height="156.7"/>
	<rect x="252.6" class="st2" width="16.9" height="164.2"/>
	<rect x="616.7" class="st3" width="57.9" height="164.2"/>
	<rect x="667.6" class="st4" width="7.4" height="164.2"/>
	<rect x="628.8" class="st2" width="16.9" height="164.2"/>
	<rect x="962.7" class="st3" width="57.9" height="164.2"/>
	<rect x="1006.1" class="st4" width="14.8" height="164.2"/>
	<rect x="974.8" class="st2" width="16.9" height="164.2"/>
	<rect x="742.9" class="st3" width="43.7" height="164.2"/>
	<rect x="776" class="st4" width="10.5" height="164.2"/>
	<rect x="729.8" class="st2" width="13.1" height="164.2"/>
	<rect x="1094.2" class="st3" width="43.7" height="164.2"/>
	<rect x="1127.4" class="st4" width="11" height="164.2"/>
	<rect x="1081.1" class="st2" width="13.1" height="164.2"/>
	<rect x="606.8" class="st4" width="9.9" height="156.7"/>
	<rect x="786.5" class="st3" width="62.6" height="156.7"/>
	<rect x="792.3" class="st2" width="23.3" height="156.7"/>
	<rect x="837" class="st4" width="11.8" height="156.7"/>
	<rect x="907" class="st3" width="55.7" height="156.7"/>
	<rect x="918.4" y="0.2" class="st2" width="14.7" height="156.5"/>
	<rect x="949.9" y="0.2" class="st4" width="7.4" height="156.5"/>
	<rect x="1020.9" y="0.2" class="st3" width="60.2" height="156.7"/>
	<rect x="1034.6" y="0.4" class="st2" width="17.6" height="156.5"/>
	<rect x="1072.3" y="0.4" class="st4" width="8.8" height="156.5"/>
	<rect x="15.5" class="st3" width="41.1" height="171"/>
	<rect x="2.4" class="st2" width="13.1" height="171"/>
	<rect x="47.1" class="st4" width="13.1" height="171"/>
</g>
<path id="clippingObject" class="st5" d="M1139.1,720.1c6.8,2.6,13.1,5.2,18.9,7.9v39H1v-39c3-1.4,6.1-2.7,9.3-4.1
	c11.8-4.9,25.4-9.6,40.6-14.2c12.1-3.6,25.3-7.1,39.5-10.5c0.4-0.1,0.7-0.2,1.1-0.3c12.1-2.8,24.9-5.6,38.3-8.2
	c0.4-0.1,0.7-0.2,1.1-0.2c12.3-2.4,25-4.7,38.3-6.8c0.4-0.1,0.7-0.1,1.1-0.2c12.7-2.1,25.9-4.1,39.5-5.9c13.1-1.8,26.7-3.5,40.6-5.2
	c13.2-1.5,26.7-3,40.6-4.3c13.3-1.3,26.8-2.5,40.6-3.6c12.9-1,26.1-2,39.5-2.9c0.4,0,0.8,0,1.1-0.1c12.6-0.8,25.4-1.6,38.3-2.3
	c0.4,0,0.8,0,1.1,0c12.6-0.7,25.4-1.3,38.3-1.8c0.4,0,0.7,0,1.1,0c13-0.5,26.2-1,39.5-1.3c13-0.3,26.2-0.6,39.5-0.8
	c0.4,0,0.8,0,1.1,0c13-0.2,26.2-0.3,39.5-0.3c2.9,0,5.8,0,8.7,0c10.7,0,21.3,0,31.9,0.1c13.7,0.1,27.2,0.3,40.6,0.6
	c13.7,0.3,27.2,0.7,40.6,1.1c13.7,0.5,27.2,1,40.6,1.7c13.7,0.6,27.3,1.4,40.6,2.2c13.7,0.9,27.3,1.8,40.6,2.8
	c13.8,1,27.3,2.2,40.6,3.4c13.8,1.3,27.4,2.6,40.6,4.1c13.9,1.5,27.4,3.2,40.6,4.9c14,1.8,27.5,3.8,40.6,5.8
	c14.1,2.2,27.6,4.5,40.6,6.9c14.2,2.6,27.8,5.4,40.6,8.2c14.5,3.2,28,6.6,40.6,10.1C1113.5,711.2,1127.1,715.6,1139.1,720.1z"/>
<g id="pannels">
	<path class="st6" d="M209.2,671.9V767h-40.5v-89.8c0.4-0.1,0.7-0.1,1.1-0.2C182.7,675.2,195.8,673.5,209.2,671.9z"/>
	<path class="st7" d="M50.7,698.4V767H10.3v-58.4C22.9,705.1,36.4,701.7,50.7,698.4z"/>
	<path class="st8" d="M91.2,690v77H50.7v-68.6c12.5-2.9,25.7-5.6,39.3-8.2C90.5,690.1,90.8,690.1,91.2,690z"/>
	<path class="st9" d="M130.6,683v84H90.1v-76.8c0.4-0.1,0.7-0.1,1.1-0.2c12.3-2.4,25-4.6,38.2-6.8
		C129.8,683.1,130.2,683.1,130.6,683z"/>
	<path class="st7" d="M169.9,677v90h-40.5v-83.8c0.4-0.1,0.8-0.1,1.1-0.2c12.4-2,25.1-4,38.2-5.8C169.1,677.1,169.5,677.1,169.9,677
		z"/>
	<path class="st5" d="M249.7,667.4V767h-40.5v-95.1C222.4,670.3,235.9,668.8,249.7,667.4z"/>
	<path class="st8" d="M290.2,663.5V767h-40.5v-99.6C262.9,666,276.4,664.7,290.2,663.5z"/>
	<path class="st10" d="M330.6,660.3V767h-40.5V663.5C303.4,662.3,316.9,661.3,330.6,660.3z"/>
	<path class="st11" d="M371.1,657.6V767h-40.5V660.3c12.9-1,26-1.8,39.3-2.6C370.4,657.7,370.7,657.6,371.1,657.6z"/>
	<path class="st9" d="M410.5,655.6V767H370V657.7c0.4,0,0.7-0.1,1.1-0.1c12.6-0.7,25.3-1.4,38.2-2
		C409.7,655.6,410.1,655.6,410.5,655.6z"/>
	<path class="st7" d="M449.8,654v113h-40.5V655.6c0.4,0,0.7,0,1.1,0c12.6-0.6,25.3-1.1,38.2-1.5C449.1,654,449.4,654,449.8,654z"/>
	<path class="st8" d="M489.1,652.9V767h-40.5V654c0.4,0,0.7,0,1.1,0C462.8,653.5,475.9,653.2,489.1,652.9z"/>
	<path class="st5" d="M529.1,652.3c-0.2,0-0.4,0-0.6,0v0c-13.2,0.2-26.3,0.4-39.3,0.7V767h40.5V652.2
		C529.4,652.2,529.3,652.3,529.1,652.3z"/>
	<path class="st10" d="M567.8,652c-12.8,0-25.6,0.1-38.2,0.2v0c-0.2,0-0.4,0-0.6,0s-0.4,0-0.6,0V767H569V652H567.8z"/>
	<path class="st11" d="M609.4,652.3V767H569V652C582.6,652,596,652.1,609.4,652.3z"/>
	<path class="st9" d="M649.9,653v114h-40.5V652.3C623,652.4,636.5,652.6,649.9,653z"/>
	<path class="st10" d="M690.4,655v112h-40.5V655c0-0.7,0.1-1.4,0.4-2c13.5,0.3,26.8,0.7,40,1.2C690.3,654.4,690.4,654.7,690.4,655z"
		/>
	<path class="st6" d="M730.8,655.8V767h-40.5V654.1C704,654.6,717.5,655.2,730.8,655.8z"/>
	<path class="st11" d="M771.3,658v109h-40.5V657c0-0.4,0-0.8,0.1-1.2C744.6,656.5,758,657.2,771.3,658z"/>
	<path class="st5" d="M811.8,660.8V767h-40.5V658C785,658.9,798.5,659.8,811.8,660.8z"/>
	<path class="st7" d="M852.2,664.1V767h-40.5V660.8C825.5,661.8,839,662.9,852.2,664.1z"/>
	<path class="st11" d="M892.7,668.1V767h-40.5V664.1C866,665.3,879.5,666.7,892.7,668.1z"/>
	<path class="st8" d="M933.2,672.7V767h-40.5v-98.9C906.5,669.5,920,671.1,933.2,672.7z"/>
	<path class="st9" d="M973.6,678.2V767h-40.5v-94.3C947,674.4,960.5,676.3,973.6,678.2z"/>
	<path class="st5" d="M1014.1,684.5V767h-40.5v-88.8C987.6,680.2,1001.1,682.3,1014.1,684.5z"/>
	<path class="st6" d="M1054.6,692v75h-40.5v-82.5C1028.1,686.9,1041.6,689.4,1054.6,692z"/>
	<path class="st7" d="M1095,700.8V767h-40.5v-75C1068.7,694.8,1082.2,697.7,1095,700.8z"/>
	<path class="st11" d="M1135.5,711.5V767H1095v-66.2C1109.4,704.2,1122.9,707.8,1135.5,711.5z"/>
	<path class="st5" d="M10.3,708.6V767H1v-55.7C4,710.4,7.1,709.5,10.3,708.6z"/>
</g>
<g id="leftCurtain">
	<path class="st12" d="M94.8,705.8c4,19.3-22.1,8.9-20.9,17.9c0.8,6.7-6.3,8.3-18,9.5c-8.3,0.9-2.3,4-6.4,7.4
		c-7.9,6.7-23.6,2.1-22,5.7c3.7,8.1-6.3,9.6-6.3,9.6L0,754.1V0h275.6C268.3,292.3,85,453.7,85,453.7c-1.2,17.6-5.9,31.7-18.2,42.2
		C66.8,529.8,83.6,652.1,94.8,705.8z"/>
	<path class="st4" d="M88,712.3c1.8,9-47.9,6-68.5,0V0H220c0,275.4-172.2,470.9-172.2,470.9S78.3,664.6,88,712.3z"/>
	<path class="st3" d="M47.8,736.4c0.6,6-45.8,8.5-47.8-3.8V0h133.4c4.3,207.2-43.8,357.3-109.5,462.2L47.8,736.4z"/>
	<path class="st3" d="M68.5,722.7c3.9,16.8-44,6.3-68.5,0V0h175.9c6,183.2-49.8,365.2-138.1,464.1C37.7,464.1,55.5,666.2,68.5,722.7
		z"/>
	<path class="st4" d="M13.3,455.6l19.6,285.5c8.5-0.6,15.2-2.4,14.9-4.7L23.9,462.2C89.6,357.3,128,207.2,123.8,0H92.1
		C96.4,207.2,79,350.6,13.3,455.6z"/>
	<path class="st2" d="M58.4,0H3.5c0,0,58.7,249.7-3.5,429.8v324.3c1.4,3.5,23.9,4.9,23.4-0.4C16.2,673.6,0,429.8,0,429.8
		C80.8,314.6,58.4,0,58.4,0z"/>
	<path class="st13" d="M60.1,455.5c-20.7,3-40.9,1-60.1-9v33.8c0,0,37.1,12.1,50,8.1C61.8,484.9,63.3,468.8,60.1,455.5z"/>
	<path class="st14" d="M21.6,486.2c11.7,3.3,19.4,5,28.4,2.3c9.8-3,12.5-14.7,11.3-26.2h0C61.3,462.3,57,487.3,21.6,486.2z"/>
</g>
<g id="rightCurtain">
	<path class="st12" d="M1064.4,710.3c-4,19.4,22.3,8.9,21.1,18c-0.9,6.7,6.4,8.3,18.1,9.6c8.4,0.9,2.3,4,6.4,7.5
		c8,6.7,23.9,2.1,22.2,5.7c-3.7,8.2,6.3,9.6,6.3,9.6l21.4-1.8V0H882c7.3,294.2,192.3,456.6,192.3,456.6c1.2,17.8,5.9,31.9,18.3,42.4
		C1092.6,533.1,1075.6,656.2,1064.4,710.3z"/>
	<path class="st4" d="M1071.2,716.8c-1.8,9,48.3,6,69.1,0V0H938.1c0,277.1,173.7,473.9,173.7,473.9S1081,668.8,1071.2,716.8z"/>
	<path class="st3" d="M1111.8,741c-0.6,6,46.2,8.6,48.2-3.8V0h-134.5c-4.3,208.5,44.2,359.5,110.4,465.1L1111.8,741z"/>
	<path class="st3" d="M1090.9,727.3c-3.9,16.9,44.3,6.3,69.1,0V0H982.6c-6.1,184.3,50.3,367.5,139.4,467
		C1121.9,467,1104,670.4,1090.9,727.3z"/>
	<path class="st4" d="M1146.6,458.5l-19.7,287.3c-8.5-0.6-15.3-2.4-15-4.8l24.1-275.9c-66.3-105.6-105-256.6-100.7-465.1h31.9
		C1062.7,208.5,1080.3,352.9,1146.6,458.5z"/>
	<path class="st2" d="M1101.1,0h55.4c0,0-59.2,251.3,3.6,432.6v326.3c-1.4,3.5-24.1,4.9-23.6-0.4c7.2-80.6,23.6-325.9,23.6-325.9
		C1078.5,316.6,1101.1,0,1101.1,0z"/>
	<path class="st13" d="M1099.4,458.4c20.9,3,41.3,1,60.6-9v34c0,0-37.4,12.2-50.4,8.2C1097.7,487.9,1096.2,471.8,1099.4,458.4z"/>
	<path class="st14" d="M1138.2,489.3c-11.8,3.3-19.6,5.1-28.7,2.3c-9.9-3.1-12.6-14.8-11.4-26.4h0
		C1098.2,465.2,1102.5,490.4,1138.2,489.3z"/>
</g>
</svg>
